<?xml version="1.0" encoding="UTF-8"?>
<svg width="88px" height="40px" viewBox="0 0 88 40" version="1.1" xmlns="http://www.w3.org/2000/svg" xmlns:xlink="http://www.w3.org/1999/xlink">
    <!-- Generator: Sketch 46.1 (44463) - http://www.bohemiancoding.com/sketch -->
    <title>bioz_uni_en@3x</title>
    <desc>Created with Sketch.</desc>
    <defs></defs>
    <g id="Symbols" stroke="none" stroke-width="1" fill="none" fill-rule="evenodd">
        <g id="Navi" transform="translate(-157.000000, -14.000000)">
            <g id="Group-38" transform="translate(157.000000, 14.000000)">
                <path d="M8.1979927,15.1126457 L5.80396189,15.1126457 C5.34073746,15.1126457 4.95904536,14.7381899 4.95904536,14.2836842 L4.95904536,5.98043164 C4.95904536,5.52562947 5.34073746,5.15117371 5.80396189,5.15117371 L8.11162882,5.15117371 C9.78455146,5.15117371 11.0099522,6.28313895 11.0099522,7.88087615 C11.0099522,8.87794244 10.5917215,9.3911514 10.0536082,9.94823958 C10.6515119,10.461745 11.2155949,11.1537322 11.2155949,12.1472407 L11.2155949,12.2649437 C11.2155949,13.8920325 9.85611873,15.1126457 8.1979927,15.1126457 M8.1267274,6.75157925 L6.58425649,6.75157925 L6.58425649,9.18480048 L8.1267274,9.18480048 C8.80042603,9.18480048 9.27754115,8.62889823 9.27754115,7.88087615 C9.27754115,7.20519549 8.79891617,6.75157925 8.1267274,6.75157925 M9.48197592,12.1472407 C9.48197592,11.3470379 8.90460623,10.7855025 8.21278931,10.7855025 L6.58425649,10.7855025 L6.58425649,13.5110542 L8.21278931,13.5110542 C8.95412957,13.5110542 9.48197592,12.953966 9.48197592,12.2649437 L9.48197592,12.1472407" id="Fill-1" fill="#5A2D87"></path>
                <path d="M14.1193537,15.2344994 C13.6860245,15.2344994 13.2529972,14.9558071 13.2529972,14.3841913 L13.2529972,5.91372337 C13.2529972,5.34151465 13.6860245,5.06371176 14.1193537,5.06371176 C14.552381,5.06371176 14.9854083,5.34151465 14.9854083,5.91372337 L14.9854083,14.3841913 C14.9854083,14.9558071 14.552381,15.2344994 14.1193537,15.2344994" id="Fill-2" fill="#5A2D87"></path>
                <path d="M20.5628236,15.2339065 L20.4284463,15.2339065 C18.7857208,15.2339065 17.4419472,13.9252384 17.4419472,12.3458831 L17.4419472,7.89481077 C17.4419472,6.26742544 18.7857208,5.06371176 20.4284463,5.06371176 L20.5628236,5.06371176 C22.2209497,5.06371176 23.5499266,6.26742544 23.5499266,7.89481077 L23.5499266,12.3458831 C23.5499266,13.9252384 22.2882893,15.2339065 20.5628236,15.2339065 M21.8181195,7.85241395 C21.8181195,7.16339164 21.2652096,6.66471026 20.5628236,6.66471026 L20.4284463,6.66471026 C19.7266643,6.66471026 19.1740563,7.17851218 19.1740563,7.85241395 L19.1740563,12.346476 C19.1740563,13.072855 19.7097539,13.6326115 20.4284463,13.6326115 L20.5628236,13.6326115 C21.3228861,13.6326115 21.8181195,13.0681113 21.8181195,12.3610036 L21.8181195,7.85241395" id="Fill-3" fill="#5A2D87"></path>
                <path d="M30.3575743,15.1126457 L26.1151754,15.1126457 C25.5936704,15.1126457 25.1986916,14.8105313 25.1986916,14.2089709 C25.1986916,14.0479817 25.2654273,13.8537865 25.3545089,13.6865711 L29.2076665,6.75157925 L26.2797499,6.75157925 C25.6975486,6.75157925 25.4133934,6.36882202 25.4133934,5.94455741 C25.4133934,5.53333798 25.6975486,5.15117371 26.2797499,5.15117371 L30.3424757,5.15117371 C30.9433992,5.15117371 31.2378215,5.54667964 31.2378215,6.01867771 C31.2378215,6.19449107 31.1813528,6.40202791 31.1037461,6.56183128 L27.4302617,13.5110542 L30.371767,13.5110542 C30.9391716,13.5110542 31.2227229,13.8766155 31.2227229,14.3044379 C31.2227229,14.7479738 30.9391716,15.1126457 30.3575743,15.1126457" id="Fill-4" fill="#5A2D87"></path>
                <path d="M38.5307375,15.1126457 L34.1542632,15.1126457 C33.6916427,15.1126457 33.2885106,14.7589436 33.2885106,14.3044379 L33.2885106,5.95878851 C33.2885106,5.50428283 33.6916427,5.15117371 34.1542632,5.15117371 L38.5307375,5.15117371 C39.1123348,5.15117371 39.3961881,5.53333798 39.3961881,5.94455741 C39.3961881,6.36882202 39.1123348,6.75157925 38.5307375,6.75157925 L35.0206197,6.75157925 L35.0206197,9.18480048 L37.3506325,9.18480048 C37.9322298,9.18480048 38.2166871,9.56696475 38.2166871,9.9921188 C38.2166871,10.4027453 37.9322298,10.7855025 37.3506325,10.7855025 L35.0206197,10.7855025 L35.0206197,13.5110542 L38.5307375,13.5110542 C39.1123348,13.5110542 39.3961881,13.8932185 39.3961881,14.3189655 C39.3961881,14.7298884 39.1123348,15.1126457 38.5307375,15.1126457" id="Fill-5" fill="#5A2D87"></path>
                <path d="M46.9617845,15.2765998 L46.8829699,15.2765998 C46.371128,15.2765998 46.1229074,14.9807115 45.9097154,14.5436982 L43.0304163,8.98408271 L43.0304163,14.4265882 C43.0304163,14.9982039 42.597087,15.2765998 42.1646637,15.2765998 C41.7310325,15.2765998 41.2980052,14.9982039 41.2980052,14.4265882 L41.2980052,5.95612018 C41.2980052,5.50131802 41.6703362,5.06371176 42.1646637,5.06371176 L42.2712597,5.06371176 C42.8238677,5.06371176 43.0340399,5.37412758 43.277429,5.83663826 L46.1062989,11.0742752 L46.1062989,5.89860283 C46.1062989,5.34151465 46.5381183,5.06371176 46.9714476,5.06371176 C47.4044748,5.06371176 47.838408,5.34151465 47.838408,5.89860283 L47.838408,14.3592869 C47.838408,14.8908777 47.4250089,15.2765998 46.9617845,15.2765998" id="Fill-6" fill="#5A2D87"></path>
                <path d="M54.4482643,6.75157925 L53.2536646,6.75157925 L53.2536646,14.4259952 C53.2536646,14.9982039 52.8209393,15.2760068 52.3876101,15.2760068 C51.9545828,15.2760068 51.5212536,14.9982039 51.5212536,14.4259952 L51.5212536,6.75157925 L50.326654,6.75157925 C49.7586454,6.75157925 49.4599955,6.36882202 49.4599955,5.94455741 C49.4599955,5.53333798 49.7586454,5.15058075 50.326654,5.15058075 L54.4482643,5.15058075 C55.0307675,5.15058075 55.3149227,5.53333798 55.3149227,5.94455741 C55.3149227,6.36882202 55.0307675,6.75157925 54.4482643,6.75157925" id="Fill-7" fill="#5A2D87"></path>
                <path d="M61.573888,10.7015983 L63.1429324,14.0595444 C63.2018169,14.1914786 63.2471126,14.3234127 63.2471126,14.4405228 C63.2471126,14.9252695 62.7841902,15.2765998 62.3354604,15.2765998 C62.0368105,15.2765998 61.7532591,15.130138 61.5886846,14.7782149 L59.7822905,10.9364114 L58.8860388,10.9364114 L58.8860388,14.4259952 C58.8860388,14.9982039 58.4527096,15.2765998 58.0199843,15.2765998 C57.586957,15.2765998 57.1539298,14.9982039 57.1539298,14.342091 L57.1539298,5.87429137 C57.1539298,5.50428283 57.5570618,5.15117371 58.0199843,5.15117371 L60.3644918,5.15117371 C62.0226178,5.15117371 63.3515948,6.3706009 63.3515948,7.99828271 L63.3515948,8.0457197 C63.3515948,9.26247856 62.6498128,10.2619167 61.573888,10.7015983 M61.6194857,7.99828271 C61.6194857,7.30985335 61.1112675,6.75157925 60.4091836,6.75157925 L58.8860388,6.75157925 L58.8860388,9.33481997 L60.4547813,9.33481997 C61.1260641,9.33481997 61.6194857,8.72051092 61.6194857,8.0457197 L61.6194857,7.99828271" id="Fill-8" fill="#5A2D87"></path>
                <path d="M68.6841112,15.2339065 L68.5494319,15.2339065 C66.9058005,15.2339065 65.5623288,13.9569619 65.5623288,12.3438077 L65.5623288,5.91372337 C65.5623288,5.34151465 65.9953561,5.06371176 66.4286853,5.06371176 C66.8614106,5.06371176 67.2944379,5.34151465 67.2944379,5.91372337 L67.2944379,12.386501 C67.2944379,13.0606992 67.8621445,13.6326115 68.5494319,13.6326115 L68.6841112,13.6326115 C69.3849873,13.6326115 69.9523919,13.0755233 69.9523919,12.386501 L69.9523919,5.91372337 C69.9523919,5.34151465 70.3863251,5.06371176 70.8187484,5.06371176 C71.2523796,5.06371176 71.6848029,5.34151465 71.6848029,5.91372337 L71.6848029,12.3438077 C71.6848029,13.9569619 70.3416333,15.2339065 68.6841112,15.2339065" id="Fill-9" fill="#5A2D87"></path>
                <path d="M81.4028528,15.2765998 C80.9704295,15.2765998 80.5374022,14.9982039 80.5374022,14.4265882 L80.5374022,8.98408271 L79.1815498,11.857282 C78.9719815,12.3420288 78.58425,12.4294908 78.3006986,12.4294908 C78.0165434,12.4294908 77.6282079,12.3420288 77.4192435,11.857282 L76.063693,8.98408271 L76.063693,14.4265882 C76.063693,14.9982039 75.6303638,15.2765998 75.1973365,15.2765998 C74.7643093,15.2765998 74.3306781,14.9982039 74.3306781,14.4265882 L74.3306781,5.91372337 C74.3306781,5.45921768 74.7341121,5.06371176 75.1973365,5.06371176 L75.4210975,5.06371176 C75.9737055,5.06371176 76.1832738,5.41504198 76.361739,5.79631681 L78.3006986,9.81660192 L80.2381484,5.79631681 C80.4027229,5.41504198 80.6264839,5.06371176 81.1790919,5.06371176 L81.4028528,5.06371176 C81.8663792,5.06371176 82.2695113,5.45921768 82.2695113,5.91372337 L82.2695113,14.4265882 C82.2695113,14.9982039 81.836786,15.2765998 81.4028528,15.2765998" id="Fill-10" fill="#5A2D87"></path>
                <path d="M11.3973818,1.28980253 C11.3973818,1.63905738 11.1096028,1.92160397 10.7538803,1.92160397 L1.26532881,1.92160397 C0.910210209,1.92160397 0.621827335,1.63905738 0.621827335,1.28980253 C0.621827335,0.94084415 0.910210209,0.658001083 1.26532881,0.658001083 L10.7538803,0.658001083 C11.1096028,0.658001083 11.3973818,0.94084415 11.3973818,1.28980253" id="Fill-11" fill="#5A2D87"></path>
                <path d="M11.3973818,19.2675332 C11.3973818,19.6161951 11.1096028,19.8993347 10.7538803,19.8993347 L1.26532881,19.8993347 C0.910210209,19.8993347 0.621827335,19.6161951 0.621827335,19.2675332 C0.621827335,18.9182784 0.910210209,18.6351388 1.26532881,18.6351388 L10.7538803,18.6351388 C11.1096028,18.6351388 11.3973818,18.9182784 11.3973818,19.2675332" id="Fill-12" fill="#5A2D87"></path>
                <path d="M7.24617823,24.6415515 L6.1131808,24.6415515 L6.1131808,30.0129015 C6.1131808,30.1593632 6.00779272,30.2195489 5.89394942,30.2195489 C5.78825937,30.2195489 5.68256931,30.1593632 5.68256931,30.0129015 L5.68256931,24.6415515 L4.54987385,24.6415515 C4.40039791,24.6415515 4.3303405,24.5377831 4.3303405,24.4340147 C4.3303405,24.3222413 4.40039791,24.2187693 4.54987385,24.2187693 L7.24617823,24.2187693 C7.3953522,24.2187693 7.46571158,24.3222413 7.46571158,24.4340147 C7.46571158,24.5377831 7.3953522,24.6415515 7.24617823,24.6415515" id="Fill-13" fill="#000000"></path>
                <path d="M10.9344593,30.2195489 C10.8287692,30.2195489 10.714624,30.1593632 10.714624,30.0129015 L10.714624,27.3051386 C10.714624,26.7880754 10.310888,26.3913836 9.78334358,26.3913836 L9.70452899,26.3913836 C9.17789053,26.3913836 8.76479338,26.8141658 8.76479338,27.331229 L8.76479338,30.0129015 C8.76479338,30.1593632 8.65064812,30.2195489 8.54556201,30.2195489 C8.43987195,30.2195489 8.32602865,30.1593632 8.32602865,30.0129015 L8.32602865,24.3821305 C8.32602865,24.2359652 8.43987195,24.1665886 8.54556201,24.1665886 C8.65064812,24.1665886 8.76479338,24.2359652 8.76479338,24.3821305 L8.76479338,26.3913836 C8.9314817,26.1411534 9.34457885,25.9686014 9.70452899,25.9686014 L9.78334358,25.9686014 C10.5301193,25.9686014 11.1539926,26.5553377 11.1539926,27.3137366 L11.1539926,30.0129015 C11.1539926,30.1593632 11.0398474,30.2195489 10.9344593,30.2195489" id="Fill-14" fill="#000000"></path>
                <path d="M14.8676393,27.3137366 C14.8676393,26.8052713 14.4285726,26.3913836 13.9366609,26.3913836 L13.8487872,26.3913836 C13.3309059,26.3913836 12.9005964,26.8052713 12.9005964,27.3137366 L12.9005964,27.8829805 L14.8676393,27.8829805 L14.8676393,27.3137366 Z M15.0787175,28.3137677 L12.9005964,28.3137677 L12.9005964,28.8830116 C12.9005964,29.3920698 13.3221487,29.8059576 13.84003,29.8059576 L13.9282057,29.8059576 C14.3406989,29.8059576 14.6656203,29.5560239 14.7975819,29.1848295 C14.8326106,29.0899555 14.90297,29.0383678 14.9996009,29.0383678 C15.1134442,29.0383678 15.2366486,29.1157494 15.2366486,29.2450152 C15.2366486,29.2622111 15.2278914,29.2883014 15.2188323,29.3226932 C15.0346296,29.8664398 14.5255055,30.2195489 13.9282057,30.2195489 L13.84003,30.2195489 C13.0932542,30.2195489 12.4699849,29.6248076 12.4699849,28.8830116 L12.4699849,27.3137366 C12.4699849,26.5808351 13.0932542,25.9686014 13.8312728,25.9686014 L13.9191465,25.9686014 C14.6834367,25.9686014 15.2979489,26.5298403 15.2979489,27.3137366 L15.2979489,28.0985223 C15.2979489,28.2108887 15.1928627,28.3137677 15.0787175,28.3137677 L15.0787175,28.3137677 Z" id="Fill-15" fill="#000000"></path>
                <path d="M20.346612,30.2195489 L20.2587382,30.2195489 C19.3715457,30.2195489 18.6425862,29.5299336 18.6425862,28.6502739 L18.6425862,25.7444616 C18.6425862,24.8653948 19.3715457,24.1665886 20.2587382,24.1665886 L20.346612,24.1665886 C21.1634451,24.1665886 21.8392576,24.7533249 21.9361904,25.5203218 L21.9361904,25.5464122 C21.9361904,25.675678 21.8392576,25.761954 21.7251123,25.761954 C21.6200262,25.761954 21.5321524,25.6842759 21.5058809,25.580804 C21.4355215,25.028756 20.9439118,24.5893708 20.346612,24.5893708 L20.2587382,24.5893708 C19.5998362,24.5893708 19.0731977,25.0984291 19.0731977,25.7444616 L19.0731977,28.6502739 C19.0731977,29.2966029 19.5998362,29.8059576 20.2587382,29.8059576 L20.346612,29.8059576 C20.9439118,29.8059576 21.4355215,29.3659795 21.5058809,28.814228 C21.5321524,28.7104595 21.6200262,28.6327815 21.7251123,28.6327815 C21.8392576,28.6327815 21.9361904,28.7190575 21.9361904,28.8489163 L21.9361904,28.8744137 C21.8392576,29.6508979 21.1634451,30.2195489 20.346612,30.2195489" id="Fill-16" fill="#000000"></path>
                <path d="M25.2723726,27.3137366 C25.2723726,26.8052713 24.8333059,26.3913836 24.3413942,26.3913836 L24.2538224,26.3913836 C23.7356392,26.3913836 23.3053297,26.8052713 23.3053297,27.3137366 L23.3053297,27.8829805 L25.2723726,27.8829805 L25.2723726,27.3137366 Z M25.4834508,28.3137677 L23.3053297,28.3137677 L23.3053297,28.8830116 C23.3053297,29.3920698 23.726882,29.8059576 24.2450653,29.8059576 L24.332939,29.8059576 C24.7457342,29.8059576 25.0706556,29.5560239 25.2023152,29.1848295 C25.2376459,29.0899555 25.3080053,29.0383678 25.4040322,29.0383678 C25.5184795,29.0383678 25.6413819,29.1157494 25.6413819,29.2450152 C25.6413819,29.2622111 25.6329267,29.2883014 25.6238676,29.3226932 C25.4393629,29.8664398 24.9302388,30.2195489 24.332939,30.2195489 L24.2450653,30.2195489 C23.4982895,30.2195489 22.8744162,29.6248076 22.8744162,28.8830116 L22.8744162,27.3137366 C22.8744162,26.5808351 23.4982895,25.9686014 24.2363081,25.9686014 L24.3241818,25.9686014 C25.08817,25.9686014 25.7026822,26.5298403 25.7026822,27.3137366 L25.7026822,28.0985223 C25.7026822,28.2108887 25.597596,28.3137677 25.4834508,28.3137677 L25.4834508,28.3137677 Z" id="Fill-17" fill="#000000"></path>
                <path d="M29.5048065,30.2195489 C29.3994184,30.2195489 29.2855751,30.1593632 29.2855751,30.0129015 L29.2855751,27.3051386 C29.2855751,26.7880754 28.8815371,26.3913836 28.3545967,26.3913836 L28.2751782,26.3913836 C27.7485397,26.3913836 27.3354426,26.8141658 27.3354426,27.331229 L27.3354426,30.0129015 C27.3354426,30.1593632 27.2215993,30.2195489 27.1162112,30.2195489 C27.0105211,30.2195489 26.8963759,30.1593632 26.8963759,30.0129015 L26.8963759,26.1841432 C26.8963759,26.037978 27.0105211,25.9686014 27.1162112,25.9686014 C27.2215993,25.9686014 27.3354426,26.037978 27.3354426,26.1841432 L27.3354426,26.3913836 C27.5024329,26.1411534 27.915228,25.9686014 28.2751782,25.9686014 L28.3545967,25.9686014 C29.1007685,25.9686014 29.7249438,26.5553377 29.7249438,27.3137366 L29.7249438,30.0129015 C29.7249438,30.1593632 29.6104966,30.2195489 29.5048065,30.2195489" id="Fill-18" fill="#000000"></path>
                <path d="M32.4284955,30.2195489 C31.7608363,30.2195489 31.339284,29.8059576 31.339284,29.1507341 L31.339284,26.416881 L31.0228177,26.416881 C30.8736438,26.416881 30.8035863,26.3137055 30.8035863,26.2108265 C30.8035863,26.0984602 30.8736438,25.9946917 31.0228177,25.9946917 L31.339284,25.9946917 L31.339284,24.3821305 C31.339284,24.2359652 31.444672,24.1665886 31.5588173,24.1665886 C31.6639034,24.1665886 31.7695935,24.2359652 31.7695935,24.3821305 L31.7695935,25.9946917 L32.3756505,25.9946917 C32.5251264,25.9946917 32.603941,26.0984602 32.603941,26.2108265 C32.603941,26.3137055 32.5251264,26.416881 32.3756505,26.416881 L31.7695935,26.416881 L31.7695935,29.1507341 C31.7695935,29.5213356 32.0153984,29.8059576 32.4284955,29.8059576 C32.5776695,29.8059576 32.6480289,29.909726 32.6480289,30.0129015 C32.6480289,30.1252678 32.5776695,30.2195489 32.4284955,30.2195489" id="Fill-19" fill="#000000"></path>
                <path d="M36.0195417,27.3137366 C36.0195417,26.8052713 35.580475,26.3913836 35.0885633,26.3913836 L35.0009915,26.3913836 C34.4828083,26.3913836 34.0528007,26.8052713 34.0528007,27.3137366 L34.0528007,27.8829805 L36.0195417,27.8829805 L36.0195417,27.3137366 Z M36.2306199,28.3137677 L34.0528007,28.3137677 L34.0528007,28.8830116 C34.0528007,29.3920698 34.4743531,29.8059576 34.9922344,29.8059576 L35.0801081,29.8059576 C35.4926013,29.8059576 35.8178247,29.5560239 35.9497863,29.1848295 C35.984211,29.0899555 36.0548724,29.0383678 36.1512013,29.0383678 C36.2656486,29.0383678 36.388551,29.1157494 36.388551,29.2450152 C36.388551,29.2622111 36.3800958,29.2883014 36.3710367,29.3226932 C36.187136,29.8664398 35.6771059,30.2195489 35.0801081,30.2195489 L34.9922344,30.2195489 C34.2454586,30.2195489 33.6221892,29.6248076 33.6221892,28.8830116 L33.6221892,27.3137366 C33.6221892,26.5808351 34.2454586,25.9686014 34.9834772,25.9686014 L35.0713509,25.9686014 C35.835641,25.9686014 36.4498512,26.5298403 36.4498512,27.3137366 L36.4498512,28.0985223 C36.4498512,28.2108887 36.3444632,28.3137677 36.2306199,28.3137677 L36.2306199,28.3137677 Z" id="Fill-20" fill="#000000"></path>
                <path d="M39.6462206,26.7189953 C39.5761632,26.7189953 39.514561,26.684307 39.4710771,26.6241213 C39.3300563,26.4260719 39.1543089,26.3913836 38.908504,26.3913836 C38.5479499,26.3913836 38.2583591,26.5464432 38.2583591,26.9606275 L38.2583591,30.004007 C38.2583591,30.1507652 38.153273,30.2195489 38.0391278,30.2195489 C37.9334377,30.2195489 37.8189905,30.1507652 37.8189905,30.004007 L37.8189905,26.1841432 C37.8189905,26.037978 37.9334377,25.9686014 38.0478849,25.9686014 C38.153273,25.9686014 38.2583591,26.037978 38.2583591,26.1758417 C38.3906227,26.0468724 38.6714563,25.9686014 38.908504,25.9686014 C39.2156091,25.9686014 39.6021327,26.0634754 39.8219681,26.3738912 C39.8566948,26.416881 39.8745111,26.4601672 39.8745111,26.503157 C39.8745111,26.6327193 39.7606678,26.7189953 39.6462206,26.7189953" id="Fill-21" fill="#000000"></path>
                <path d="M44.0094082,24.5893708 C43.6322456,24.5893708 43.3686244,24.8307065 43.3686244,25.2448908 L43.3686244,25.9946917 L43.9568651,25.9946917 C44.1063411,25.9946917 44.1851556,26.0984602 44.1851556,26.2019321 C44.1851556,26.3051075 44.1063411,26.416881 43.9568651,26.416881 L43.3686244,26.416881 L43.3686244,30.0129015 C43.3686244,30.1593632 43.2632364,30.2195489 43.1578483,30.2195489 C43.0524602,30.2195489 42.9383149,30.1593632 42.9383149,30.0129015 L42.9383149,26.416881 L42.6043343,26.416881 C42.4554623,26.416881 42.384801,26.3051075 42.384801,26.2019321 C42.384801,26.0984602 42.4554623,25.9946917 42.6043343,25.9946917 L42.9383149,25.9946917 L42.9383149,25.2448908 C42.9383149,24.5291851 43.3861388,24.1665886 44.0094082,24.1665886 C44.1591861,24.1665886 44.2383026,24.2703571 44.2383026,24.373829 C44.2383026,24.4770045 44.1591861,24.5893708 44.0094082,24.5893708" id="Fill-22" fill="#000000"></path>
                <path d="M47.2936512,27.3137366 C47.2936512,26.8052713 46.8720989,26.3913836 46.3542176,26.3913836 L46.2663439,26.3913836 C45.7481606,26.3913836 45.3266083,26.8052713 45.3266083,27.3137366 L45.3266083,28.8830116 C45.3266083,29.3920698 45.7481606,29.8059576 46.2663439,29.8059576 L46.3542176,29.8059576 C46.8720989,29.8059576 47.2936512,29.3920698 47.2936512,28.8830116 L47.2936512,27.3137366 Z M46.3542176,30.2195489 L46.2663439,30.2195489 C45.5198701,30.2195489 44.8962987,29.6248076 44.8962987,28.8830116 L44.8962987,27.3137366 C44.8962987,26.5553377 45.5198701,25.9686014 46.2663439,25.9686014 L46.3542176,25.9686014 C47.1003894,25.9686014 47.7245647,26.5553377 47.7245647,27.3137366 L47.7245647,28.8830116 C47.7245647,29.6248076 47.1003894,30.2195489 46.3542176,30.2195489 L46.3542176,30.2195489 Z" id="Fill-23" fill="#000000"></path>
                <path d="M51.0075999,26.7189953 C50.9378445,26.7189953 50.8762423,26.684307 50.8321544,26.6241213 C50.6917376,26.4260719 50.5162921,26.3913836 50.2701853,26.3913836 C49.9099331,26.3913836 49.6200404,26.5464432 49.6200404,26.9606275 L49.6200404,30.004007 C49.6200404,30.1507652 49.5149543,30.2195489 49.400809,30.2195489 C49.295119,30.2195489 49.1806717,30.1507652 49.1806717,30.004007 L49.1806717,26.1841432 C49.1806717,26.037978 49.295119,25.9686014 49.4092642,25.9686014 C49.5149543,25.9686014 49.6200404,26.037978 49.6200404,26.1758417 C49.752002,26.0468724 50.0331376,25.9686014 50.2701853,25.9686014 C50.5775923,25.9686014 50.964116,26.0634754 51.1833474,26.3738912 C51.218678,26.416881 51.2364944,26.4601672 51.2364944,26.503157 C51.2364944,26.6327193 51.1223491,26.7189953 51.0075999,26.7189953" id="Fill-24" fill="#000000"></path>
                <g id="Group-37" transform="translate(5.210526, 33.142857)" fill="#000000">
                    <path d="M4.25571988,6.21954887 C4.1503318,6.21954887 4.04464174,6.15936319 4.04464174,6.01290147 L4.04464174,1.00325859 L2.51666546,4.28767735 C2.47257761,4.39144577 2.37624867,4.44362647 2.27961776,4.44362647 C2.2005012,4.44362647 2.08635594,4.39144577 2.04226809,4.28767735 L0.514291813,1.00325859 L0.514291813,6.01290147 C0.514291813,6.15936319 0.408601754,6.21954887 0.303515639,6.21954887 C0.189370376,6.21954887 0.0836803175,6.15936319 0.0836803175,6.01290147 L0.0836803175,0.382426947 C0.0836803175,0.270357053 0.189370376,0.167181594 0.303515639,0.167181594 L0.461446784,0.167181594 C0.522747018,0.167181594 0.628437076,0.235965233 0.654708605,0.296447398 L2.27961776,3.83969426 L3.90422495,0.296447398 C3.93049647,0.235965233 4.03588456,0.167181594 4.09748677,0.167181594 L4.25571988,0.167181594 C4.36956317,0.167181594 4.47525323,0.270357053 4.47525323,0.382426947 L4.47525323,6.01290147 C4.47525323,6.15936319 4.36956317,6.21954887 4.25571988,6.21954887" id="Fill-25"></path>
                    <path d="M8.27647168,3.3137366 C8.27647168,2.80527134 7.85461736,2.39138358 7.33703805,2.39138358 L7.24916431,2.39138358 C6.73067908,2.39138358 6.30912673,2.80527134 6.30912673,3.3137366 L6.30912673,4.88301161 C6.30912673,5.39147687 6.73067908,5.80566111 7.24916431,5.80566111 L7.33703805,5.80566111 C7.85461736,5.80566111 8.27647168,5.39147687 8.27647168,4.88301161 L8.27647168,3.3137366 Z M7.33703805,6.21954887 L7.24916431,6.21954887 C6.50238855,6.21954887 5.87911918,5.62480758 5.87911918,4.88301161 L5.87911918,3.3137366 C5.87911918,2.55533768 6.50238855,1.96919435 7.24916431,1.96919435 L7.33703805,1.96919435 C8.08290789,1.96919435 8.70708317,2.55533768 8.70708317,3.3137366 L8.70708317,4.88301161 C8.70708317,5.62480758 8.08290789,6.21954887 7.33703805,6.21954887 L7.33703805,6.21954887 Z" id="Fill-26"></path>
                    <path d="M11.2702181,6.21954887 C10.559075,6.21954887 10.1816105,5.74517895 10.1816105,5.15014117 L10.1816105,0.382426947 C10.1816105,0.235965233 10.2954538,0.167181594 10.4008419,0.167181594 C10.5065319,0.167181594 10.6203752,0.235965233 10.6203752,0.382426947 L10.6203752,5.15014117 C10.6203752,5.52133564 10.8749373,5.80566111 11.2702181,5.80566111 C11.419392,5.80566111 11.4985086,5.90913305 11.4985086,6.01290147 C11.4985086,6.12467489 11.419392,6.21954887 11.2702181,6.21954887" id="Fill-27"></path>
                    <path d="M14.9234704,3.3137366 C14.9234704,2.80527134 14.4844037,2.39138358 13.99219,2.39138358 L13.9046183,2.39138358 C13.386435,2.39138358 12.9558235,2.80527134 12.9558235,3.3137366 L12.9558235,3.88298051 L14.9234704,3.88298051 L14.9234704,3.3137366 Z M15.1339446,4.3137677 L12.9558235,4.3137677 L12.9558235,4.88301161 C12.9558235,5.39147687 13.3776778,5.80566111 13.8958611,5.80566111 L13.9837348,5.80566111 C14.39653,5.80566111 14.7214514,5.55543098 14.8531111,5.18482947 C14.8881398,5.08995549 14.9588011,5.03836776 15.0548281,5.03836776 C15.1692753,5.03836776 15.2918758,5.11574935 15.2918758,5.24501516 C15.2918758,5.26221107 15.2837226,5.28830141 15.2746634,5.32269323 C15.0901588,5.8658468 14.5807327,6.21954887 13.9837348,6.21954887 L13.8958611,6.21954887 C13.1493873,6.21954887 12.525816,5.62480758 12.525816,4.88301161 L12.525816,3.3137366 C12.525816,2.58142803 13.1493873,1.96919435 13.8871039,1.96919435 L13.9746757,1.96919435 C14.7386638,1.96919435 15.353478,2.52924734 15.353478,3.3137366 L15.353478,4.09852235 C15.353478,4.21088872 15.2483919,4.3137677 15.1339446,4.3137677 L15.1339446,4.3137677 Z" id="Fill-28"></path>
                    <path d="M18.0839052,6.21954887 L17.9960314,6.21954887 C17.2495576,6.21954887 16.6259863,5.62480758 16.6259863,4.88301161 L16.6259863,3.3137366 C16.6259863,2.55533768 17.2495576,1.96919435 17.9960314,1.96919435 L18.0839052,1.96919435 C18.8306809,1.96919435 19.4545542,2.55533768 19.4545542,3.3137366 C19.4545542,3.46019832 19.3485622,3.52927844 19.2434761,3.52927844 C19.138088,3.52927844 19.0236408,3.46019832 19.0236408,3.3137366 C19.0236408,2.80527134 18.6020884,2.39138358 18.0839052,2.39138358 L17.9960314,2.39138358 C17.4781501,2.39138358 17.0565978,2.80527134 17.0565978,3.3137366 L17.0565978,4.88301161 C17.0565978,5.39147687 17.4781501,5.80566111 17.9960314,5.80566111 L18.0839052,5.80566111 C18.6020884,5.80566111 19.0236408,5.39147687 19.0236408,4.88301161 C19.0236408,4.73654989 19.138088,4.65887182 19.2434761,4.65887182 C19.3485622,4.65887182 19.4545542,4.73654989 19.4545542,4.88301161 C19.4545542,5.62480758 18.8306809,6.21954887 18.0839052,6.21954887" id="Fill-29"></path>
                    <path d="M23.2385603,6.21954887 C23.1331722,6.21954887 23.018725,6.15936319 23.018725,6.01290147 L23.018725,5.80566111 C22.8523386,6.05559477 22.4395435,6.21954887 22.0792913,6.21954887 L22.0001748,6.21954887 C21.254003,6.21954887 20.6301297,5.65030496 20.6301297,4.88301161 L20.6301297,2.18473618 C20.6301297,2.03797798 20.7442749,1.96919435 20.849663,1.96919435 C20.9550511,1.96919435 21.0694983,2.03797798 21.0694983,2.18473618 L21.0694983,4.89190605 C21.0694983,5.40896926 21.4732344,5.80566111 22.0001748,5.80566111 L22.0792913,5.80566111 C22.6059298,5.80566111 23.018725,5.38287892 23.018725,4.8658157 L23.018725,2.18473618 C23.018725,2.03797798 23.1331722,1.96919435 23.2385603,1.96919435 C23.3436464,1.96919435 23.4580937,2.03797798 23.4580937,2.18473618 L23.4580937,6.01290147 C23.4580937,6.15936319 23.3436464,6.21954887 23.2385603,6.21954887" id="Fill-30"></path>
                    <path d="M26.2676374,6.21954887 C25.5561923,6.21954887 25.1787278,5.74517895 25.1787278,5.15014117 L25.1787278,0.382426947 C25.1787278,0.235965233 25.2928731,0.167181594 25.3979592,0.167181594 C25.5033473,0.167181594 25.6177945,0.235965233 25.6177945,0.382426947 L25.6177945,5.15014117 C25.6177945,5.52133564 25.8720546,5.80566111 26.2676374,5.80566111 C26.4168113,5.80566111 26.4956259,5.90913305 26.4956259,6.01290147 C26.4956259,6.12467489 26.4168113,6.21954887 26.2676374,6.21954887" id="Fill-31"></path>
                    <path d="M29.7623547,3.96925654 C29.2532305,4.20199429 27.8037669,4.1071203 27.8037669,4.94319729 L27.8037669,4.98678003 C27.8037669,5.50384325 28.1902905,5.80566111 28.7432005,5.80566111 L28.8316782,5.80566111 C29.3495595,5.80566111 29.7623547,5.39147687 29.7623547,4.88301161 L29.7623547,3.96925654 Z M30.5351,6.21954887 L30.4913141,6.21954887 C30.1398191,6.15936319 29.9640717,6.00400704 29.8674408,5.77067633 C29.6128787,6.05559477 29.2441714,6.21954887 28.8316782,6.21954887 L28.7432005,6.21954887 C28.0057859,6.21954887 27.3731554,5.78816872 27.3731554,4.97818208 L27.3731554,4.93459934 C27.3731554,3.77950857 28.7610168,3.85689017 29.5074906,3.60666003 C29.7448403,3.52927844 29.7623547,3.47769071 29.7623547,3.27964126 C29.7623547,2.77947747 29.3670738,2.39998153 28.8751621,2.39998153 L28.8138619,2.39998153 C28.4626689,2.39998153 28.1199311,2.52924734 27.9444856,2.91704475 C27.9000958,3.00332078 27.8387956,3.04631056 27.7512238,3.04631056 C27.6367766,3.04631056 27.5138742,2.96062749 27.5138742,2.83076872 C27.5138742,2.80527134 27.5229333,2.77058304 27.5401457,2.73589474 C27.7947077,2.1497514 28.3482217,1.96919435 28.8138619,1.96919435 L28.8751621,1.96919435 C29.5690928,1.96919435 30.1929661,2.52924734 30.1929661,3.24495296 L30.1929661,4.97818208 C30.1929661,5.64170701 30.2802359,5.75407338 30.5613715,5.79676668 C30.6842739,5.81425907 30.7461781,5.88304271 30.7461781,6.00400704 C30.7461781,6.13327284 30.6667596,6.21954887 30.5351,6.21954887 L30.5351,6.21954887 Z" id="Fill-32"></path>
                    <path d="M33.7399245,2.71899531 C33.6695651,2.71899531 33.6082649,2.68430701 33.564177,2.62412132 C33.4231563,2.42547892 33.2480128,2.39138358 33.0022079,2.39138358 C32.6419558,2.39138358 32.3520631,2.54644325 32.3520631,2.96062749 L32.3520631,6.00400704 C32.3520631,6.15076523 32.246675,6.21954887 32.1328317,6.21954887 C32.0271416,6.21954887 31.9129964,6.15076523 31.9129964,6.00400704 L31.9129964,2.18473618 C31.9129964,2.03797798 32.0271416,1.96919435 32.1409849,1.96919435 C32.246675,1.96919435 32.3520631,2.03797798 32.3520631,2.17584174 C32.4837227,2.04627946 32.7651602,1.96919435 33.0022079,1.96919435 C33.309313,1.96919435 33.6964406,2.06347537 33.915672,2.37389119 C33.9503987,2.41688096 33.968215,2.46016722 33.968215,2.50315699 C33.968215,2.63271928 33.8537678,2.71899531 33.7399245,2.71899531" id="Fill-33"></path>
                    <path d="M40.039354,6.17626262 L37.5453706,6.17626262 C37.4309233,6.17626262 37.3258372,6.07308716 37.3258372,5.96072078 L37.3258372,0.382426947 C37.3258372,0.235965233 37.4309233,0.167181594 37.5453706,0.167181594 C37.6592139,0.167181594 37.7646019,0.235965233 37.7646019,0.382426947 L37.7646019,5.75407338 L40.039354,5.75407338 C40.1888299,5.75407338 40.2588873,5.85695236 40.2588873,5.96072078 C40.2588873,6.0644892 40.1888299,6.17626262 40.039354,6.17626262" id="Fill-34"></path>
                    <path d="M41.6105122,6.21954887 C41.5051241,6.21954887 41.3909788,6.15936319 41.3909788,6.01290147 L41.3909788,2.18473618 C41.3909788,2.03797798 41.5051241,1.96919435 41.6105122,1.96919435 C41.7155983,1.96919435 41.8297436,2.03797798 41.8297436,2.18473618 L41.8297436,6.01290147 C41.8297436,6.15936319 41.7155983,6.21954887 41.6105122,6.21954887 Z M41.6105122,0.882294256 C41.5051241,0.882294256 41.3909788,0.80461618 41.3909788,0.667048902 L41.3909788,0.382426947 C41.3909788,0.235965233 41.5051241,0.167181594 41.6105122,0.167181594 C41.7155983,0.167181594 41.8297436,0.235965233 41.8297436,0.382426947 L41.8297436,0.667048902 C41.8297436,0.80461618 41.7155983,0.882294256 41.6105122,0.882294256 L41.6105122,0.882294256 Z" id="Fill-35"></path>
                    <path d="M44.7362202,0.589370827 C44.3587557,0.589370827 44.0954364,0.830706526 44.0954364,1.24489077 L44.0954364,1.99469173 L44.6836771,1.99469173 C44.8328511,1.99469173 44.9119676,2.09786719 44.9119676,2.20133913 C44.9119676,2.30510755 44.8328511,2.41688096 44.6836771,2.41688096 L44.0954364,2.41688096 L44.0954364,6.01290147 C44.0954364,6.15936319 43.9900484,6.21954887 43.8843583,6.21954887 C43.7789702,6.21954887 43.6648249,6.15936319 43.6648249,6.01290147 L43.6648249,2.41688096 L43.3311463,2.41688096 C43.1819724,2.41688096 43.111311,2.30510755 43.111311,2.20133913 C43.111311,2.09786719 43.1819724,1.99469173 43.3311463,1.99469173 L43.6648249,1.99469173 L43.6648249,1.24489077 C43.6648249,0.52859218 44.1126488,0.167181594 44.7362202,0.167181594 C44.8853941,0.167181594 44.9648127,0.270357053 44.9648127,0.373828992 C44.9648127,0.477004451 44.8853941,0.589370827 44.7362202,0.589370827" id="Fill-36"></path>
                    <path d="M48.1962107,3.3137366 C48.1962107,2.80527134 47.757446,2.39138358 47.2649303,2.39138358 L47.1773585,2.39138358 C46.6588733,2.39138358 46.2291677,2.80527134 46.2291677,3.3137366 L46.2291677,3.88298051 L48.1962107,3.88298051 L48.1962107,3.3137366 Z M48.4072889,4.3137677 L46.2291677,4.3137677 L46.2291677,4.88301161 C46.2291677,5.39147687 46.6501161,5.80566111 47.1686014,5.80566111 L47.2561731,5.80566111 C47.6692703,5.80566111 47.9941917,5.55543098 48.1261533,5.18482947 C48.161182,5.08995549 48.2312394,5.03836776 48.3278703,5.03836776 C48.4420156,5.03836776 48.564918,5.11574935 48.564918,5.24501516 C48.564918,5.26221107 48.5561609,5.28830141 48.5471017,5.32269323 C48.363503,5.8658468 47.8537749,6.21954887 47.2561731,6.21954887 L47.1686014,6.21954887 C46.4218256,6.21954887 45.7988582,5.62480758 45.7988582,4.88301161 L45.7988582,3.3137366 C45.7988582,2.58142803 46.4218256,1.96919435 47.1598442,1.96919435 L47.247416,1.96919435 C48.0114041,1.96919435 48.6265202,2.52924734 48.6265202,3.3137366 L48.6265202,4.09852235 C48.6265202,4.21088872 48.5214341,4.3137677 48.4072889,4.3137677 L48.4072889,4.3137677 Z" id="Fill-37"></path>
                    <path d="M54.0215448,6.21954887 L53.933973,6.21954887 C53.0558396,6.21954887 52.317821,5.65030496 52.317821,4.65027386 C52.317821,4.50381215 52.4226052,4.43502851 52.5373544,4.43502851 C52.6511977,4.43502851 52.7574917,4.50381215 52.7574917,4.65027386 C52.7574917,5.37457744 53.2753729,5.79676668 53.933973,5.79676668 L54.0215448,5.79676668 C54.7067183,5.79676668 55.2339607,5.40066779 55.2339607,4.73654989 C55.2339607,2.99472283 52.4144519,3.50378105 52.4144519,1.64158262 C52.4144519,0.744430496 53.1171398,0.167181594 53.933973,0.167181594 L54.0215448,0.167181594 C54.8646495,0.167181594 55.5582782,0.649556511 55.5582782,1.50312589 C55.5582782,1.64158262 55.4528901,1.71036626 55.348106,1.71036626 C55.2427179,1.71036626 55.1288746,1.64158262 55.1288746,1.49423146 C55.1288746,0.908384602 54.6541753,0.597968782 54.0215448,0.597968782 L53.933973,0.597968782 C53.3457323,0.597968782 52.8447615,0.994660632 52.8447615,1.65018057 C52.8447615,3.1070892 55.6724235,2.72788974 55.6724235,4.73654989 C55.6724235,5.64170701 54.9525232,6.21954887 54.0215448,6.21954887" id="Fill-38"></path>
                    <path d="M58.2271032,6.21954887 L58.1398334,6.21954887 C57.3924537,6.21954887 56.7694863,5.62480758 56.7694863,4.88301161 L56.7694863,3.3137366 C56.7694863,2.55533768 57.3924537,1.96919435 58.1398334,1.96919435 L58.2271032,1.96919435 C58.9741809,1.96919435 59.5974503,2.55533768 59.5974503,3.3137366 C59.5974503,3.46019832 59.4917602,3.52927844 59.3869761,3.52927844 C59.281286,3.52927844 59.1668388,3.46019832 59.1668388,3.3137366 C59.1668388,2.80527134 58.7461923,2.39138358 58.2271032,2.39138358 L58.1398334,2.39138358 C57.6219521,2.39138358 57.2000978,2.80527134 57.2000978,3.3137366 L57.2000978,4.88301161 C57.2000978,5.39147687 57.6219521,5.80566111 58.1398334,5.80566111 L58.2271032,5.80566111 C58.7461923,5.80566111 59.1668388,5.39147687 59.1668388,4.88301161 C59.1668388,4.73654989 59.281286,4.65887182 59.3869761,4.65887182 C59.4917602,4.65887182 59.5974503,4.73654989 59.5974503,4.88301161 C59.5974503,5.62480758 58.9741809,6.21954887 58.2271032,6.21954887" id="Fill-39"></path>
                    <path d="M61.194578,6.21954887 C61.0894919,6.21954887 60.9753467,6.15936319 60.9753467,6.01290147 L60.9753467,2.18473618 C60.9753467,2.03797798 61.0894919,1.96919435 61.194578,1.96919435 C61.300872,1.96919435 61.4147153,2.03797798 61.4147153,2.18473618 L61.4147153,6.01290147 C61.4147153,6.15936319 61.300872,6.21954887 61.194578,6.21954887 Z M61.194578,0.882294256 C61.0894919,0.882294256 60.9753467,0.80461618 60.9753467,0.667048902 L60.9753467,0.382426947 C60.9753467,0.235965233 61.0894919,0.167181594 61.194578,0.167181594 C61.300872,0.167181594 61.4147153,0.235965233 61.4147153,0.382426947 L61.4147153,0.667048902 C61.4147153,0.80461618 61.300872,0.882294256 61.194578,0.882294256 L61.194578,0.882294256 Z" id="Fill-40"></path>
                    <path d="M65.2521704,3.3137366 C65.2521704,2.80527134 64.8124997,2.39138358 64.320588,2.39138358 L64.2333182,2.39138358 C63.715135,2.39138358 63.2848254,2.80527134 63.2848254,3.3137366 L63.2848254,3.88298051 L65.2521704,3.88298051 L65.2521704,3.3137366 Z M65.4626446,4.3137677 L63.2848254,4.3137677 L63.2848254,4.88301161 C63.2848254,5.39147687 63.7063778,5.80566111 64.2242591,5.80566111 L64.3115289,5.80566111 C64.724626,5.80566111 65.0498494,5.55543098 65.181811,5.18482947 C65.2165377,5.08995549 65.2871991,5.03836776 65.383226,5.03836776 C65.4973713,5.03836776 65.6205757,5.11574935 65.6205757,5.24501516 C65.6205757,5.26221107 65.6124225,5.28830141 65.6033633,5.32269323 C65.4188587,5.8658468 64.9091306,6.21954887 64.3115289,6.21954887 L64.2242591,6.21954887 C63.4780873,6.21954887 62.8542139,5.62480758 62.8542139,4.88301161 L62.8542139,3.3137366 C62.8542139,2.58142803 63.4780873,1.96919435 64.2151999,1.96919435 L64.3033756,1.96919435 C65.0676657,1.96919435 65.6821779,2.52924734 65.6821779,3.3137366 L65.6821779,4.09852235 C65.6821779,4.21088872 65.5767898,4.3137677 65.4626446,4.3137677 L65.4626446,4.3137677 Z" id="Fill-41"></path>
                    <path d="M69.5718741,6.21954887 C69.4667879,6.21954887 69.3526427,6.15936319 69.3526427,6.01290147 L69.3526427,3.30513865 C69.3526427,2.78807543 68.9489066,2.39138358 68.4216642,2.39138358 L68.3425477,2.39138358 C67.8156073,2.39138358 67.4028121,2.81416577 67.4028121,3.33122899 L67.4028121,6.01290147 C67.4028121,6.15936319 67.2886668,6.21954887 67.1832787,6.21954887 C67.0775887,6.21954887 66.9634434,6.15936319 66.9634434,6.01290147 L66.9634434,2.18473618 C66.9634434,2.03797798 67.0775887,1.96919435 67.1832787,1.96919435 C67.2886668,1.96919435 67.4028121,2.03797798 67.4028121,2.18473618 L67.4028121,2.39138358 C67.5695004,2.14115344 67.9825975,1.96919435 68.3425477,1.96919435 L68.4216642,1.96919435 C69.1678361,1.96919435 69.7920113,2.55533768 69.7920113,3.3137366 L69.7920113,6.01290147 C69.7920113,6.15936319 69.6772621,6.21954887 69.5718741,6.21954887" id="Fill-42"></path>
                    <path d="M72.5831348,6.21954887 L72.4952611,6.21954887 C71.7484853,6.21954887 71.1255179,5.62480758 71.1255179,4.88301161 L71.1255179,3.3137366 C71.1255179,2.55533768 71.7484853,1.96919435 72.4952611,1.96919435 L72.5831348,1.96919435 C73.3302125,1.96919435 73.9531799,2.55533768 73.9531799,3.3137366 C73.9531799,3.46019832 73.8480938,3.52927844 73.7427057,3.52927844 C73.6376196,3.52927844 73.5228704,3.46019832 73.5228704,3.3137366 C73.5228704,2.80527134 73.10162,2.39138358 72.5831348,2.39138358 L72.4952611,2.39138358 C71.9773798,2.39138358 71.5561294,2.80527134 71.5561294,3.3137366 L71.5561294,4.88301161 C71.5561294,5.39147687 71.9773798,5.80566111 72.4952611,5.80566111 L72.5831348,5.80566111 C73.10162,5.80566111 73.5228704,5.39147687 73.5228704,4.88301161 C73.5228704,4.73654989 73.6376196,4.65887182 73.7427057,4.65887182 C73.8480938,4.65887182 73.9531799,4.73654989 73.9531799,4.88301161 C73.9531799,5.62480758 73.3302125,6.21954887 72.5831348,6.21954887" id="Fill-43"></path>
                    <path d="M77.5620425,3.3137366 C77.5620425,2.80527134 77.1229758,2.39138358 76.6307621,2.39138358 L76.5425864,2.39138358 C76.0247051,2.39138358 75.5943956,2.80527134 75.5943956,3.3137366 L75.5943956,3.88298051 L77.5620425,3.88298051 L77.5620425,3.3137366 Z M77.7734226,4.3137677 L75.5943956,4.3137677 L75.5943956,4.88301161 C75.5943956,5.39147687 76.0159479,5.80566111 76.5338292,5.80566111 L76.6223069,5.80566111 C77.0348001,5.80566111 77.3597215,5.55543098 77.4913811,5.18482947 C77.5267118,5.08995549 77.5967692,5.03836776 77.6937021,5.03836776 C77.8078474,5.03836776 77.9307498,5.11574935 77.9307498,5.24501516 C77.9307498,5.26221107 77.9219926,5.28830141 77.9129335,5.32269323 C77.7287308,5.8658468 77.2196067,6.21954887 76.6223069,6.21954887 L76.5338292,6.21954887 C75.7876574,6.21954887 75.16469,5.62480758 75.16469,4.88301161 L75.16469,3.3137366 C75.16469,2.58142803 75.7876574,1.96919435 76.525676,1.96919435 L76.6135497,1.96919435 C77.3769339,1.96919435 77.992352,2.52924734 77.992352,3.3137366 L77.992352,4.09852235 C77.992352,4.21088872 77.8872659,4.3137677 77.7734226,4.3137677 L77.7734226,4.3137677 Z" id="Fill-44"></path>
                    <path d="M80.5820604,6.21954887 L80.4241293,6.21954887 C79.8793725,6.21954887 79.299587,5.89193714 79.0365698,5.37457744 C79.0278126,5.33988914 79.0099963,5.3057938 79.0099963,5.27970346 C79.0099963,5.15014117 79.1328987,5.06386514 79.247044,5.06386514 C79.3439769,5.06386514 79.4052771,5.1071514 79.4406078,5.19342743 C79.6163552,5.56402893 80.0472687,5.80566111 80.4241293,5.80566111 L80.5820604,5.80566111 C81.1796622,5.80566111 81.574943,5.42616517 81.574943,5.00338298 C81.574943,3.60666003 79.1945009,4.59868614 79.1945009,3.00332078 L79.1945009,2.96062749 C79.1945009,2.38278562 79.7742864,1.96919435 80.5295173,1.96919435 L80.5473337,1.96919435 C81.2853522,1.96919435 81.7857192,2.33060493 81.7857192,2.52924734 C81.7857192,2.64161371 81.6890883,2.74449269 81.574943,2.74449269 C81.5223999,2.74449269 81.4692529,2.72788974 81.4251651,2.68430701 C81.1884194,2.47765961 80.9341593,2.39138358 80.5473337,2.39138358 L80.5038498,2.39138358 C80.1520528,2.39138358 79.6251124,2.56393564 79.6251124,2.96863248 L79.6251124,3.00332078 C79.6251124,4.09852235 82.0137077,3.25355092 82.0137077,5.00338298 C82.0137077,5.8658468 81.1968746,6.21954887 80.5820604,6.21954887" id="Fill-45"></path>
                </g>
            </g>
        </g>
    </g>
</svg>