<svg width="88" height="40" xmlns="http://www.w3.org/2000/svg"><g fill="none" fill-rule="evenodd"><path d="M8.198 15.113H5.804a.841.841 0 01-.845-.83V5.98c0-.454.382-.829.845-.829h2.308c1.673 0 2.898 1.132 2.898 2.73 0 .997-.418 1.51-.956 2.067.598.514 1.162 1.206 1.162 2.2v.117c0 1.627-1.36 2.848-3.018 2.848m-.071-8.361H6.584v2.433h1.543c.673 0 1.15-.556 1.15-1.304 0-.676-.478-1.13-1.15-1.13m1.355 5.396c0-.8-.577-1.361-1.27-1.361H6.585v2.725h1.629c.741 0 1.269-.557 1.269-1.246v-.118M14.12 15.234c-.434 0-.867-.278-.867-.85v-8.47c0-.572.433-.85.866-.85s.866.278.866.85v8.47c0 .572-.433.85-.866.85M20.563 15.234h-.135c-1.642 0-2.986-1.309-2.986-2.888V7.895c0-1.628 1.344-2.831 2.986-2.831h.135c1.658 0 2.987 1.203 2.987 2.83v4.452c0 1.58-1.262 2.888-2.987 2.888m1.255-7.382c0-.689-.553-1.187-1.255-1.187h-.135c-.701 0-1.254.514-1.254 1.187v4.494c0 .727.536 1.287 1.254 1.287h.135c.76 0 1.255-.565 1.255-1.272V7.852M30.358 15.113h-4.243c-.521 0-.916-.302-.916-.904 0-.161.066-.355.156-.522l3.853-6.935H26.28c-.582 0-.867-.383-.867-.807 0-.412.285-.794.867-.794h4.062c.601 0 .896.396.896.868 0 .175-.057.383-.134.543l-3.674 6.95h2.942c.567 0 .85.365.85.792 0 .444-.283.809-.864.809M38.53 15.113h-4.376c-.462 0-.865-.354-.865-.809V5.96c0-.455.403-.808.865-.808h4.377c.581 0 .865.382.865.794 0 .424-.284.807-.865.807h-3.51v2.433h2.33c.581 0 .866.382.866.807 0 .41-.285.794-.866.794h-2.33v2.725h3.51c.581 0 .865.382.865.808 0 .41-.284.794-.865.794M46.962 15.277h-.079c-.512 0-.76-.296-.973-.733l-2.88-5.56v5.443c0 .571-.433.85-.865.85-.434 0-.867-.279-.867-.85v-8.47c0-.456.372-.893.867-.893h.106c.553 0 .763.31 1.006.773l2.83 5.237V5.9c0-.557.431-.835.864-.835s.867.278.867.835v8.46c0 .532-.413.918-.876.918M54.448 6.752h-1.194v7.674c0 .572-.433.85-.866.85s-.867-.278-.867-.85V6.752h-1.194c-.568 0-.867-.383-.867-.807 0-.412.299-.794.867-.794h4.121c.583 0 .867.382.867.794 0 .424-.284.807-.867.807M61.574 10.702l1.569 3.358a.99.99 0 01.104.38c0 .485-.463.837-.912.837-.298 0-.582-.147-.746-.499l-1.807-3.842h-.896v3.49c0 .572-.433.85-.866.85s-.866-.278-.866-.934V5.874c0-.37.403-.723.866-.723h2.344c1.659 0 2.988 1.22 2.988 2.847v.048a2.815 2.815 0 01-1.778 2.656m.045-2.704c0-.688-.508-1.246-1.21-1.246h-1.523v2.583h1.569c.671 0 1.164-.614 1.164-1.29v-.047M68.684 15.234h-.135c-1.643 0-2.987-1.277-2.987-2.89v-6.43c0-.572.433-.85.867-.85.432 0 .865.278.865.85v6.473c0 .674.568 1.246 1.255 1.246h.135c.701 0 1.268-.557 1.268-1.246V5.914c0-.572.434-.85.867-.85s.866.278.866.85v6.43c0 1.613-1.343 2.89-3 2.89M81.403 15.277c-.433 0-.866-.279-.866-.85V8.984l-1.355 2.873c-.21.485-.598.572-.881.572-.284 0-.673-.087-.882-.572l-1.355-2.873v5.443c0 .571-.434.85-.867.85s-.866-.279-.866-.85V5.914c0-.455.403-.85.866-.85h.224c.553 0 .762.351.94.732l1.94 4.02 1.937-4.02c.165-.381.388-.732.941-.732h.224c.463 0 .867.395.867.85v8.513c0 .571-.433.85-.867.85M11.397 1.29c0 .35-.287.632-.643.632H1.265a.638.638 0 01-.643-.632c0-.35.288-.632.643-.632h9.489c.356 0 .643.283.643.632M11.397 19.268a.638.638 0 01-.643.631H1.265a.638.638 0 01-.643-.631c0-.35.288-.633.643-.633h9.489c.356 0 .643.283.643.633" fill="#5A2D87"/><path d="M7.246 24.642H6.113v5.37c0 .147-.105.208-.22.208-.105 0-.21-.06-.21-.207v-5.371H4.55c-.15 0-.22-.104-.22-.208 0-.112.07-.215.22-.215h2.696c.15 0 .22.103.22.215 0 .104-.07.208-.22.208M10.934 30.22c-.105 0-.22-.06-.22-.207v-2.708c0-.517-.403-.914-.93-.914h-.08a.936.936 0 00-.94.94v2.682c0 .146-.113.207-.218.207-.106 0-.22-.06-.22-.207v-5.63c0-.147.114-.216.22-.216.105 0 .219.069.219.215v2.01c.166-.25.58-.423.94-.423h.078c.747 0 1.371.586 1.371 1.345v2.699c0 .146-.114.207-.22.207M14.868 27.314c0-.509-.44-.923-.931-.923h-.088c-.518 0-.948.414-.948.923v.569h1.967v-.57zm.21 1h-2.177v.569c0 .51.421.923.939.923h.088c.413 0 .738-.25.87-.621.035-.095.105-.147.202-.147.113 0 .237.078.237.207 0 .017-.01.043-.018.078-.184.543-.693.897-1.29.897h-.089c-.747 0-1.37-.595-1.37-1.337v-1.57c0-.732.623-1.344 1.361-1.344h.088c.764 0 1.379.56 1.379 1.345v.785a.226.226 0 01-.22.215zM20.347 30.22h-.088c-.887 0-1.616-.69-1.616-1.57v-2.906c0-.879.729-1.577 1.616-1.577h.088c.816 0 1.492.586 1.59 1.353v.026c0 .13-.098.216-.212.216a.232.232 0 01-.22-.181c-.07-.552-.561-.992-1.158-.992h-.088c-.66 0-1.186.51-1.186 1.155v2.906c0 .647.527 1.156 1.186 1.156h.088c.597 0 1.089-.44 1.159-.992a.232.232 0 01.22-.181c.113 0 .21.086.21.216v.025c-.097.777-.773 1.346-1.59 1.346M25.272 27.314c0-.509-.439-.923-.93-.923h-.088c-.518 0-.949.414-.949.923v.569h1.967v-.57zm.211 1h-2.178v.569c0 .51.422.923.94.923h.088c.413 0 .738-.25.87-.621.035-.095.105-.147.201-.147.114 0 .237.078.237.207 0 .017-.008.043-.017.078-.185.543-.694.897-1.291.897h-.088c-.747 0-1.37-.595-1.37-1.337v-1.57c0-.732.623-1.344 1.361-1.344h.088c.764 0 1.379.56 1.379 1.345v.785a.226.226 0 01-.22.215zM29.505 30.22c-.106 0-.22-.06-.22-.207v-2.708c0-.517-.403-.914-.93-.914h-.08a.936.936 0 00-.94.94v2.682c0 .146-.113.207-.219.207-.105 0-.22-.06-.22-.207v-3.829c0-.146.115-.215.22-.215.106 0 .22.069.22.215v.207c.166-.25.58-.422.94-.422h.079c.746 0 1.37.586 1.37 1.345v2.699c0 .146-.115.207-.22.207M32.428 30.22c-.667 0-1.089-.414-1.089-1.07v-2.733h-.316c-.15 0-.22-.103-.22-.206 0-.113.07-.216.22-.216h.316v-1.613c0-.146.106-.215.22-.215.105 0 .21.069.21.215v1.613h.607c.15 0 .228.103.228.216 0 .103-.079.206-.228.206h-.606v2.734c0 .37.245.655.658.655.15 0 .22.104.22.207 0 .112-.07.207-.22.207M36.02 27.314c0-.509-.44-.923-.931-.923H35c-.518 0-.948.414-.948.923v.569h1.967v-.57zm.21 1h-2.177v.569c0 .51.421.923.94.923h.087c.413 0 .738-.25.87-.621.034-.095.105-.147.201-.147.115 0 .238.078.238.207 0 .017-.009.043-.018.078-.184.543-.694.897-1.29.897h-.089c-.747 0-1.37-.595-1.37-1.337v-1.57c0-.732.623-1.344 1.361-1.344h.088c.765 0 1.379.56 1.379 1.345v.785a.227.227 0 01-.22.215zM39.646 26.719a.214.214 0 01-.175-.095c-.14-.198-.317-.233-.562-.233-.361 0-.65.155-.65.57v3.043c0 .147-.106.216-.22.216-.106 0-.22-.07-.22-.216v-3.82c0-.146.114-.215.229-.215.105 0 .21.069.21.207.133-.13.413-.207.65-.207.308 0 .694.094.914.405a.207.207 0 01.053.13c0 .129-.114.215-.229.215M44.01 24.59c-.378 0-.641.24-.641.655v.75h.588c.15 0 .228.103.228.207a.217.217 0 01-.228.215h-.588v3.596c0 .146-.106.207-.211.207-.106 0-.22-.06-.22-.207v-3.596h-.334a.21.21 0 01-.22-.215c0-.104.071-.207.22-.207h.334v-.75c0-.716.448-1.078 1.071-1.078.15 0 .23.103.23.207 0 .103-.08.215-.23.215M47.294 27.314a.932.932 0 00-.94-.923h-.088a.932.932 0 00-.94.923v1.569c0 .51.422.923.94.923h.088c.518 0 .94-.414.94-.923v-1.57zm-.94 2.906h-.088c-.746 0-1.37-.595-1.37-1.337v-1.57c0-.758.624-1.344 1.37-1.344h.088c.746 0 1.37.586 1.37 1.345v1.569c0 .742-.624 1.337-1.37 1.337zM51.008 26.719a.216.216 0 01-.176-.095c-.14-.198-.316-.233-.562-.233-.36 0-.65.155-.65.57v3.043c0 .147-.105.216-.22.216-.105 0-.22-.07-.22-.216v-3.82c0-.146.115-.215.23-.215.105 0 .21.069.21.207.132-.13.413-.207.65-.207.308 0 .694.094.913.405a.204.204 0 01.053.13c0 .129-.114.215-.228.215" fill="#000"/><g fill="#000"><path d="M9.466 39.362c-.105 0-.21-.06-.21-.206v-5.01l-1.529 3.285a.254.254 0 01-.237.155.272.272 0 01-.237-.155l-1.528-3.285v5.01c0 .146-.106.206-.211.206-.114 0-.22-.06-.22-.206v-5.63c0-.113.106-.216.22-.216h.158c.061 0 .167.069.193.13l1.625 3.543 1.625-3.544c.026-.06.131-.129.193-.129h.158c.114 0 .22.103.22.215v5.63c0 .147-.106.207-.22.207M13.487 36.457a.932.932 0 00-.94-.923h-.087a.932.932 0 00-.94.923v1.569c0 .508.421.923.94.923h.088c.517 0 .939-.415.939-.923v-1.57zm-.94 2.905h-.087c-.747 0-1.37-.594-1.37-1.336v-1.57c0-.758.623-1.344 1.37-1.344h.088c.745 0 1.37.586 1.37 1.345v1.569c0 .742-.625 1.336-1.37 1.336zM16.48 39.362c-.71 0-1.088-.474-1.088-1.069v-4.768c0-.146.114-.215.22-.215.105 0 .219.069.219.215v4.768c0 .371.254.656.65.656.149 0 .228.103.228.207 0 .112-.08.206-.228.206M20.134 36.457c0-.509-.44-.923-.931-.923h-.088c-.518 0-.949.414-.949.923v.569h1.968v-.57zm.21 1h-2.178v.569c0 .508.422.923.94.923h.088c.413 0 .738-.25.87-.621.035-.095.105-.147.201-.147.115 0 .237.078.237.207 0 .017-.008.043-.017.078-.184.543-.694.896-1.29.896h-.089c-.746 0-1.37-.594-1.37-1.336v-1.57c0-.732.624-1.344 1.362-1.344h.087c.764 0 1.379.56 1.379 1.345v.784a.227.227 0 01-.22.216zM23.294 39.362h-.087c-.747 0-1.37-.594-1.37-1.336v-1.57c0-.758.623-1.344 1.37-1.344h.087c.747 0 1.371.586 1.371 1.345a.203.203 0 01-.211.215c-.105 0-.22-.069-.22-.215a.932.932 0 00-.94-.923h-.087a.932.932 0 00-.94.923v1.569c0 .508.422.923.94.923h.087c.519 0 .94-.415.94-.923 0-.147.115-.224.22-.224s.211.077.211.224c0 .742-.624 1.336-1.37 1.336M28.45 39.362c-.106 0-.22-.06-.22-.206v-.207c-.167.25-.58.413-.94.413h-.08c-.745 0-1.37-.569-1.37-1.336v-2.698c0-.147.115-.216.22-.216.106 0 .22.069.22.216v2.707c0 .517.404.914.93.914h.08c.526 0 .94-.423.94-.94v-2.681c0-.147.114-.216.22-.216.104 0 .219.069.219.216v3.828c0 .146-.115.206-.22.206M31.478 39.362c-.711 0-1.089-.474-1.089-1.069v-4.768c0-.146.114-.215.22-.215.105 0 .22.069.22.215v4.768c0 .371.254.656.65.656.148 0 .227.103.227.207 0 .112-.079.206-.228.206M34.973 37.112c-.51.233-1.959.138-1.959.974v.044c0 .517.387.819.94.819h.088c.518 0 .93-.415.93-.923v-.914zm.773 2.25h-.044c-.352-.06-.527-.215-.624-.448a1.37 1.37 0 01-1.036.448h-.088c-.738 0-1.37-.431-1.37-1.241v-.044c0-1.155 1.388-1.077 2.134-1.327.237-.078.255-.13.255-.328 0-.5-.395-.88-.887-.88h-.062c-.35 0-.694.13-.869.518-.044.086-.106.13-.193.13-.115 0-.238-.087-.238-.216 0-.026.01-.06.027-.095.254-.586.808-.767 1.273-.767h.062c.694 0 1.317.56 1.317 1.276v1.733c0 .664.088.776.369.819.123.017.185.086.185.207 0 .13-.08.215-.211.215zM38.95 35.862a.215.215 0 01-.175-.095c-.141-.199-.316-.233-.562-.233-.36 0-.65.155-.65.57v3.043c0 .147-.106.215-.22.215-.105 0-.22-.068-.22-.215v-3.82c0-.146.115-.215.229-.215.105 0 .21.069.21.207.132-.13.414-.207.65-.207.308 0 .695.094.914.405a.207.207 0 01.053.129c0 .13-.115.216-.229.216M45.25 39.32h-2.494a.227.227 0 01-.22-.216v-5.579c0-.146.105-.215.22-.215.114 0 .22.069.22.215v5.372h2.274c.15 0 .22.103.22.207a.21.21 0 01-.22.215M46.821 39.362c-.105 0-.22-.06-.22-.206v-3.828c0-.147.115-.216.22-.216s.22.069.22.216v3.828c0 .146-.115.206-.22.206zm0-5.337a.215.215 0 01-.22-.215v-.285c0-.146.115-.215.22-.215s.22.069.22.215v.285a.215.215 0 01-.22.215zM49.947 33.732c-.378 0-.641.242-.641.656v.75h.588c.15 0 .228.103.228.206 0 .104-.079.216-.228.216h-.588v3.596c0 .146-.105.206-.211.206s-.22-.06-.22-.206V35.56h-.333a.21.21 0 01-.22-.216c0-.103.07-.206.22-.206h.333v-.75c0-.717.448-1.078 1.072-1.078.149 0 .228.103.228.207 0 .103-.08.215-.228.215M53.407 36.457a.942.942 0 00-.932-.923h-.087c-.519 0-.948.414-.948.923v.569h1.967v-.57zm.21 1H51.44v.569c0 .508.42.923.94.923h.087c.413 0 .738-.25.87-.621.035-.095.105-.147.201-.147.115 0 .237.078.237.207 0 .017-.008.043-.017.078-.184.543-.694.896-1.291.896h-.088c-.747 0-1.37-.594-1.37-1.336v-1.57c0-.732.623-1.344 1.361-1.344h.088c.764 0 1.379.56 1.379 1.345v.784a.226.226 0 01-.22.216zM59.232 39.362h-.088c-.878 0-1.616-.569-1.616-1.569 0-.146.105-.215.22-.215.114 0 .22.069.22.215 0 .724.518 1.147 1.176 1.147h.088c.685 0 1.212-.396 1.212-1.06 0-1.742-2.819-1.233-2.819-3.096 0-.897.703-1.474 1.52-1.474h.087c.843 0 1.537.482 1.537 1.336 0 .138-.106.207-.21.207-.106 0-.22-.069-.22-.216 0-.586-.474-.896-1.107-.896h-.088c-.588 0-1.089.397-1.089 1.052 0 1.457 2.828 1.078 2.828 3.086 0 .906-.72 1.483-1.65 1.483M63.438 39.362h-.088c-.747 0-1.37-.594-1.37-1.336v-1.57c0-.758.623-1.344 1.37-1.344h.088c.747 0 1.37.586 1.37 1.345a.203.203 0 01-.21.215c-.106 0-.22-.069-.22-.215a.932.932 0 00-.94-.923h-.088a.932.932 0 00-.94.923v1.569c0 .508.422.923.94.923h.088c.519 0 .94-.415.94-.923 0-.147.114-.224.22-.224.104 0 .21.077.21.224 0 .742-.623 1.336-1.37 1.336M66.405 39.362c-.105 0-.22-.06-.22-.206v-3.828c0-.147.115-.216.22-.216.106 0 .22.069.22.216v3.828c0 .146-.114.206-.22.206zm0-5.337a.215.215 0 01-.22-.215v-.285c0-.146.115-.215.22-.215.106 0 .22.069.22.215v.285c0 .137-.114.215-.22.215zM70.463 36.457c0-.509-.44-.923-.932-.923h-.087c-.518 0-.949.414-.949.923v.569h1.968v-.57zm.21 1h-2.178v.569c0 .508.422.923.94.923h.087c.413 0 .738-.25.87-.621.035-.095.106-.147.202-.147.114 0 .237.078.237.207 0 .017-.008.043-.017.078-.185.543-.694.896-1.292.896h-.087c-.746 0-1.37-.594-1.37-1.336v-1.57c0-.732.624-1.344 1.36-1.344h.089c.764 0 1.379.56 1.379 1.345v.784a.227.227 0 01-.22.216zM74.782 39.362c-.105 0-.219-.06-.219-.206v-2.708c0-.517-.404-.914-.93-.914h-.08a.936.936 0 00-.94.94v2.682c0 .146-.114.206-.22.206-.105 0-.219-.06-.219-.206v-3.828c0-.147.114-.216.22-.216.105 0 .22.069.22.216v.206c.166-.25.58-.422.94-.422h.078c.746 0 1.37.586 1.37 1.345v2.699c0 .146-.114.206-.22.206M77.794 39.362h-.088c-.747 0-1.37-.594-1.37-1.336v-1.57c0-.758.623-1.344 1.37-1.344h.088c.747 0 1.37.586 1.37 1.345a.203.203 0 01-.21.215c-.106 0-.22-.069-.22-.215a.932.932 0 00-.94-.923h-.088a.932.932 0 00-.94.923v1.569c0 .508.422.923.94.923h.088c.518 0 .94-.415.94-.923 0-.147.114-.224.22-.224.105 0 .21.077.21.224 0 .742-.623 1.336-1.37 1.336M82.773 36.457c0-.509-.44-.923-.932-.923h-.088c-.518 0-.948.414-.948.923v.569h1.968v-.57zm.21 1h-2.178v.569c0 .508.421.923.94.923h.088c.412 0 .737-.25.869-.621.035-.095.105-.147.202-.147.114 0 .237.078.237.207 0 .017-.008.043-.018.078-.184.543-.693.896-1.29.896h-.089c-.746 0-1.369-.594-1.369-1.336v-1.57c0-.732.623-1.344 1.361-1.344h.088c.763 0 1.379.56 1.379 1.345v.784a.226.226 0 01-.22.216zM85.793 39.362h-.158c-.545 0-1.125-.327-1.388-.845-.009-.034-.026-.068-.026-.094 0-.13.122-.216.237-.216a.19.19 0 01.193.13c.176.37.607.612.984.612h.158c.597 0 .992-.38.992-.803 0-1.396-2.38-.404-2.38-2v-.043c0-.577.58-.99 1.335-.99h.018c.738 0 1.238.36 1.238.56a.219.219 0 01-.21.214.207.207 0 01-.15-.06c-.237-.206-.491-.293-.878-.293h-.044c-.351 0-.878.173-.878.577v.035c0 1.095 2.388.25 2.388 2 0 .863-.817 1.216-1.431 1.216"/></g></g></svg>