<?xml version="1.0" standalone="no"?>
<!DOCTYPE svg PUBLIC "-//W3C//DTD SVG 20010904//EN"
 "http://www.w3.org/TR/2001/REC-SVG-20010904/DTD/svg10.dtd">
<svg version="1.0" xmlns="http://www.w3.org/2000/svg"
 width="300.000000pt" height="89.000000pt" viewBox="0 0 300.000000 89.000000"
 preserveAspectRatio="xMidYMid meet">
<metadata>
Created by potrace 1.10, written by Peter Selinger 2001-2011
</metadata>
<g transform="translate(0.000000,89.000000) scale(0.100000,-0.100000)"
fill="#000000" stroke="none">
<path d="M1391 880 c-48 -4 -52 -7 -38 -19 13 -10 17 -30 17 -82 l0 -69 -25
16 c-33 22 -121 22 -162 0 -18 -9 -44 -32 -60 -52 -39 -52 -44 -151 -11 -208
30 -51 95 -86 159 -86 43 0 49 3 68 34 26 42 26 50 2 36 -98 -52 -209 77 -156
180 23 45 69 65 116 51 61 -18 69 -38 69 -173 l0 -118 55 0 c52 0 72 11 40 24
-12 4 -15 43 -17 238 l-3 233 -54 -5z m28 -352 c1 -66 -3 -108 -9 -108 -6 0
-10 39 -10 96 0 68 -5 106 -16 130 -15 32 -15 36 0 53 11 12 17 38 18 82 2 88
15 -105 17 -253z m-244 134 c-48 -72 -42 -141 17 -208 34 -38 28 -43 -16 -15
-41 27 -55 57 -56 119 0 61 11 88 48 119 36 30 36 29 7 -15z"/>
<path d="M1568 855 c21 -26 22 -38 22 -226 0 -191 -1 -199 -22 -219 l-22 -20
83 0 82 0 -20 26 c-20 25 -21 40 -21 215 l0 189 43 0 c133 0 119 -146 -17
-172 -16 -3 -11 -13 33 -79 28 -42 72 -100 99 -128 l48 -51 68 0 68 0 -48 33
c-27 19 -79 71 -117 117 l-67 82 32 18 c68 35 95 109 63 170 -26 51 -66 64
-204 68 l-124 4 21 -27z m102 -14 c0 -6 -4 -13 -10 -16 -6 -4 -10 -83 -10
-206 0 -195 0 -199 -21 -199 -18 0 -20 4 -15 38 8 48 8 87 1 255 l-6 137 30 0
c17 0 31 -4 31 -9z m165 -23 c37 -32 35 -98 -2 -133 -32 -29 -54 -34 -29 -6
29 32 32 88 7 121 -11 16 -21 32 -21 35 0 12 21 4 45 -17z m-66 -210 c15 -33
33 -56 110 -140 37 -41 41 -48 23 -48 -32 0 -182 177 -165 194 4 3 1 6 -6 6
-7 0 -9 5 -6 10 12 19 30 10 44 -22z"/>
<path d="M2450 850 c-24 -24 -24 -29 -4 -58 39 -56 118 -4 80 53 -20 30 -49
32 -76 5z m50 -35 c0 -8 -7 -15 -15 -15 -8 0 -15 7 -15 15 0 8 7 15 15 15 8 0
15 -7 15 -15z"/>
<path d="M98 745 c-2 -3 -23 -6 -46 -7 -45 -1 -51 -8 -27 -28 22 -18 22 -272
0 -294 -8 -8 -15 -17 -15 -20 0 -3 29 -6 65 -6 36 0 65 3 65 6 0 3 -7 13 -16
21 -24 25 -16 213 10 242 26 29 86 28 112 0 28 -31 34 -221 8 -250 -17 -19
-16 -19 56 -19 70 0 72 1 57 18 -24 26 -24 217 -1 250 21 30 83 31 110 1 28
-31 34 -221 8 -250 -17 -19 -16 -19 56 -19 70 0 72 1 57 18 -13 15 -17 39 -17
113 -1 158 -20 202 -96 219 -47 11 -107 -3 -135 -31 l-21 -21 -22 21 c-48 45
-131 47 -179 4 -20 -18 -20 -17 -15 10 5 25 -1 34 -14 22z m2 -77 c-3 -7 -6
-66 -8 -130 -2 -65 -7 -118 -12 -118 -5 0 -10 65 -12 145 -3 142 -3 144 17
130 11 -7 18 -19 15 -27z m200 9 c16 -12 27 -28 24 -35 -2 -8 -4 -61 -4 -118
0 -63 -4 -104 -10 -104 -6 0 -10 37 -10 90 0 93 -14 145 -48 184 -16 18 -16
19 2 13 10 -4 31 -17 46 -30z m217 9 c27 -24 28 -27 32 -145 2 -84 0 -121 -8
-121 -7 0 -11 32 -11 94 0 101 -9 138 -42 174 -29 30 -6 28 29 -2z"/>
<path d="M814 741 c-144 -36 -190 -201 -83 -303 57 -54 159 -75 236 -48 27 10
72 75 60 87 -3 2 -20 -5 -38 -16 -45 -28 -122 -28 -167 -1 -29 18 -62 71 -62
100 0 6 49 10 136 10 l137 0 -6 35 c-16 98 -114 161 -213 136z m-59 -81 c-12
-22 -13 -35 -5 -49 7 -13 7 -22 0 -26 -23 -14 -10 -73 25 -120 l35 -46 -29 15
c-84 44 -106 153 -45 226 33 38 39 38 19 0z m168 -1 c9 -12 17 -25 17 -30 0
-5 -38 -9 -85 -9 -86 0 -95 4 -72 32 34 43 107 47 140 7z m67 -36 c0 -17 -6
-23 -21 -23 -17 0 -19 3 -11 13 8 9 7 21 -3 41 -21 40 -19 43 10 16 14 -13 25
-34 25 -47z"/>
<path d="M2480 743 c-56 -6 -68 -12 -47 -24 15 -9 17 -27 17 -151 0 -118 -3
-145 -17 -160 -15 -17 -13 -18 57 -18 70 0 72 1 57 18 -14 16 -17 44 -17 180
0 89 -3 161 -7 160 -5 0 -24 -3 -43 -5z m19 -205 c1 -73 -3 -118 -9 -118 -6 0
-10 54 -9 143 1 86 4 132 9 117 4 -14 8 -78 9 -142z"/>
<path d="M2650 742 c-70 -4 -76 -9 -45 -34 15 -11 35 -39 45 -62 69 -160 112
-235 143 -253 l33 -20 79 169 c44 93 81 173 83 178 2 4 -22 10 -52 12 -53 3
-69 -3 -46 -17 6 -3 10 -14 10 -24 0 -28 -93 -218 -98 -201 -3 8 -25 60 -50
115 -24 55 -47 109 -51 120 -5 17 -13 20 -51 17z m81 -157 c59 -129 63 -134
89 -117 23 14 24 12 8 -23 -23 -50 -45 -25 -112 124 -61 135 -61 134 -46 129
6 -2 33 -53 61 -113z m206 93 c-3 -8 -6 -5 -6 6 -1 11 2 17 5 13 3 -3 4 -12 1
-19z"/>
<path d="M1993 713 c-25 -10 -14 -33 16 -33 19 0 34 -8 43 -22 14 -22 78 -171
78 -182 0 -3 -14 -21 -30 -40 -44 -50 -100 -146 -100 -173 0 -37 28 -27 51 19
27 53 90 148 98 148 3 0 17 -29 30 -66 33 -94 62 -124 116 -124 26 0 47 6 55
15 10 13 9 15 -12 15 -35 0 -51 22 -93 127 l-37 92 42 52 c71 90 107 179 72
179 -5 0 -35 -43 -67 -95 -33 -52 -61 -95 -65 -95 -3 0 -16 30 -30 67 -34 89
-66 123 -117 122 -21 0 -44 -3 -50 -6z m146 -136 c33 -72 104 -244 118 -287 3
-8 -4 -4 -16 10 -11 14 -21 29 -21 34 0 4 -13 36 -28 70 -50 108 -111 266
-101 260 6 -3 27 -43 48 -87z"/>
<path d="M1013 109 c-28 -10 -30 -39 -3 -46 11 -3 20 -12 20 -20 0 -9 -6 -13
-15 -10 -8 4 -17 1 -21 -4 -4 -7 5 -9 22 -7 36 4 47 43 14 53 -11 3 -18 11
-14 16 3 6 12 8 20 5 8 -3 14 -1 14 4 0 15 -14 18 -37 9z"/>
<path d="M2398 109 c-24 -13 -23 -36 2 -49 22 -12 17 -35 -6 -26 -8 3 -14 1
-14 -4 0 -6 11 -10 25 -10 35 0 45 29 17 48 -28 18 -28 32 -1 32 11 0 17 5 14
10 -8 12 -15 12 -37 -1z"/>
<path d="M2484 110 c-25 -10 -34 -37 -23 -68 6 -16 16 -22 40 -22 18 0 29 3
25 7 -4 4 -15 8 -24 8 -12 0 -17 9 -17 30 0 21 5 30 17 30 9 0 19 3 23 6 10
11 -19 17 -41 9z"/>
<path d="M2803 109 c-27 -10 -40 -53 -23 -74 13 -16 60 -21 60 -6 0 5 -7 8
-16 7 -25 -2 -41 29 -24 49 7 9 19 14 27 11 7 -3 13 -1 13 4 0 15 -14 18 -37
9z"/>
<path d="M2948 109 c-24 -13 -23 -36 2 -49 11 -6 20 -16 20 -22 0 -5 -9 -8
-20 -5 -11 3 -20 1 -20 -5 0 -5 12 -8 28 -6 35 4 44 43 12 51 -24 6 -19 27 6
27 8 0 12 5 9 10 -8 12 -15 12 -37 -1z"/>
<path d="M10 99 c0 -5 5 -7 10 -4 6 4 10 -10 10 -34 0 -23 5 -41 10 -41 6 0
10 14 10 31 0 19 7 37 18 45 15 12 13 13 -20 14 -21 0 -38 -5 -38 -11z"/>
<path d="M90 65 c0 -25 5 -45 10 -45 6 0 10 9 10 20 0 13 7 20 20 20 13 0 20
-7 20 -20 0 -11 5 -20 10 -20 6 0 10 20 10 45 0 25 -4 45 -10 45 -5 0 -10 -9
-10 -20 0 -13 -7 -20 -20 -20 -13 0 -20 7 -20 20 0 11 -4 20 -10 20 -5 0 -10
-20 -10 -45z"/>
<path d="M200 65 c0 -44 1 -45 31 -45 17 0 28 4 24 10 -3 5 -12 7 -20 3 -9 -3
-15 1 -15 10 0 9 10 18 23 20 l22 4 -22 2 c-14 0 -23 7 -23 17 0 11 6 14 20 9
11 -4 20 -2 20 4 0 6 -13 11 -30 11 -29 0 -30 -2 -30 -45z"/>
<path d="M310 66 c0 -25 5 -46 10 -46 6 0 10 6 10 13 0 7 10 17 23 22 12 6 22
19 22 30 0 15 -8 21 -32 23 -33 3 -33 3 -33 -42z m45 14 c0 -7 -6 -15 -12 -17
-8 -3 -13 4 -13 17 0 13 5 20 13 18 6 -3 12 -11 12 -18z"/>
<path d="M398 65 c-2 -33 0 -45 10 -45 9 0 12 6 8 15 -3 8 -1 15 3 15 5 0 11
-7 15 -15 3 -8 10 -15 16 -15 7 0 8 6 1 18 -7 13 -7 22 1 30 17 17 1 42 -26
42 -21 0 -24 -5 -28 -45z m42 14 c0 -5 -7 -9 -15 -9 -15 0 -20 12 -9 23 8 8
24 -1 24 -14z"/>
<path d="M480 65 c0 -43 1 -45 30 -45 17 0 30 5 30 11 0 6 -9 8 -20 4 -14 -4
-20 -2 -20 9 0 8 10 17 23 19 l22 4 -23 2 c-14 0 -22 6 -19 14 2 6 11 11 21 9
9 -2 16 2 16 8 0 5 -13 10 -30 10 -29 0 -30 -2 -30 -45z"/>
<path d="M560 65 c0 -25 5 -45 10 -45 6 0 10 7 10 15 0 8 6 15 14 15 20 0 37
25 30 44 -4 10 -18 16 -35 16 -28 0 -29 -2 -29 -45z m45 15 c0 -7 -6 -15 -12
-17 -8 -3 -13 4 -13 17 0 13 5 20 13 18 6 -3 12 -11 12 -18z"/>
<path d="M645 65 c0 -29 4 -45 12 -45 7 0 10 7 7 15 -4 8 -2 15 4 15 5 0 12
-7 16 -15 3 -8 10 -15 16 -15 7 0 8 6 1 18 -7 13 -7 22 1 30 18 18 1 42 -29
42 -26 0 -28 -3 -28 -45z m45 14 c0 -5 -7 -9 -15 -9 -15 0 -20 12 -9 23 8 8
24 -1 24 -14z"/>
<path d="M730 65 c0 -25 5 -45 10 -45 6 0 10 20 10 45 0 25 -4 45 -10 45 -5 0
-10 -20 -10 -45z"/>
<path d="M780 65 c0 -25 5 -45 10 -45 6 0 10 15 10 33 l0 32 20 -33 c29 -48
50 -42 50 13 0 52 -17 61 -22 13 l-3 -33 -18 33 c-26 48 -47 42 -47 -13z"/>
<path d="M880 100 c0 -5 6 -10 13 -10 9 0 12 -11 9 -35 -3 -27 -1 -35 11 -35
12 0 15 8 10 35 -4 28 -2 35 11 35 9 0 16 5 16 10 0 6 -16 10 -35 10 -19 0
-35 -4 -35 -10z"/>
<path d="M1080 65 c0 -41 2 -45 25 -45 14 0 25 4 25 10 0 5 -7 7 -15 4 -9 -4
-15 0 -15 9 0 9 8 18 18 20 16 4 16 5 0 6 -10 0 -18 8 -18 16 0 9 6 12 15 9 8
-4 15 -1 15 5 0 6 -11 11 -25 11 -23 0 -25 -4 -25 -45z"/>
<path d="M1150 65 c0 -25 5 -45 10 -45 6 0 10 8 10 18 1 16 1 16 14 0 7 -10
19 -18 26 -18 10 0 10 3 0 15 -10 12 -10 18 0 30 19 23 4 45 -30 45 -29 0 -30
-2 -30 -45z m48 17 c2 -7 -3 -12 -12 -12 -9 0 -16 7 -16 16 0 17 22 14 28 -4z"/>
<path d="M1240 68 c10 -24 24 -43 31 -43 7 0 20 19 30 43 15 34 15 42 4 42 -7
0 -16 -13 -20 -30 -4 -17 -10 -30 -15 -30 -4 0 -10 14 -13 30 -4 17 -13 30
-21 30 -13 0 -12 -7 4 -42z"/>
<path d="M1330 65 c0 -44 1 -45 31 -45 17 0 28 4 24 10 -3 5 -12 7 -20 3 -9
-3 -15 1 -15 10 0 9 8 18 18 20 16 4 16 5 0 6 -10 0 -18 8 -18 16 0 8 6 12 14
9 8 -3 17 -1 21 5 4 7 -5 11 -24 11 -30 0 -31 -1 -31 -45z"/>
<path d="M1405 65 c0 -29 4 -45 12 -45 7 0 10 7 7 15 -4 8 -2 15 4 15 5 0 12
-7 16 -15 3 -8 10 -15 16 -15 7 0 8 6 1 18 -7 13 -7 22 1 30 18 18 1 42 -29
42 -26 0 -28 -2 -28 -45z m45 14 c0 -5 -7 -9 -15 -9 -15 0 -20 12 -9 23 8 8
24 -1 24 -14z"/>
<path d="M1530 65 c0 -25 5 -45 10 -45 6 0 10 9 10 19 0 11 8 22 18 24 16 4
16 5 0 6 -10 0 -18 8 -18 16 0 8 6 12 14 9 8 -3 17 -1 21 5 4 7 -5 11 -24 11
-30 0 -31 -1 -31 -45z"/>
<path d="M1599 89 c-18 -34 3 -69 41 -69 22 0 33 6 41 24 16 35 -3 66 -41 66
-20 0 -33 -7 -41 -21z m60 -8 c7 -13 6 -23 -4 -37 -15 -19 -15 -19 -30 0 -15
19 -5 56 15 56 5 0 14 -8 19 -19z"/>
<path d="M1710 65 c0 -26 5 -45 11 -45 6 0 9 7 5 15 -3 8 -1 15 3 15 5 0 11
-7 15 -15 3 -8 13 -15 22 -15 16 0 16 1 1 18 -12 14 -14 21 -6 29 18 18 2 43
-26 43 -23 0 -25 -4 -25 -45z m40 14 c0 -5 -7 -9 -15 -9 -9 0 -12 6 -9 15 6
15 24 11 24 -6z"/>
<path d="M1830 65 c0 -25 5 -45 10 -45 6 0 10 9 10 20 0 13 7 20 20 20 13 0
20 -7 20 -20 0 -11 5 -20 10 -20 6 0 10 20 10 45 0 25 -4 45 -10 45 -5 0 -10
-9 -10 -20 0 -13 -7 -20 -20 -20 -13 0 -20 7 -20 20 0 11 -4 20 -10 20 -5 0
-10 -20 -10 -45z"/>
<path d="M1940 65 c0 -41 2 -45 25 -45 14 0 25 4 25 10 0 5 -7 7 -15 4 -9 -4
-15 0 -15 9 0 9 8 18 18 20 16 4 16 5 0 6 -10 0 -18 8 -18 16 0 8 6 12 14 9 8
-3 17 -1 21 5 4 7 -5 11 -24 11 -30 0 -31 -1 -31 -45z"/>
<path d="M2019 65 c-14 -37 -14 -45 -3 -45 8 0 14 5 14 10 0 14 38 12 43 -2 2
-7 7 -10 11 -7 10 9 -20 84 -35 87 -9 1 -20 -15 -30 -43z m41 -6 c0 -5 -7 -9
-15 -9 -9 0 -12 6 -9 15 6 15 24 11 24 -6z"/>
<path d="M2110 65 c0 -41 2 -45 25 -45 14 0 25 5 25 11 0 6 -7 9 -15 5 -12 -4
-15 3 -15 34 0 22 -4 40 -10 40 -5 0 -10 -20 -10 -45z"/>
<path d="M2160 100 c0 -5 5 -10 10 -10 6 0 10 -16 10 -35 0 -22 5 -35 13 -35
9 0 12 11 9 35 -3 27 -1 35 12 35 9 0 16 5 16 10 0 6 -16 10 -35 10 -19 0 -35
-4 -35 -10z"/>
<path d="M2240 65 c0 -25 5 -45 10 -45 6 0 10 9 10 20 0 13 7 20 20 20 13 0
20 -7 20 -20 0 -11 6 -20 13 -20 8 0 12 16 12 45 0 29 -4 45 -12 45 -7 0 -13
-9 -13 -20 0 -13 -7 -20 -20 -20 -13 0 -20 7 -20 20 0 11 -4 20 -10 20 -5 0
-10 -20 -10 -45z"/>
<path d="M2540 65 c0 -29 4 -45 13 -45 8 0 12 16 12 45 0 29 -4 45 -12 45 -9
0 -13 -16 -13 -45z"/>
<path d="M2590 65 c0 -44 1 -45 31 -45 17 0 28 4 24 10 -3 5 -12 7 -20 3 -9
-3 -15 1 -15 10 0 9 10 18 23 20 l22 4 -22 2 c-14 0 -23 7 -23 17 0 11 6 14
20 9 11 -4 20 -2 20 4 0 6 -13 11 -30 11 -29 0 -30 -2 -30 -45z"/>
<path d="M2670 65 c0 -51 20 -63 21 -12 l0 32 16 -33 c25 -48 48 -42 48 13 0
29 -4 45 -12 45 -9 0 -11 -10 -7 -32 l6 -33 -21 25 c-11 14 -21 28 -21 33 0 4
-7 7 -15 7 -11 0 -15 -12 -15 -45z"/>
<path d="M2860 65 c0 -43 1 -45 30 -45 17 0 30 5 30 11 0 6 -9 8 -20 4 -14 -4
-20 -2 -20 9 0 8 10 17 23 19 l22 4 -22 2 c-14 0 -23 7 -23 17 0 11 6 14 20 9
11 -4 20 -2 20 4 0 6 -13 11 -30 11 -29 0 -30 -2 -30 -45z"/>
</g>
</svg>
