<svg xmlns="http://www.w3.org/2000/svg" width="1074.34" height="380.09" viewBox="0 0 1007.194 356.334"><defs><marker id="d" refX="0" refY="0" orient="auto" overflow="visible"><path d="M-4 0l-2 2 7-2-7-2 2 2z" fill="gray" fill-rule="evenodd" stroke="gray" stroke-width=".4pt"/></marker><marker id="c" refX="0" refY="0" orient="auto" overflow="visible"><path d="M-4 0l-2 2 7-2-7-2 2 2z" fill="gray" fill-rule="evenodd" stroke="gray" stroke-width=".4pt"/></marker><marker orient="auto" refY="0" refX="0" id="a" overflow="visible"><path d="M-4 0l-2 2 7-2-7-2 2 2z" fill="gray" fill-rule="evenodd" stroke="gray" stroke-width=".4pt"/></marker><marker orient="auto" refY="0" refX="0" id="i" overflow="visible"><path d="M-4 0l-2 2 7-2-7-2 2 2z" fill="gray" fill-rule="evenodd" stroke="gray" stroke-width=".4pt"/></marker><marker orient="auto" refY="0" refX="0" id="e" overflow="visible"><path d="M-4 0l-2 2 7-2-7-2 2 2z" fill="gray" fill-rule="evenodd" stroke="gray" stroke-width=".4pt"/></marker><marker orient="auto" refY="0" refX="0" id="b" overflow="visible"><path d="M-4 0l-2 2 7-2-7-2 2 2z" fill="gray" fill-rule="evenodd" stroke="gray" stroke-width=".4pt"/></marker><marker orient="auto" refY="0" refX="0" id="f" overflow="visible"><path d="M-4 0l-2 2 7-2-7-2 2 2z" fill="gray" fill-rule="evenodd" stroke="gray" stroke-width=".4pt"/></marker><marker id="g" refX="0" refY="0" orient="auto" overflow="visible"><path d="M-4 0l-2 2 7-2-7-2 2 2z" fill="gray" fill-rule="evenodd" stroke="gray" stroke-width=".4pt"/></marker><marker id="h" refX="0" refY="0" orient="auto" overflow="visible"><path d="M-4 0l-2 2 7-2-7-2 2 2z" fill="gray" fill-rule="evenodd" stroke="gray" stroke-width=".4pt"/></marker></defs><g transform="translate(-41.417 4.892)"><rect width="91.489" height="91.489" x="-62.383" y="58.932" ry="15.278" rx="15.278" fill="none" stroke="#666" stroke-width="4.4" stroke-linecap="round" stroke-linejoin="round"/><rect rx="15.278" width="206.03" height="89.364" x="124.658" y="59.995" ry="15.278" fill="none" stroke="#666" stroke-width="4" stroke-linecap="round" stroke-linejoin="round"/><rect rx="15.278" width="91.489" height="91.489" x="436.907" y="58.932" ry="15.278" fill="none" stroke="#666" stroke-width="4.4" stroke-linecap="round" stroke-linejoin="round"/><rect rx="15.278" width="91.489" height="91.489" x="951.403" y="58.932" ry="15.278" fill="none" stroke="#666" stroke-width="4.4" stroke-linecap="round" stroke-linejoin="round"/><path d="M-.663 85.498V85.446l-.011-.022v-.043l-.01-.02v-.022l-.011-.021-.01-.022-.012-.02-.01-.022-.01-.021-.011-.022-.011-.021-.021-.021-.022-.022-.01-.02-.021-.022-.022-.021-.021-.01-.032-.022-.021-.01-.032-.022-.021-.01-.032-.011-.021-.011h-.011l-.021-.01H-1.1l-.021-.011h-.128c-.266 0-.33.042-.957.797l-2.54 3.019c-1.382-2.487-4.135-3.816-7.58-3.816-6.728 0-13.074 6.09-13.074 12.5 0 4.284 2.817 6.73 5.506 7.505l5.655 1.5c1.967.467 4.89 1.264 4.89 5.612 0 4.773-4.358 9.737-9.535 9.737-3.391 0-9.27-1.17-9.27-7.728 0-1.276.266-2.54.32-2.86.042-.212.095-.265.095-.372 0-.531-.361-.584-.627-.584s-.372.053-.531.212c-.224.213-3.179 12.288-3.179 12.437 0 .32.266.532.585.532.266 0 .319-.043.946-.798l2.604-2.997c2.275 3.072 5.868 3.795 8.94 3.795 7.207 0 13.457-7.037 13.457-13.596 0-3.657-1.796-5.464-2.593-6.197-1.212-1.233-2.01-1.425-6.729-2.658-1.159-.319-3.072-.85-3.55-.946-1.435-.478-3.221-2.009-3.221-4.815 0-4.305 4.23-8.802 9.258-8.802 4.412 0 7.633 2.275 7.633 8.217 0 1.69-.224 2.647-.224 2.955 0 .054 0 .532.649.532.531 0 .585-.16.787-1.063zM486.425 91.366l.042-.17.043-.17.042-.16.043-.148.042-.15.043-.137.053-.128.053-.117.053-.117.064-.117.075-.095.074-.096.085-.096.085-.085.106-.074.107-.075.127-.063.128-.064.149-.053.16-.054.18-.042.085-.021.096-.022.106-.02.106-.022.106-.01.107-.022.117-.01.127-.011.128-.021.127-.011.139-.01h.138l.138-.011.149-.011.16-.01h.329l.17-.011H491.24c1.265 0 1.701 0 1.701-1.02 0-.628-.585-.628-.797-.628-1.552 0-5.475.17-6.995.17-1.594 0-5.453-.17-7.047-.17-.362 0-1.063 0-1.063 1.063 0 .585.489.585 1.477.585 2.232 0 3.657 0 3.657 1.01 0 .265 0 .361-.096.85l-7.143 28.53c-.489 1.957-.648 2.488-4.837 2.488-1.211 0-1.69 0-1.69 1.063 0 .585.649.585.797.585 1.542 0 5.4-.17 6.942-.17 1.594 0 5.517.17 7.09.17.436 0 1.063 0 1.063-1.01 0-.638-.436-.638-1.595-.638-.946 0-1.211 0-2.274-.096-1.117-.117-1.308-.318-1.308-.892 0-.436.096-.85.191-1.234zM1002.457 104.292l.5-.117.51-.128.51-.148.51-.16.521-.17.51-.191.51-.202.5-.213.5-.234.5-.244.489-.255.478-.266.457-.287.457-.298.447-.308.425-.319.414-.33.394-.34.382-.36.351-.373.34-.372.309-.393.297-.404.266-.415.234-.425.213-.436.18-.446.16-.457.117-.468.085-.478.053-.49.021-.499c0-4.55-4.762-7.94-11.693-7.94H987.31c-1.063 0-1.542 0-1.542 1.062 0 .585.479.585 1.489.585.106 0 1.116 0 2.009.096.946.117 1.435.17 1.435.85 0 .213-.054.383-.224 1.01l-7.09 28.435c-.531 2.073-.627 2.487-4.815 2.487-.967 0-1.425 0-1.425 1.063 0 .585.628.585.723.585 1.5 0 5.198-.17 6.687-.17 1.477 0 5.24.17 6.718.17.435 0 1.063 0 1.063-1.063 0-.585-.479-.585-1.478-.585-1.956 0-3.455 0-3.455-.946 0-.308.117-.574.17-.893l3.487-14.031h6.314l-.053-1.18h-5.942l3.455-13.819c.308-1.265.457-1.796 1.477-1.966.479-.043 2.169-.043 3.221-.043 3.774 0 9.652 0 9.652 5.24 0 1.797-.85 5.454-2.923 7.516-1.36 1.371-4.167 3.072-8.94 3.072l.053 1.18c4.816 0 5.762 2.955 5.762 4.815 0 .798-.415 2.424-.734 3.657-.383 1.478-.84 3.433-.84 4.496 0 5.709 6.336 5.709 7.037 5.709 4.497 0 6.346-5.347 6.346-6.091 0-.627-.584-.627-.627-.627-.489 0-.584.382-.69.744-1.33 3.922-3.604 4.815-4.827 4.815-1.743 0-2.115-1.159-2.115-3.242 0-1.626.319-4.326.531-6.027.107-.744.224-1.744.224-2.488 0-4.07-3.561-5.719-4.986-6.25z" fill="#000" stroke="none" stroke-miterlimit="10.433" font-weight="400" fill-rule="evenodd"/><path d="M43.87 107.621h73.611" fill="none" stroke="gray" stroke-width="2" stroke-linecap="round" marker-end="url(#a)"/><path d="M544.565 108.103h397.003" fill="none" stroke="gray" stroke-width="2.5" stroke-linecap="round" marker-end="url(#b)"/><rect rx="15.278" width="91.489" height="91.489" x="605.218" y="257.197" ry="15.278" fill="none" stroke="#666" stroke-width="4.4" stroke-linecap="round" stroke-linejoin="round"/><rect rx="15.278" width="91.489" height="91.489" x="954.922" y="254.9" ry="15.278" fill="none" stroke="#666" stroke-width="4.4" stroke-linecap="round" stroke-linejoin="round"/><path d="M985.84 313.21l-.04.179-.05.168-.04.16-.049.148-.04.149-.05.129-.039.129-.05.119-.059.11-.06.108-.06.1-.069.089-.079.09-.09.069-.089.08-.109.059-.109.07-.119.049-.139.05-.149.049-.159.04-.089.02-.08.01-.099.02-.099.02-.1.01-.098.009-.11.01-.109.02-.119.01-.119.01h-.129l-.129.01-.129.01h-.149l-.139.01h-.149l-.158.01H981.344c-.833 0-1.38 0-1.38.952 0 .586.437.586 1.38.586H997.7l-.883-1.539h-5.578c-.694 0-.793 0-1.101-.04-.476-.049-.635-.099-.635-.496 0-.139 0-.248.248-1.13l6.778-27.153c.427-1.727.536-1.876 2.66-1.876h5.29c4.852 0 8.95 2.62 8.95 9.15 0 2.412-.992 10.52-5.2 15.968-1.419 1.826-5.329 5.577-11.412 5.577l.883 1.539c10.281 0 20.037-10.43 20.037-21.258 0-6.976-4.198-12.514-11.631-12.514h-16.603c-.943 0-1.489 0-1.489.943 0 .595.447.595 1.44.595.634 0 1.537.04 2.123.09.794.109 1.092.248 1.092.793 0 .199-.05.358-.209.943zM666.064 288.943l.04-.159.04-.158.039-.15.04-.138.04-.14.04-.128.039-.12.05-.108.049-.11.05-.109.06-.09.069-.088.07-.09.079-.08.089-.069.09-.07.108-.059.11-.06.129-.049.138-.05.15-.04.158-.039.09-.02.089-.02.089-.01.1-.02.099-.01.099-.01.109-.019.11-.01.118-.01h.12l.128-.01.13-.01.128-.01h.278l.149-.01h.636c1.29 0 1.676 0 1.676-.992 0-.546-.545-.546-.694-.546-1.38 0-4.933.159-6.332.159-1.429 0-4.942-.159-6.371-.159-.387 0-.943 0-.943.993 0 .545.447.545 1.39.545.099 0 1.041 0 1.875.09.883.109 1.34.159 1.34.794 0 .198-.05.307-.209.943l-2.957 12.067h-15.085l2.928-11.62c.437-1.777.586-2.274 4.138-2.274 1.29 0 1.697 0 1.697-.992 0-.546-.545-.546-.704-.546-1.38 0-4.942.159-6.322.159-1.429 0-4.952-.159-6.371-.159-.407 0-.953 0-.953.993 0 .545.457.545 1.38.545.109 0 1.042 0 1.895.09.883.109 1.33.159 1.33.794 0 .198-.06.357-.199.943l-6.619 26.546c-.496 1.936-.605 2.323-4.515 2.323-.884 0-1.33 0-1.33.992 0 .546.605.546.694.546 1.38 0 4.903-.159 6.282-.159 1.042 0 2.124.07 3.166.07 1.082 0 2.164.089 3.206.089.407 0 .992 0 .992-.992 0-.546-.446-.546-1.38-.546-1.825 0-3.205 0-3.205-.884 0-.287.09-.535.14-.833l3.363-13.556h15.065c-2.074 8.207-3.205 12.9-3.404 13.645-.486 1.588-1.429 1.628-4.495 1.628-.745 0-1.181 0-1.181.992 0 .546.585.546.684.546 1.39 0 4.893-.159 6.272-.159 1.042 0 2.124.07 3.166.07 1.102 0 2.183.089 3.226.089.387 0 .982 0 .982-.992 0-.546-.437-.546-1.39-.546-1.825 0-3.205 0-3.205-.884 0-.287.09-.535.14-.833z" fill="#000" stroke="none" font-weight="400" stroke-miterlimit="10.433" fill-rule="evenodd"/><path d="M527.815 159.886l68.981 86.574" fill="none" stroke="gray" stroke-width="2" marker-end="url(#c)"/><path d="M884.019 304.33h55.632" fill="none" stroke="gray" stroke-width="1.57" marker-end="url(#d)"/><path d="M686.536 243.646l252.451-83.973" fill="none" stroke="gray" stroke-width="2.5" marker-end="url(#e)"/><path d="M346.717 106.182h73.612" fill="none" stroke="gray" stroke-width="2" stroke-linecap="round" marker-end="url(#f)"/><text style="line-height:125%;-inkscape-font-specification:'Sans, Normal';text-align:start" x="339.644" y="93.722" font-weight="400" font-size="16.25" font-family="Sans" letter-spacing="0" word-spacing="0"><tspan x="339.644" y="93.722"><tspan x="339.644" y="93.722">symptoms</tspan></tspan></text><text style="line-height:125%;-inkscape-font-specification:'Sans, Normal';text-align:start" x="741.082" y="195.864" font-weight="400" font-size="16.25" font-family="Sans" letter-spacing="0" word-spacing="0"><tspan x="741.082" y="195.864"><tspan x="741.082" y="195.864">recovery</tspan></tspan></text><text style="line-height:125%;-inkscape-font-specification:'Sans, Normal';text-align:start" x="696.555" y="95.154" font-weight="400" font-size="16.25" font-family="Sans" letter-spacing="0" word-spacing="0"><tspan x="696.555" y="95.154"><tspan x="696.555" y="95.154">recovery</tspan></tspan></text><text style="line-height:125%;-inkscape-font-specification:'Sans, Normal';text-align:start" x="887.5" y="298.154" font-weight="400" font-size="16.25" font-family="Sans" letter-spacing="0" word-spacing="0"><tspan x="887.5" y="298.154"><tspan x="887.5" y="298.154">death</tspan></tspan></text><rect rx="15.278" width="91.489" height="91.489" x="778.358" y="257.753" ry="15.278" fill="none" stroke="#666" stroke-width="4.4" stroke-linecap="round" stroke-linejoin="round"/><path d="M712.638 298.108h55.633" fill="none" stroke="gray" stroke-width="1.57" marker-end="url(#g)"/><path d="M768.362 309.553H712.73" fill="none" stroke="gray" stroke-width="1.57" marker-end="url(#h)"/><path d="M482.35 50.153V17.196H76.564v80.56" fill="none" stroke="gray" stroke-width="2" marker-end="url(#i)"/><text style="line-height:125%;-inkscape-font-specification:'Sans, Normal';text-align:start" x="115.027" y="10.232" font-weight="400" font-size="16.25" font-family="Sans" letter-spacing="0" word-spacing="0"><tspan x="115.027" y="10.232"><tspan x="115.027" y="10.232">transmission modulated by interventions</tspan></tspan></text><text style="line-height:125%;-inkscape-font-specification:'Sans, Normal';text-align:start" x="470.121" y="3.294" font-weight="400" font-size="16.25" font-family="Sans" letter-spacing="0" word-spacing="0"/><g stroke-miterlimit="10.433" font-weight="400" fill="#000" fill-rule="evenodd" stroke="none"><path d="M153.776 108.802l.006-.01.005-.018.012-.028.011-.029.011-.028.012-.028.011-.029.011-.028.006-.028.006-.017.005-.012.006-.011.006-.017v-.012l.005-.01.006-.012v-.012l.006-.01v-.012l.005-.006v-.034l.006-.006c0-.028 0-.312-.34-.312-.256 0-.312.17-.363.346-1.844 4.187-2.882 6.07-7.721 6.07h-4.118c-.403 0-.454 0-.624-.022-.284-.029-.37-.057-.37-.284 0-.08 0-.142.143-.647l1.923-7.72h2.796c2.406 0 2.406.59 2.406 1.299 0 .198 0 .544-.205 1.384-.05.142-.079.232-.079.312 0 .142.108.312.363.312.233 0 .312-.142.426-.562l1.61-6.62c0-.17-.141-.312-.345-.312-.244 0-.307.17-.386.516-.596 2.145-1.112 2.791-3.71 2.791h-2.655l1.702-6.807c.244-.993.283-1.1 1.52-1.1h3.982c3.45 0 4.3.816 4.3 3.137 0 .675 0 .731-.113 1.497 0 .17-.028.369-.028.51 0 .142.085.335.334.335.318 0 .346-.17.403-.709l.567-4.884c.08-.76-.056-.76-.766-.76h-14.267c-.567 0-.85 0-.85.567 0 .306.255.306.788.306 1.044 0 1.832 0 1.832.505 0 .12 0 .17-.141.687l-3.722 14.942c-.283 1.106-.346 1.327-2.58 1.327-.477 0-.79 0-.79.545 0 .335.256.335.79.335h14.669c.658 0 .68-.029.88-.477zM161.213 107.038v-.176l-.006-.022v-.068l-.005-.017v-.017l-.006-.012v-.028l-.006-.017v-.012l-.011-.022-.006-.023-.011-.017-.011-.017-.012-.017-.011-.017-.017-.011-.017-.012-.023-.011-.017-.006-.023-.005-.028-.012h-.028l-.012-.005h-.017l-.017-.006h-.068l-.017-.006H160.617c-1.265 1.248-3.057 1.265-3.869 1.265v.71c.477 0 1.782 0 2.86-.55v10.08c0 .658 0 .913-1.975.913h-.743v.71c.352-.018 2.78-.08 3.517-.08.613 0 3.103.062 3.535.08v-.71h-.755c-1.974 0-1.974-.255-1.974-.913zM198.721 108.893l-.147.108-.136.113-.136.108-.125.114-.125.107-.125.108-.113.108-.114.108-.108.102-.102.102-.102.102-.096.102-.09.097-.086.096-.085.097-.08.09-.073.085-.074.091-.068.085-.062.08-.063.08-.057.073-.05.074-.052.068-.045.062-.046.063-.04.062-.033.051-.034.051-.029.045-.028.04-.023.04c-1.265 1.951-1.497 3.733-1.497 3.755 0 .34.346.34.567.34.482 0 .505-.056.624-.567.652-2.768 2.32-5.14 5.514-6.444.335-.108.425-.17.425-.363 0-.199-.17-.284-.232-.312-1.243-.477-4.663-1.895-5.735-6.649-.091-.334-.114-.414-.596-.414-.221 0-.567 0-.567.335 0 .057.255 1.838 1.446 3.733.568.84 1.384 1.832 2.598 2.74h-21c-.505 0-1.016 0-1.016.567s.51.567 1.016.567zM231.311 108.802l.006-.01v-.018l.011-.028.012-.029.011-.028.012-.028.01-.029.012-.028.012-.028.005-.017.006-.012v-.011l.006-.017.005-.012.006-.01v-.012l.006-.012v-.01l.005-.012v-.017l.006-.012v-.017c0-.028 0-.312-.335-.312-.26 0-.312.17-.363.346-1.843 4.187-2.882 6.07-7.72 6.07h-4.125c-.397 0-.453 0-.618-.022-.284-.029-.374-.057-.374-.284 0-.08 0-.142.142-.647l1.923-7.72h2.802c2.4 0 2.4.59 2.4 1.299 0 .198 0 .544-.205 1.384-.05.142-.08.232-.08.312 0 .142.109.312.364.312.233 0 .312-.142.425-.562l1.617-6.62c0-.17-.142-.312-.346-.312-.25 0-.312.17-.391.516-.596 2.145-1.106 2.791-3.705 2.791h-2.66l1.702-6.807c.25-.993.283-1.1 1.526-1.1h3.982c3.443 0 4.294.816 4.294 3.137 0 .675 0 .731-.113 1.497 0 .17-.029.369-.029.51 0 .142.091.335.34.335.318 0 .347-.17.398-.709l.567-4.884c.08-.76-.05-.76-.76-.76h-14.273c-.567 0-.85 0-.85.567 0 .306.255.306.788.306 1.05 0 1.838 0 1.838.505 0 .12 0 .17-.142.687l-3.727 14.942c-.284 1.106-.346 1.327-2.575 1.327-.483 0-.789 0-.789.545 0 .335.255.335.789.335h14.67c.652 0 .68-.029.873-.477zM242.112 116.007h-.675c-.056.437-.255 1.605-.516 1.804-.147.113-1.673.113-1.951.113h-3.642c2.076-1.832 2.768-2.382 3.954-3.313 1.463-1.174 2.83-2.394 2.83-4.277 0-2.388-2.093-3.852-4.629-3.852-2.445 0-4.112 1.72-4.112 3.534 0 1.01.85 1.112 1.055 1.112.47 0 1.044-.34 1.044-1.05 0-.35-.142-1.043-1.169-1.043.613-1.401 1.957-1.838 2.887-1.838 1.98 0 3.007 1.537 3.007 3.137 0 1.725-1.225 3.086-1.86 3.795l-4.76 4.709c-.204.175-.204.22-.204.771h8.146zM276.257 108.893l-.148.108-.136.113-.136.108-.125.114-.124.107-.125.108-.114.108-.113.108-.108.102-.102.102-.102.102-.097.102-.09.097-.085.096-.086.097-.079.09-.074.085-.073.091-.069.085-.062.08-.062.08-.057.073-.051.074-.051.068-.046.062-.045.063-.04.062-.034.051-.034.051-.028.045-.028.04-.023.04c-1.265 1.951-1.498 3.733-1.498 3.755 0 .34.346.34.567.34.483 0 .505-.056.624-.567.653-2.768 2.32-5.14 5.514-6.444.335-.108.426-.17.426-.363 0-.199-.17-.284-.233-.312-1.242-.477-4.663-1.895-5.735-6.649-.09-.334-.113-.414-.596-.414-.22 0-.567 0-.567.335 0 .057.255 1.838 1.447 3.733.567.84 1.384 1.832 2.598 2.74h-21c-.506 0-1.016 0-1.016.567s.51.567 1.015.567zM308.779 108.802l.006-.01.005-.018.012-.028.011-.029.011-.028.006-.028.011-.029.012-.028.011-.028.006-.017.005-.012.006-.011v-.017l.006-.012.005-.01v-.012l.006-.012v-.01l.006-.012v-.006l.005-.011V108.405c0-.028 0-.312-.334-.312-.256 0-.312.17-.363.346-1.844 4.187-2.882 6.07-7.721 6.07h-4.124c-.397 0-.448 0-.618-.022-.284-.029-.375-.057-.375-.284 0-.08 0-.142.142-.647l1.923-7.72h2.802c2.406 0 2.406.59 2.406 1.299 0 .198 0 .544-.205 1.384a.855.855 0 00-.079.312c0 .142.102.312.363.312.227 0 .306-.142.426-.562l1.61-6.62c0-.17-.141-.312-.345-.312-.25 0-.312.17-.392.516-.59 2.145-1.106 2.791-3.704 2.791h-2.655l1.702-6.807c.244-.993.283-1.1 1.52-1.1h3.982c3.45 0 4.3.816 4.3 3.137 0 .675 0 .731-.119 1.497 0 .17-.022.369-.022.51 0 .142.085.335.334.335.318 0 .346-.17.397-.709l.568-4.884c.079-.76-.051-.76-.76-.76h-14.273c-.568 0-.851 0-.851.567 0 .306.26.306.788.306 1.05 0 1.838 0 1.838.505 0 .12 0 .17-.141.687l-3.722 14.942c-.283 1.106-.346 1.327-2.581 1.327-.476 0-.788 0-.788.545 0 .335.255.335.788.335h14.67c.652 0 .68-.029.88-.477zM314.996 113.006h.142l.142.011.136.017.136.023.13.028.131.034.125.04.12.046.118.056.114.057.113.068.108.068.102.08.102.085.09.09.092.097.085.102.085.108.074.113.073.125.063.125.062.136.057.136.05.148.046.153.04.159.034.164.028.17.023.176.017.182.006.187.005.198c0 2.457-1.43 3.183-2.57 3.183-.788 0-2.535-.216-3.358-1.384.92-.034 1.14-.692 1.14-1.107 0-.63-.476-1.083-1.089-1.083-.55 0-1.111.335-1.111 1.146 0 1.86 2.059 3.063 4.453 3.063 2.745 0 4.646-1.843 4.646-3.818 0-1.543-1.26-3.086-3.444-3.54 2.077-.754 2.831-2.229 2.831-3.437 0-1.56-1.798-2.729-3.988-2.729-2.2 0-3.874 1.072-3.874 2.65 0 .675.436 1.043 1.026 1.043.613 0 1.004-.448 1.004-.998 0-.579-.39-.993-1.004-1.027.692-.88 2.048-1.095 2.786-1.095.885 0 2.133.437 2.133 2.156 0 .834-.273 1.736-.789 2.348-.652.755-1.202.8-2.195.851-.5.046-.533.046-.63.063-.045 0-.204.034-.204.255 0 .278.176.278.51.278z"/></g><g font-weight="400" stroke-miterlimit="10.433" fill="#000" fill-rule="evenodd" stroke="none"><path d="M814.697 287.864v-.041l-.008-.016v-.033l-.009-.016v-.017l-.008-.016-.008-.017-.008-.016v-.016l-.017-.017-.008-.016-.008-.016-.008-.017-.017-.016-.016-.017-.016-.016-.017-.016-.016-.009-.016-.016-.025-.008-.016-.016-.025-.009-.008-.008h-.016l-.009-.008h-.016l-.016-.008h-.025l-.016-.008h-.099c-.114 0-.163.032-.614.483l-2.85 3.144c-.36-.573-2.243-3.627-6.77-3.627-9.098 0-18.285 9.015-18.285 18.472 0 6.739 4.823 11.176 11.07 11.176 3.546 0 6.641-1.62 8.803-3.504 3.8-3.349 4.487-7.058 4.487-7.173 0-.41-.41-.41-.483-.41-.246 0-.45.075-.54.41-.353 1.18-1.303 4.078-4.12 6.444-2.808 2.276-5.387 2.972-7.491 2.972-3.677 0-8-2.128-8-8.482 0-2.334.86-8.933 4.93-13.707 2.488-2.899 6.329-4.937 9.948-4.937 4.176 0 6.575 3.136 6.575 7.868 0 1.638-.123 1.679-.123 2.088 0 .41.442.41.614.41.524 0 .524-.09.729-.82zM832.555 287.168l.008-.025.008-.024.008-.025.009-.024.016-.017v-.024l.008-.025.008-.016.017-.041.016-.041.008-.033.017-.04.008-.033.008-.033.008-.025.008-.033.009-.024.008-.025v-.024l.008-.017.008-.024v-.033l.008-.016v-.033l.009-.008V286.43c0-.45-.369-.81-.82-.81-.278 0-.572.114-.687.36l-14.165 38.876c-.205.525-.205.696-.205.73 0 .45.368.818.819.818.54 0 .655-.278.892-.966zM865.274 298.427l-.016-.606-.033-.598-.065-.581-.082-.574-.115-.556-.131-.54-.156-.525-.172-.508-.204-.49-.213-.484-.246-.458-.262-.443-.278-.425-.295-.41-.32-.385-.335-.368-.352-.352-.377-.336-.385-.311-.409-.287-.418-.27-.433-.245-.459-.23-.467-.204-.475-.18-.49-.164-.509-.131-.524-.115-.532-.082-.54-.065-.557-.041-.565-.008-.246 1.023c3.357 0 7.026 2.276 7.026 8.352 0 2.94-1.098 9.301-5.142 14.329-1.957 2.48-5.306 4.888-8.729 4.888-4.037 0-6.894-3.3-6.894-8.687 0-1.794.565-7.754 3.709-12.528 2.817-4.233 6.812-6.354 10.03-6.354l.246-1.023c-8.802 0-17.784 9.26-17.784 18.767 0 6.763 4.569 10.881 10.456 10.881 8.63 0 17.743-8.925 17.743-18.676z"/></g></g></svg>