<?xml version="1.0" encoding="UTF-8" standalone="no"?>
<svg
   xmlns:dc="http://purl.org/dc/elements/1.1/"
   xmlns:cc="http://creativecommons.org/ns#"
   xmlns:rdf="http://www.w3.org/1999/02/22-rdf-syntax-ns#"
   xmlns:svg="http://www.w3.org/2000/svg"
   xmlns="http://www.w3.org/2000/svg"
   xmlns:sodipodi="http://sodipodi.sourceforge.net/DTD/sodipodi-0.dtd"
   xmlns:inkscape="http://www.inkscape.org/namespaces/inkscape"
   width="1187.4066"
   height="377.1265"
   viewBox="0 0 1113.194 353.55572"
   id="svg2"
   version="1.1"
   inkscape:version="0.91 r13725"
   sodipodi:docname="model_sketch.svg">
  <sodipodi:namedview
     pagecolor="#ffffff"
     bordercolor="#666666"
     borderopacity="1"
     objecttolerance="10"
     gridtolerance="10"
     guidetolerance="10"
     inkscape:pageopacity="0"
     inkscape:pageshadow="2"
     inkscape:window-width="2560"
     inkscape:window-height="1416"
     id="namedview111"
     showgrid="false"
     inkscape:zoom="1.5"
     inkscape:cx="586.90328"
     inkscape:cy="14.711393"
     inkscape:window-x="0"
     inkscape:window-y="24"
     inkscape:window-maximized="1"
     inkscape:current-layer="g33"
     fit-margin-top="0"
     fit-margin-left="0"
     fit-margin-right="0"
     fit-margin-bottom="0" />
  <metadata
     id="metadata113">
    <rdf:RDF>
      <cc:Work
         rdf:about="">
        <dc:format>image/svg+xml</dc:format>
        <dc:type
           rdf:resource="http://purl.org/dc/dcmitype/StillImage" />
        <dc:title></dc:title>
      </cc:Work>
    </rdf:RDF>
  </metadata>
  <defs
     id="defs4">
    <marker
       overflow="visible"
       orient="auto"
       refY="0"
       refX="0"
       id="d"
       style="overflow:visible">
      <path
         id="path7"
         d="M -4,0 -6,2 1,0 -6,-2 -4,0 Z"
         inkscape:connector-curvature="0"
         style="fill:#808080;fill-rule:evenodd;stroke:#808080;stroke-width:0.4pt" />
    </marker>
    <marker
       overflow="visible"
       orient="auto"
       refY="0"
       refX="0"
       id="c"
       style="overflow:visible">
      <path
         id="path10"
         d="M -4,0 -6,2 1,0 -6,-2 -4,0 Z"
         inkscape:connector-curvature="0"
         style="fill:#808080;fill-rule:evenodd;stroke:#808080;stroke-width:0.4pt" />
    </marker>
    <marker
       overflow="visible"
       id="a"
       refX="0"
       refY="0"
       orient="auto"
       style="overflow:visible">
      <path
         id="path13"
         d="M -4,0 -6,2 1,0 -6,-2 -4,0 Z"
         inkscape:connector-curvature="0"
         style="fill:#808080;fill-rule:evenodd;stroke:#808080;stroke-width:0.4pt" />
    </marker>
    <marker
       overflow="visible"
       id="i"
       refX="0"
       refY="0"
       orient="auto"
       style="overflow:visible">
      <path
         id="path16"
         d="M -4,0 -6,2 1,0 -6,-2 -4,0 Z"
         inkscape:connector-curvature="0"
         style="fill:#808080;fill-rule:evenodd;stroke:#808080;stroke-width:0.4pt" />
    </marker>
    <marker
       overflow="visible"
       id="e"
       refX="0"
       refY="0"
       orient="auto"
       style="overflow:visible">
      <path
         id="path19"
         d="M -4,0 -6,2 1,0 -6,-2 -4,0 Z"
         inkscape:connector-curvature="0"
         style="fill:#808080;fill-rule:evenodd;stroke:#808080;stroke-width:0.4pt" />
    </marker>
    <marker
       overflow="visible"
       id="b"
       refX="0"
       refY="0"
       orient="auto"
       style="overflow:visible">
      <path
         id="path22"
         d="M -4,0 -6,2 1,0 -6,-2 -4,0 Z"
         inkscape:connector-curvature="0"
         style="fill:#808080;fill-rule:evenodd;stroke:#808080;stroke-width:0.4pt" />
    </marker>
    <marker
       overflow="visible"
       id="f"
       refX="0"
       refY="0"
       orient="auto"
       style="overflow:visible">
      <path
         id="path25"
         d="M -4,0 -6,2 1,0 -6,-2 -4,0 Z"
         inkscape:connector-curvature="0"
         style="fill:#808080;fill-rule:evenodd;stroke:#808080;stroke-width:0.4pt" />
    </marker>
    <marker
       overflow="visible"
       orient="auto"
       refY="0"
       refX="0"
       id="g"
       style="overflow:visible">
      <path
         id="path28"
         d="M -4,0 -6,2 1,0 -6,-2 -4,0 Z"
         inkscape:connector-curvature="0"
         style="fill:#808080;fill-rule:evenodd;stroke:#808080;stroke-width:0.4pt" />
    </marker>
    <marker
       overflow="visible"
       orient="auto"
       refY="0"
       refX="0"
       id="h"
       style="overflow:visible">
      <path
         id="path31"
         d="M -4,0 -6,2 1,0 -6,-2 -4,0 Z"
         inkscape:connector-curvature="0"
         style="fill:#808080;fill-rule:evenodd;stroke:#808080;stroke-width:0.4pt" />
    </marker>
  </defs>
  <g
     id="g33"
     transform="translate(64.582999,2.1139622)">
    <rect
       id="rect35"
       rx="15.278"
       ry="15.278"
       y="58.931999"
       x="-62.382999"
       height="91.488998"
       width="91.488998"
       style="fill:none;stroke:#666666;stroke-width:4.4000001;stroke-linecap:round;stroke-linejoin:round" />
    <rect
       id="rect37"
       ry="15.278"
       y="59.994999"
       x="124.658"
       height="89.363998"
       width="206.03"
       rx="15.278"
       style="fill:none;stroke:#666666;stroke-width:4;stroke-linecap:round;stroke-linejoin:round" />
    <rect
       id="rect39"
       ry="15.278"
       y="58.931999"
       x="436.90701"
       height="91.488998"
       width="91.488998"
       rx="15.278"
       style="fill:none;stroke:#666666;stroke-width:4.4000001;stroke-linecap:round;stroke-linejoin:round" />
    <rect
       id="rect41"
       ry="15.278"
       y="58.931999"
       x="951.40302"
       height="91.488998"
       width="91.488998"
       rx="15.278"
       style="fill:none;stroke:#666666;stroke-width:4.4000001;stroke-linecap:round;stroke-linejoin:round" />
    <path
       id="path45"
       d="m 43.87,107.621 73.611,0"
       inkscape:connector-curvature="0"
       style="fill:none;stroke:#808080;stroke-width:2;stroke-linecap:round;marker-end:url(#a)" />
    <path
       id="path47"
       d="m 544.565,108.103 397.003,0"
       inkscape:connector-curvature="0"
       style="fill:none;stroke:#808080;stroke-width:2.5;stroke-linecap:round;marker-end:url(#b)" />
    <rect
       id="rect49"
       ry="15.278"
       y="257.19699"
       x="605.21802"
       height="91.488998"
       width="91.488998"
       rx="15.278"
       style="fill:none;stroke:#666666;stroke-width:4.4000001;stroke-linecap:round;stroke-linejoin:round" />
    <rect
       id="rect51"
       ry="15.278"
       y="254.89999"
       x="954.922"
       height="91.488998"
       width="91.488998"
       rx="15.278"
       style="fill:none;stroke:#666666;stroke-width:4.4000001;stroke-linecap:round;stroke-linejoin:round" />
    <path
       id="path55"
       d="m 527.815,159.886 68.981,86.574"
       inkscape:connector-curvature="0"
       style="fill:none;stroke:#808080;stroke-width:2;marker-end:url(#c)" />
    <path
       id="path57"
       d="m 884.019,304.33 55.632,0"
       inkscape:connector-curvature="0"
       style="fill:none;stroke:#808080;stroke-width:1.57000005;marker-end:url(#d)" />
    <path
       id="path59"
       d="M 686.536,243.646 938.987,159.673"
       inkscape:connector-curvature="0"
       style="fill:none;stroke:#808080;stroke-width:2.5;marker-end:url(#e)" />
    <path
       id="path61"
       d="m 346.717,106.182 73.612,0"
       inkscape:connector-curvature="0"
       style="fill:none;stroke:#808080;stroke-width:2;stroke-linecap:round;marker-end:url(#f)" />
    <text
       id="text63"
       word-spacing="0"
       letter-spacing="0"
       font-size="16.25"
       font-weight="400"
       y="93.722"
       x="339.64401"
       style="font-weight:400;font-size:16.25px;line-height:125%;font-family:Sans;-inkscape-font-specification:'Sans, Normal';text-align:start;letter-spacing:0;word-spacing:0"
       sodipodi:linespacing="125%">
      <tspan
         id="tspan65"
         y="93.722"
         x="339.64401">
        <tspan
           id="tspan67"
           y="93.722"
           x="339.64401">symptoms</tspan>
      </tspan>
    </text>
    <text
       id="text69"
       word-spacing="0"
       letter-spacing="0"
       font-size="16.25"
       font-weight="400"
       y="195.864"
       x="741.08197"
       style="font-weight:400;font-size:16.25px;line-height:125%;font-family:Sans;-inkscape-font-specification:'Sans, Normal';text-align:start;letter-spacing:0;word-spacing:0"
       sodipodi:linespacing="125%">
      <tspan
         id="tspan71"
         y="195.864"
         x="741.08197">
        <tspan
           id="tspan73"
           y="195.864"
           x="741.08197">recovery</tspan>
      </tspan>
    </text>
    <text
       id="text75"
       word-spacing="0"
       letter-spacing="0"
       font-size="16.25"
       font-weight="400"
       y="95.153999"
       x="696.55499"
       style="font-weight:400;font-size:16.25px;line-height:125%;font-family:Sans;-inkscape-font-specification:'Sans, Normal';text-align:start;letter-spacing:0;word-spacing:0"
       sodipodi:linespacing="125%">
      <tspan
         id="tspan77"
         y="95.153999"
         x="696.55499">
        <tspan
           id="tspan79"
           y="95.153999"
           x="696.55499">recovery</tspan>
      </tspan>
    </text>
    <text
       id="text81"
       word-spacing="0"
       letter-spacing="0"
       font-size="16.25"
       font-weight="400"
       y="298.15399"
       x="887.5"
       style="font-weight:400;font-size:16.25px;line-height:125%;font-family:Sans;-inkscape-font-specification:'Sans, Normal';text-align:start;letter-spacing:0;word-spacing:0"
       sodipodi:linespacing="125%">
      <tspan
         id="tspan83"
         y="298.15399"
         x="887.5">
        <tspan
           id="tspan85"
           y="298.15399"
           x="887.5">death</tspan>
      </tspan>
    </text>
    <rect
       id="rect87"
       ry="15.278"
       y="257.75299"
       x="778.35797"
       height="91.488998"
       width="91.488998"
       rx="15.278"
       style="fill:none;stroke:#666666;stroke-width:4.4000001;stroke-linecap:round;stroke-linejoin:round" />
    <path
       id="path89"
       d="m 712.638,298.108 55.633,0"
       inkscape:connector-curvature="0"
       style="fill:none;stroke:#808080;stroke-width:1.57000005;marker-end:url(#g)" />
    <path
       id="path91"
       d="m 768.362,309.553 -55.632,0"
       inkscape:connector-curvature="0"
       style="fill:none;stroke:#808080;stroke-width:1.57000005;marker-end:url(#h)" />
    <path
       id="path93"
       d="m 482.35,50.153 0,-32.957 -405.786,0 0,80.56"
       inkscape:connector-curvature="0"
       style="fill:none;stroke:#808080;stroke-width:2;marker-end:url(#i)" />
    <text
       id="text95"
       word-spacing="0"
       letter-spacing="0"
       font-size="16.25"
       font-weight="400"
       y="10.232"
       x="115.027"
       style="font-weight:400;font-size:16.25px;line-height:125%;font-family:Sans;-inkscape-font-specification:'Sans, Normal';text-align:start;letter-spacing:0;word-spacing:0"
       sodipodi:linespacing="125%">
      <tspan
         id="tspan97"
         y="10.232"
         x="115.027">
        <tspan
           id="tspan99"
           y="10.232"
           x="115.027">transmission modulated by interventions</tspan>
      </tspan>
    </text>
    <text
       id="text101"
       word-spacing="0"
       letter-spacing="0"
       font-size="16.25"
       font-weight="400"
       y="3.2939999"
       x="470.121"
       style="font-weight:400;font-size:16.25px;line-height:125%;font-family:Sans;-inkscape-font-specification:'Sans, Normal';text-align:start;letter-spacing:0;word-spacing:0"
       sodipodi:linespacing="125%" />
    <g
       id="g103"
       font-weight="400"
       stroke-miterlimit="10.433"
       style="font-weight:400;fill:#000000;fill-rule:evenodd;stroke:none;stroke-miterlimit:10.43299961" />
    <g
       id="g4374"
       transform="matrix(1.0687971,0,0,1.0687971,-33.674663,-508.09795)">
      <g
         word-spacing="normal"
         letter-spacing="normal"
         font-size-adjust="none"
         font-stretch="normal"
         font-weight="normal"
         font-variant="normal"
         font-style="normal"
         stroke-miterlimit="10.433"
         xml:space="preserve"
         transform="matrix(0.54298571,0,0,-0.54298571,-95.0225,805.755)"
         id="content"
         style="font-style:normal;font-variant:normal;font-weight:normal;font-stretch:normal;letter-spacing:normal;word-spacing:normal;text-anchor:start;fill:none;fill-opacity:1;fill-rule:evenodd;stroke:#000000;stroke-linecap:butt;stroke-linejoin:miter;stroke-miterlimit:10.43299961;stroke-dasharray:none;stroke-dashoffset:0;stroke-opacity:1"><path
           id="path4377"
           d="m 490.8,417.81 0.01,0.02 0.01,0.03 0.02,0.05 0.02,0.05 0.02,0.05 0.02,0.05 0.02,0.05 0.02,0.05 0.01,0.05 0.01,0.03 0.01,0.02 0.01,0.02 0.01,0.03 0,0.02 0.01,0.02 0.01,0.02 0,0.02 0.01,0.02 0,0.02 0.01,0.01 0,0.02 0,0.02 0,0.01 0,0.01 0.01,0.01 c 0,0.05 0,0.55 -0.6,0.55 -0.45,0 -0.55,-0.3 -0.64,-0.61 -3.25,-7.38 -5.08,-10.7 -13.61,-10.7 l -7.26,0 c -0.71,0 -0.8,0 -1.1,0.04 -0.5,0.05 -0.65,0.1 -0.65,0.5 0,0.14 0,0.25 0.25,1.14 l 3.39,13.61 4.93,0 c 4.24,0 4.24,-1.04 4.24,-2.29 0,-0.35 0,-0.96 -0.36,-2.44 -0.09,-0.25 -0.14,-0.41 -0.14,-0.55 0,-0.25 0.19,-0.55 0.64,-0.55 0.41,0 0.55,0.25 0.75,0.99 l 2.84,11.67 c 0,0.3 -0.25,0.55 -0.61,0.55 -0.43,0 -0.54,-0.3 -0.68,-0.91 -1.05,-3.78 -1.96,-4.92 -6.54,-4.92 l -4.68,0 3,12 c 0.43,1.75 0.5,1.94 2.68,1.94 l 7.02,0 c 6.08,0 7.58,-1.44 7.58,-5.53 0,-1.19 0,-1.29 -0.2,-2.64 0,-0.3 -0.05,-0.65 -0.05,-0.9 0,-0.25 0.15,-0.59 0.59,-0.59 0.56,0 0.61,0.3 0.71,1.25 l 1,8.61 c 0.14,1.34 -0.1,1.34 -1.35,1.34 l -25.15,0 c -1,0 -1.5,0 -1.5,-1 0,-0.54 0.45,-0.54 1.39,-0.54 1.84,0 3.23,0 3.23,-0.89 0,-0.21 0,-0.3 -0.25,-1.21 l -6.56,-26.34 c -0.5,-1.95 -0.61,-2.34 -4.55,-2.34 -0.84,0 -1.39,0 -1.39,-0.96 0,-0.59 0.45,-0.59 1.39,-0.59 l 25.86,0 c 1.16,0 1.2,0.05 1.55,0.84 z"
           inkscape:connector-curvature="0"
           style="fill:#000000;stroke-width:0" /><path
           id="path4379"
           d="m 506.79,446.36 0,0.04 0,0.04 0,0.04 0,0.04 0,0.04 0,0.04 0,0.04 0,0.03 0,0.04 0,0.03 -0.01,0.03 0,0.03 0,0.03 -0.01,0.03 0,0.03 0,0.02 -0.01,0.03 0,0.02 -0.01,0.02 0,0.03 -0.01,0.04 -0.02,0.04 -0.02,0.03 -0.02,0.03 -0.02,0.03 -0.02,0.03 -0.03,0.02 -0.03,0.02 -0.03,0.01 -0.04,0.02 -0.04,0.01 -0.05,0.01 -0.04,0.01 -0.03,0.01 -0.03,0 -0.02,0 -0.03,0.01 -0.03,0 -0.03,0 -0.03,0 -0.04,0 -0.03,0.01 -0.04,0 -0.03,0 -0.04,0 -0.04,0 -0.04,0 -0.04,0 -0.04,0 -0.05,0 -0.04,0 c -2.24,-2.2 -5.39,-2.23 -6.83,-2.23 l 0,-1.25 c 0.84,0 3.14,0 5.04,0.96 l 0,-17.76 c 0,-1.16 0,-1.61 -3.48,-1.61 l -1.31,0 0,-1.25 c 0.62,0.03 4.9,0.14 6.2,0.14 1.08,0 5.47,-0.11 6.24,-0.14 l 0,1.25 -1.33,0 c -3.49,0 -3.49,0.45 -3.49,1.61 z"
           inkscape:connector-curvature="0"
           style="fill:#000000;stroke-width:0" /><path
           id="path4381"
           d="m 572.91,417.65 -0.26,-0.19 -0.24,-0.2 -0.24,-0.19 -0.22,-0.2 -0.23,-0.19 -0.21,-0.19 -0.2,-0.19 -0.2,-0.19 -0.19,-0.18 -0.18,-0.18 -0.18,-0.18 -0.17,-0.18 -0.16,-0.17 -0.15,-0.17 -0.15,-0.17 -0.14,-0.16 -0.13,-0.15 -0.13,-0.16 -0.12,-0.15 -0.11,-0.14 -0.11,-0.14 -0.1,-0.13 -0.09,-0.13 -0.09,-0.12 -0.08,-0.11 -0.08,-0.11 -0.07,-0.11 -0.06,-0.09 -0.06,-0.09 -0.05,-0.08 -0.05,-0.07 -0.04,-0.07 c -2.23,-3.44 -2.64,-6.58 -2.64,-6.62 0,-0.6 0.61,-0.6 1,-0.6 0.84,0 0.89,0.1 1.1,1 1.15,4.88 4.09,9.06 9.71,11.36 0.6,0.19 0.75,0.3 0.75,0.64 0,0.35 -0.29,0.5 -0.4,0.55 -2.19,0.84 -8.22,3.34 -10.11,11.72 -0.16,0.59 -0.21,0.73 -1.05,0.73 -0.39,0 -1,0 -1,-0.59 0,-0.1 0.45,-3.24 2.55,-6.58 1,-1.48 2.44,-3.23 4.58,-4.83 l -37.02,0 c -0.89,0 -1.8,0 -1.8,-1 0,-1 0.91,-1 1.8,-1 z"
           inkscape:connector-curvature="0"
           style="fill:#000000;stroke-width:0" /><path
           id="path4383"
           d="m 630.36,417.81 0.01,0.02 0.01,0.03 0.02,0.05 0.02,0.05 0.02,0.05 0.02,0.05 0.01,0.05 0.02,0.05 0.02,0.05 0.01,0.03 0.01,0.02 0.01,0.02 0,0.03 0.01,0.02 0.01,0.02 0,0.02 0.01,0.02 0.01,0.02 0,0.02 0,0.01 0.01,0.02 0,0.02 0,0.01 0,0.01 0,0.01 c 0,0.05 0,0.55 -0.59,0.55 -0.45,0 -0.55,-0.3 -0.64,-0.61 -3.25,-7.38 -5.08,-10.7 -13.61,-10.7 l -7.27,0 c -0.7,0 -0.79,0 -1.09,0.04 -0.5,0.05 -0.66,0.1 -0.66,0.5 0,0.14 0,0.25 0.25,1.14 l 3.4,13.61 4.93,0 c 4.24,0 4.24,-1.04 4.24,-2.29 0,-0.35 0,-0.96 -0.36,-2.44 -0.1,-0.25 -0.14,-0.41 -0.14,-0.55 0,-0.25 0.18,-0.55 0.64,-0.55 0.4,0 0.54,0.25 0.75,0.99 l 2.84,11.67 c 0,0.3 -0.25,0.55 -0.61,0.55 -0.44,0 -0.55,-0.3 -0.69,-0.91 -1.04,-3.78 -1.95,-4.92 -6.53,-4.92 l -4.68,0 3,12 c 0.43,1.75 0.5,1.94 2.68,1.94 l 7.02,0 c 6.08,0 7.58,-1.44 7.58,-5.53 0,-1.19 0,-1.29 -0.21,-2.64 0,-0.3 -0.04,-0.65 -0.04,-0.9 0,-0.25 0.15,-0.59 0.59,-0.59 0.56,0 0.61,0.3 0.7,1.25 l 1,8.61 c 0.14,1.34 -0.09,1.34 -1.34,1.34 l -25.16,0 c -1,0 -1.5,0 -1.5,-1 0,-0.54 0.46,-0.54 1.39,-0.54 1.85,0 3.24,0 3.24,-0.89 0,-0.21 0,-0.3 -0.25,-1.21 l -6.56,-26.34 c -0.5,-1.95 -0.61,-2.34 -4.55,-2.34 -0.84,0 -1.39,0 -1.39,-0.96 0,-0.59 0.45,-0.59 1.39,-0.59 l 25.86,0 c 1.16,0 1.2,0.05 1.55,0.84 z"
           inkscape:connector-curvature="0"
           style="fill:#000000;stroke-width:0" /><path
           id="path4385"
           d="m 652.27,430.54 -1.18,0 c -0.1,-0.76 -0.46,-2.83 -0.91,-3.17 -0.27,-0.2 -2.95,-0.2 -3.44,-0.2 l -6.42,0 c 3.66,3.23 4.88,4.2 6.97,5.84 2.58,2.06 4.98,4.22 4.98,7.53 0,4.22 -3.68,6.8 -8.15,6.8 -4.32,0 -7.25,-3.03 -7.25,-6.23 0,-1.79 1.5,-1.96 1.86,-1.96 0.82,0 1.84,0.6 1.84,1.85 0,0.62 -0.25,1.84 -2.06,1.84 1.08,2.47 3.45,3.23 5.09,3.23 3.49,0 5.3,-2.7 5.3,-5.53 0,-3.03 -2.16,-5.43 -3.28,-6.68 l -8.39,-8.3 c -0.36,-0.31 -0.36,-0.39 -0.36,-1.36 l 14.36,0 z"
           inkscape:connector-curvature="0"
           style="fill:#000000;stroke-width:0" /><path
           id="path4387"
           d="m 712.47,417.65 -0.25,-0.19 -0.25,-0.2 -0.23,-0.19 -0.23,-0.2 -0.22,-0.19 -0.22,-0.19 -0.2,-0.19 -0.2,-0.19 -0.19,-0.18 -0.18,-0.18 -0.18,-0.18 -0.16,-0.18 -0.17,-0.17 -0.15,-0.17 -0.15,-0.17 -0.14,-0.16 -0.13,-0.15 -0.13,-0.16 -0.12,-0.15 -0.11,-0.14 -0.11,-0.14 -0.1,-0.13 -0.09,-0.13 -0.09,-0.12 -0.08,-0.11 -0.08,-0.11 -0.06,-0.11 -0.07,-0.09 -0.06,-0.09 -0.05,-0.08 -0.05,-0.07 -0.04,-0.07 c -2.23,-3.44 -2.64,-6.58 -2.64,-6.62 0,-0.6 0.61,-0.6 1,-0.6 0.85,0 0.89,0.1 1.1,1 1.15,4.88 4.09,9.06 9.72,11.36 0.59,0.19 0.75,0.3 0.75,0.64 0,0.35 -0.3,0.5 -0.41,0.55 -2.19,0.84 -8.22,3.34 -10.11,11.72 -0.16,0.59 -0.2,0.73 -1.05,0.73 -0.39,0 -1,0 -1,-0.59 0,-0.1 0.46,-3.24 2.55,-6.58 1,-1.48 2.44,-3.23 4.58,-4.83 l -37.02,0 c -0.89,0 -1.79,0 -1.79,-1 0,-1 0.9,-1 1.79,-1 z"
           inkscape:connector-curvature="0"
           style="fill:#000000;stroke-width:0" /><path
           id="path4389"
           d="m 769.8,417.81 0.01,0.02 0.01,0.03 0.01,0.05 0.02,0.05 0.02,0.05 0.02,0.05 0.02,0.05 0.02,0.05 0.02,0.05 0.01,0.03 0.01,0.02 0,0.02 0.01,0.03 0.01,0.02 0.01,0.02 0,0.02 0.01,0.02 0,0.02 0.01,0.02 0,0.01 0,0.02 0.01,0.02 0,0.01 0,0.01 0,0.01 c 0,0.05 0,0.55 -0.59,0.55 -0.46,0 -0.55,-0.3 -0.64,-0.61 -3.25,-7.38 -5.08,-10.7 -13.61,-10.7 l -7.27,0 c -0.7,0 -0.8,0 -1.09,0.04 -0.5,0.05 -0.66,0.1 -0.66,0.5 0,0.14 0,0.25 0.25,1.14 l 3.39,13.61 4.94,0 c 4.23,0 4.23,-1.04 4.23,-2.29 0,-0.35 0,-0.96 -0.36,-2.44 -0.09,-0.25 -0.14,-0.41 -0.14,-0.55 0,-0.25 0.19,-0.55 0.64,-0.55 0.41,0 0.55,0.25 0.76,0.99 l 2.84,11.67 c 0,0.3 -0.25,0.55 -0.61,0.55 -0.44,0 -0.55,-0.3 -0.69,-0.91 -1.04,-3.78 -1.95,-4.92 -6.53,-4.92 l -4.69,0 3,12 c 0.44,1.75 0.5,1.94 2.69,1.94 l 7.02,0 c 6.07,0 7.57,-1.44 7.57,-5.53 0,-1.19 0,-1.29 -0.2,-2.64 0,-0.3 -0.05,-0.65 -0.05,-0.9 0,-0.25 0.16,-0.59 0.6,-0.59 0.56,0 0.61,0.3 0.7,1.25 l 1,8.61 c 0.14,1.34 -0.09,1.34 -1.34,1.34 l -25.16,0 c -1,0 -1.5,0 -1.5,-1 0,-0.54 0.45,-0.54 1.39,-0.54 1.85,0 3.24,0 3.24,-0.89 0,-0.21 0,-0.3 -0.25,-1.21 l -6.57,-26.34 c -0.5,-1.95 -0.61,-2.34 -4.54,-2.34 -0.85,0 -1.39,0 -1.39,-0.96 0,-0.59 0.45,-0.59 1.39,-0.59 l 25.86,0 c 1.15,0 1.2,0.05 1.54,0.84 z"
           inkscape:connector-curvature="0"
           style="fill:#000000;stroke-width:0" /><path
           id="path4391"
           d="m 783.64,435.84 0.25,-0.01 0.25,-0.01 0.24,-0.03 0.24,-0.04 0.23,-0.05 0.23,-0.06 0.22,-0.07 0.21,-0.08 0.21,-0.1 0.2,-0.1 0.2,-0.12 0.19,-0.12 0.18,-0.14 0.18,-0.15 0.16,-0.16 0.16,-0.17 0.15,-0.18 0.15,-0.19 0.13,-0.21 0.13,-0.21 0.11,-0.23 0.11,-0.23 0.1,-0.25 0.09,-0.25 0.08,-0.27 0.07,-0.28 0.06,-0.29 0.05,-0.3 0.04,-0.31 0.03,-0.32 0.01,-0.34 0.01,-0.34 c 0,-4.33 -2.52,-5.61 -4.53,-5.61 -1.39,0 -4.47,0.38 -5.93,2.44 1.63,0.06 2.02,1.22 2.02,1.95 0,1.11 -0.84,1.91 -1.92,1.91 -0.97,0 -1.95,-0.6 -1.95,-2.02 0,-3.28 3.62,-5.4 7.84,-5.4 4.84,0 8.19,3.25 8.19,6.73 0,2.72 -2.22,5.44 -6.06,6.23 3.65,1.33 4.98,3.94 4.98,6.07 0,2.75 -3.17,4.81 -7.03,4.81 -3.88,0 -6.83,-1.89 -6.83,-4.67 0,-1.19 0.76,-1.85 1.81,-1.85 1.08,0 1.77,0.8 1.77,1.77 0,1.02 -0.69,1.75 -1.77,1.81 1.22,1.55 3.61,1.92 4.91,1.92 1.56,0 3.76,-0.76 3.76,-3.79 0,-1.47 -0.48,-3.07 -1.39,-4.14 -1.15,-1.33 -2.12,-1.41 -3.87,-1.5 -0.88,-0.08 -0.94,-0.08 -1.11,-0.11 -0.08,0 -0.36,-0.07 -0.36,-0.46 0,-0.48 0.31,-0.48 0.91,-0.48 z"
           inkscape:connector-curvature="0"
           style="fill:#000000;stroke-width:0" /></g>    </g>
    <g
       transform="matrix(1.5,0,0,1.5,-257.74314,-890.02364)"
       id="g4572">
      <g
         style="font-style:normal;font-variant:normal;font-weight:normal;font-stretch:normal;letter-spacing:normal;word-spacing:normal;text-anchor:start;fill:none;fill-opacity:1;fill-rule:evenodd;stroke:#000000;stroke-linecap:butt;stroke-linejoin:miter;stroke-miterlimit:10.43299961;stroke-dasharray:none;stroke-dashoffset:0;stroke-opacity:1"
         id="g4574"
         transform="matrix(0.53875214,0,0,-0.53875214,-94.281625,890.55495)"
         xml:space="preserve"
         stroke-miterlimit="10.433"
         font-style="normal"
         font-variant="normal"
         font-weight="normal"
         font-stretch="normal"
         font-size-adjust="none"
         letter-spacing="normal"
         word-spacing="normal"><path
           style="fill:#000000;stroke-width:0"
           inkscape:connector-curvature="0"
           d="m 487.66,440.82 0,0.02 0,0.02 0,0.01 -0.01,0.02 0,0.02 0,0.02 -0.01,0.02 0,0.02 -0.01,0.02 -0.01,0.02 -0.01,0.02 -0.01,0.02 -0.01,0.02 -0.01,0.02 -0.01,0.02 -0.02,0.02 -0.02,0.02 -0.01,0.02 -0.02,0.02 -0.02,0.02 -0.02,0.01 -0.03,0.02 -0.02,0.01 -0.03,0.02 -0.02,0.01 -0.03,0.01 -0.02,0.01 -0.01,0 -0.02,0.01 -0.02,0 -0.01,0 -0.02,0.01 -0.02,0 -0.02,0 -0.02,0 -0.02,0 -0.02,0 -0.02,0 c -0.25,0 -0.31,-0.04 -0.9,-0.75 l -2.39,-2.84 c -1.3,2.34 -3.89,3.59 -7.13,3.59 -6.33,0 -12.3,-5.73 -12.3,-11.76 0,-4.03 2.65,-6.33 5.18,-7.06 l 5.32,-1.41 c 1.85,-0.44 4.6,-1.19 4.6,-5.28 0,-4.49 -4.1,-9.16 -8.97,-9.16 -3.19,0 -8.72,1.1 -8.72,7.27 0,1.2 0.25,2.39 0.3,2.69 0.04,0.2 0.09,0.25 0.09,0.35 0,0.5 -0.34,0.55 -0.59,0.55 -0.25,0 -0.35,-0.05 -0.5,-0.2 -0.21,-0.2 -2.99,-11.56 -2.99,-11.7 0,-0.3 0.25,-0.5 0.55,-0.5 0.25,0 0.3,0.04 0.89,0.75 l 2.45,2.82 c 2.14,-2.89 5.52,-3.57 8.41,-3.57 6.78,0 12.66,6.62 12.66,12.79 0,3.44 -1.69,5.14 -2.44,5.83 -1.14,1.16 -1.89,1.34 -6.33,2.5 -1.09,0.3 -2.89,0.8 -3.34,0.89 -1.35,0.45 -3.03,1.89 -3.03,4.53 0,4.05 3.98,8.28 8.71,8.28 4.15,0 7.18,-2.14 7.18,-7.73 0,-1.59 -0.21,-2.49 -0.21,-2.78 0,-0.05 0,-0.5 0.61,-0.5 0.5,0 0.55,0.15 0.74,1 z"
           id="path4576" /></g>    </g>
    <g
       transform="matrix(1.5,0,0,1.5,247.12087,-888.14864)"
       id="g4720">
      <g
         style="font-style:normal;font-variant:normal;font-weight:normal;font-stretch:normal;letter-spacing:normal;word-spacing:normal;text-anchor:start;fill:none;fill-opacity:1;fill-rule:evenodd;stroke:#000000;stroke-linecap:butt;stroke-linejoin:miter;stroke-miterlimit:10.43299961;stroke-dasharray:none;stroke-dashoffset:0;stroke-opacity:1"
         word-spacing="normal"
         letter-spacing="normal"
         font-size-adjust="none"
         font-stretch="normal"
         font-weight="normal"
         font-variant="normal"
         font-style="normal"
         stroke-miterlimit="10.433"
         xml:space="preserve"
         transform="matrix(0.53875214,0,0,-0.53875214,-94.281625,890.55495)"
         id="g4722"><path
           style="fill:#000000;stroke-width:0"
           inkscape:connector-curvature="0"
           id="path4724"
           d="m 474.16,436.39 0.04,0.16 0.04,0.16 0.04,0.15 0.04,0.14 0.04,0.14 0.04,0.13 0.05,0.12 0.05,0.11 0.05,0.11 0.06,0.11 0.07,0.09 0.07,0.09 0.08,0.09 0.08,0.08 0.1,0.07 0.1,0.07 0.12,0.06 0.12,0.06 0.14,0.05 0.15,0.05 0.17,0.04 0.08,0.02 0.09,0.02 0.1,0.02 0.1,0.02 0.1,0.01 0.1,0.02 0.11,0.01 0.12,0.01 0.12,0.02 0.12,0.01 0.13,0.01 0.13,0 0.13,0.01 0.14,0.01 0.15,0.01 0.15,0 0.16,0 0.16,0.01 0.16,0 0.17,0 0.18,0 0.18,0 c 1.19,0 1.6,0 1.6,0.96 0,0.59 -0.55,0.59 -0.75,0.59 -1.46,0 -5.15,-0.16 -6.58,-0.16 -1.5,0 -5.13,0.16 -6.63,0.16 -0.34,0 -1,0 -1,-1 0,-0.55 0.46,-0.55 1.39,-0.55 2.1,0 3.44,0 3.44,-0.95 0,-0.25 0,-0.34 -0.09,-0.8 l -6.72,-26.84 c -0.46,-1.84 -0.61,-2.34 -4.55,-2.34 -1.14,0 -1.59,0 -1.59,-1 0,-0.55 0.61,-0.55 0.75,-0.55 1.45,0 5.08,0.16 6.53,0.16 1.5,0 5.19,-0.16 6.67,-0.16 0.41,0 1,0 1,0.95 0,0.6 -0.41,0.6 -1.5,0.6 -0.89,0 -1.14,0 -2.14,0.09 -1.05,0.11 -1.23,0.3 -1.23,0.84 0,0.41 0.09,0.8 0.18,1.16 z" /></g>    </g>
    <g
       transform="matrix(1.5,0,0,1.5,754.09314,-888.92045)"
       id="g4874">
      <g
         style="font-style:normal;font-variant:normal;font-weight:normal;font-stretch:normal;letter-spacing:normal;word-spacing:normal;text-anchor:start;fill:none;fill-opacity:1;fill-rule:evenodd;stroke:#000000;stroke-linecap:butt;stroke-linejoin:miter;stroke-miterlimit:10.43299961;stroke-dasharray:none;stroke-dashoffset:0;stroke-opacity:1"
         id="g4876"
         transform="matrix(0.53875214,0,0,-0.53875214,-94.281625,890.55495)"
         xml:space="preserve"
         stroke-miterlimit="10.433"
         font-style="normal"
         font-variant="normal"
         font-weight="normal"
         font-stretch="normal"
         font-size-adjust="none"
         letter-spacing="normal"
         word-spacing="normal"><path
           style="fill:#000000;stroke-width:0"
           inkscape:connector-curvature="0"
           d="m 481.38,423.14 0.47,0.11 0.48,0.12 0.48,0.14 0.48,0.15 0.49,0.16 0.48,0.18 0.48,0.19 0.47,0.2 0.47,0.22 0.47,0.23 0.46,0.24 0.45,0.25 0.43,0.27 0.43,0.28 0.42,0.29 0.4,0.3 0.39,0.31 0.37,0.32 0.36,0.34 0.33,0.35 0.32,0.35 0.29,0.37 0.28,0.38 0.25,0.39 0.22,0.4 0.2,0.41 0.17,0.42 0.15,0.43 0.11,0.44 0.08,0.45 0.05,0.46 0.02,0.47 c 0,4.28 -4.48,7.47 -11,7.47 l -14.2,0 c -1,0 -1.45,0 -1.45,-1 0,-0.55 0.45,-0.55 1.4,-0.55 0.1,0 1.05,0 1.89,-0.09 0.89,-0.11 1.35,-0.16 1.35,-0.8 0,-0.2 -0.05,-0.36 -0.21,-0.95 l -6.67,-26.75 c -0.5,-1.95 -0.59,-2.34 -4.53,-2.34 -0.91,0 -1.34,0 -1.34,-1 0,-0.55 0.59,-0.55 0.68,-0.55 1.41,0 4.89,0.16 6.29,0.16 1.39,0 4.93,-0.16 6.32,-0.16 0.41,0 1,0 1,1 0,0.55 -0.45,0.55 -1.39,0.55 -1.84,0 -3.25,0 -3.25,0.89 0,0.29 0.11,0.54 0.16,0.84 l 3.28,13.2 5.94,0 -0.05,1.11 -5.59,0 3.25,13 c 0.29,1.19 0.43,1.69 1.39,1.85 0.45,0.04 2.04,0.04 3.03,0.04 3.55,0 9.08,0 9.08,-4.93 0,-1.69 -0.8,-5.13 -2.75,-7.07 -1.28,-1.29 -3.92,-2.89 -8.41,-2.89 l 0.05,-1.11 c 4.53,0 5.42,-2.78 5.42,-4.53 0,-0.75 -0.39,-2.28 -0.69,-3.44 -0.36,-1.39 -0.79,-3.23 -0.79,-4.23 0,-5.37 5.96,-5.37 6.62,-5.37 4.23,0 5.97,5.03 5.97,5.73 0,0.59 -0.55,0.59 -0.59,0.59 -0.46,0 -0.55,-0.36 -0.65,-0.7 -1.25,-3.69 -3.39,-4.53 -4.54,-4.53 -1.64,0 -1.99,1.09 -1.99,3.05 0,1.53 0.3,4.07 0.5,5.67 0.1,0.7 0.21,1.64 0.21,2.34 0,3.83 -3.35,5.38 -4.69,5.88 z"
           id="path4878" /></g>    </g>
    <g
       id="g5031"
       transform="matrix(1.5,0,0,1.5,407.01201,-690.64858)">
      <g
         word-spacing="normal"
         letter-spacing="normal"
         font-size-adjust="none"
         font-stretch="normal"
         font-weight="normal"
         font-variant="normal"
         font-style="normal"
         stroke-miterlimit="10.433"
         xml:space="preserve"
         transform="matrix(0.53875214,0,0,-0.53875214,-94.281625,890.55495)"
         id="g5033"
         style="font-style:normal;font-variant:normal;font-weight:normal;font-stretch:normal;letter-spacing:normal;word-spacing:normal;text-anchor:start;fill:none;fill-opacity:1;fill-rule:evenodd;stroke:#000000;stroke-linecap:butt;stroke-linejoin:miter;stroke-miterlimit:10.43299961;stroke-dasharray:none;stroke-dashoffset:0;stroke-opacity:1"><path
           id="path5035"
           d="m 493.54,436.39 0.04,0.16 0.04,0.16 0.04,0.15 0.04,0.14 0.04,0.14 0.04,0.13 0.04,0.12 0.05,0.11 0.05,0.11 0.05,0.11 0.06,0.09 0.07,0.09 0.07,0.09 0.08,0.08 0.09,0.07 0.09,0.07 0.11,0.06 0.11,0.06 0.13,0.05 0.14,0.05 0.15,0.04 0.16,0.04 0.09,0.02 0.09,0.02 0.09,0.01 0.1,0.02 0.1,0.01 0.1,0.01 0.11,0.02 0.11,0.01 0.12,0.01 0.12,0 0.13,0.01 0.13,0.01 0.13,0.01 0.14,0 0.14,0 0.15,0.01 0.15,0 0.16,0 0.16,0 0.17,0 c 1.3,0 1.69,0 1.69,1 0,0.55 -0.55,0.55 -0.7,0.55 -1.39,0 -4.97,-0.16 -6.38,-0.16 -1.44,0 -4.98,0.16 -6.42,0.16 -0.39,0 -0.95,0 -0.95,-1 0,-0.55 0.45,-0.55 1.4,-0.55 0.1,0 1.05,0 1.89,-0.09 0.89,-0.11 1.35,-0.16 1.35,-0.8 0,-0.2 -0.05,-0.31 -0.21,-0.95 l -2.98,-12.16 -15.2,0 2.95,11.71 c 0.44,1.79 0.59,2.29 4.17,2.29 1.3,0 1.71,0 1.71,1 0,0.55 -0.55,0.55 -0.71,0.55 -1.39,0 -4.98,-0.16 -6.37,-0.16 -1.44,0 -4.99,0.16 -6.42,0.16 -0.41,0 -0.96,0 -0.96,-1 0,-0.55 0.46,-0.55 1.39,-0.55 0.11,0 1.05,0 1.91,-0.09 0.89,-0.11 1.34,-0.16 1.34,-0.8 0,-0.2 -0.06,-0.36 -0.2,-0.95 l -6.67,-26.75 c -0.5,-1.95 -0.61,-2.34 -4.55,-2.34 -0.89,0 -1.34,0 -1.34,-1 0,-0.55 0.61,-0.55 0.7,-0.55 1.39,0 4.94,0.16 6.33,0.16 1.05,0 2.14,-0.07 3.19,-0.07 1.09,0 2.18,-0.09 3.23,-0.09 0.41,0 1,0 1,1 0,0.55 -0.45,0.55 -1.39,0.55 -1.84,0 -3.23,0 -3.23,0.89 0,0.29 0.09,0.54 0.14,0.84 l 3.39,13.66 15.18,0 c -2.09,-8.27 -3.23,-13 -3.43,-13.75 -0.49,-1.6 -1.44,-1.64 -4.53,-1.64 -0.75,0 -1.19,0 -1.19,-1 0,-0.55 0.59,-0.55 0.69,-0.55 1.4,0 4.93,0.16 6.32,0.16 1.05,0 2.14,-0.07 3.19,-0.07 1.11,0 2.2,-0.09 3.25,-0.09 0.39,0 0.99,0 0.99,1 0,0.55 -0.44,0.55 -1.4,0.55 -1.84,0 -3.23,0 -3.23,0.89 0,0.29 0.09,0.54 0.14,0.84 z"
           inkscape:connector-curvature="0"
           style="fill:#000000;stroke-width:0" /></g>    </g>
    <g
       id="g5191"
       transform="matrix(1.5,0,0,1.5,557.55681,-692.45864)">
      <g
         id="g5193"
         transform="matrix(0.53875214,0,0,-0.53875214,-94.281625,890.55495)"
         xml:space="preserve"
         stroke-miterlimit="10.433"
         font-style="normal"
         font-variant="normal"
         font-weight="normal"
         font-stretch="normal"
         font-size-adjust="none"
         letter-spacing="normal"
         word-spacing="normal"
         style="font-style:normal;font-variant:normal;font-weight:normal;font-stretch:normal;letter-spacing:normal;word-spacing:normal;text-anchor:start;fill:none;fill-opacity:1;fill-rule:evenodd;stroke:#000000;stroke-linecap:butt;stroke-linejoin:miter;stroke-miterlimit:10.43299961;stroke-dasharray:none;stroke-dashoffset:0;stroke-opacity:1"><path
           d="m 493.38,440.82 0,0.02 0,0.02 0,0.01 -0.01,0.02 0,0.02 0,0.02 -0.01,0.02 0,0.02 -0.01,0.02 -0.01,0.02 -0.01,0.02 0,0.02 -0.02,0.02 -0.01,0.02 -0.01,0.02 -0.01,0.02 -0.02,0.02 -0.02,0.02 -0.02,0.02 -0.02,0.02 -0.02,0.01 -0.02,0.02 -0.03,0.01 -0.02,0.02 -0.03,0.01 -0.01,0.01 -0.02,0 -0.01,0.01 -0.02,0 -0.02,0.01 -0.01,0 -0.02,0 -0.02,0.01 -0.02,0 -0.02,0 -0.02,0 -0.02,0 -0.02,0 -0.02,0 c -0.14,0 -0.2,-0.04 -0.75,-0.59 l -3.48,-3.84 c -0.44,0.7 -2.74,4.43 -8.27,4.43 -11.11,0 -22.33,-11.01 -22.33,-22.56 0,-8.23 5.89,-13.65 13.52,-13.65 4.33,0 8.11,1.98 10.75,4.28 4.64,4.09 5.48,8.62 5.48,8.76 0,0.5 -0.5,0.5 -0.59,0.5 -0.3,0 -0.55,-0.09 -0.66,-0.5 -0.43,-1.44 -1.59,-4.98 -5.03,-7.87 -3.43,-2.78 -6.58,-3.63 -9.15,-3.63 -4.49,0 -9.77,2.6 -9.77,10.36 0,2.85 1.05,10.91 6.02,16.74 3.04,3.54 7.73,6.03 12.15,6.03 5.1,0 8.03,-3.83 8.03,-9.61 0,-2 -0.15,-2.05 -0.15,-2.55 0,-0.5 0.54,-0.5 0.75,-0.5 0.64,0 0.64,0.11 0.89,1 z"
           id="path5195"
           inkscape:connector-curvature="0"
           style="fill:#000000;stroke-width:0" /><path
           d="m 515.19,441.67 0.01,0.03 0.01,0.03 0.01,0.03 0.01,0.03 0.02,0.02 0,0.03 0.01,0.03 0.01,0.02 0.02,0.05 0.02,0.05 0.01,0.04 0.02,0.05 0.01,0.04 0.01,0.04 0.01,0.03 0.01,0.04 0.01,0.03 0.01,0.03 0,0.03 0.01,0.02 0.01,0.03 0,0.02 0,0.02 0.01,0.02 0,0.02 0,0.02 0.01,0.01 0,0.02 0,0.01 0,0.01 0,0.01 0,0.01 0,0.01 0,0.01 0,0.01 0,0 c 0,0.55 -0.45,0.99 -1,0.99 -0.34,0 -0.7,-0.14 -0.84,-0.44 l -17.3,-47.48 c -0.25,-0.64 -0.25,-0.85 -0.25,-0.89 0,-0.55 0.45,-1 1,-1 0.66,0 0.8,0.34 1.09,1.18 z"
           id="path5197"
           inkscape:connector-curvature="0"
           style="fill:#000000;stroke-width:0" /><path
           d="m 555.15,427.92 -0.02,0.74 -0.04,0.73 -0.08,0.71 -0.1,0.7 -0.14,0.68 -0.16,0.66 -0.19,0.64 -0.21,0.62 -0.25,0.6 -0.26,0.59 -0.3,0.56 -0.32,0.54 -0.34,0.52 -0.36,0.5 -0.39,0.47 -0.41,0.45 -0.43,0.43 -0.46,0.41 -0.47,0.38 -0.5,0.35 -0.51,0.33 -0.53,0.3 -0.56,0.28 -0.57,0.25 -0.58,0.22 -0.6,0.2 -0.62,0.16 -0.64,0.14 -0.65,0.1 -0.66,0.08 -0.68,0.05 -0.69,0.01 -0.3,-1.25 c 4.1,0 8.58,-2.78 8.58,-10.2 0,-3.59 -1.34,-11.36 -6.28,-17.5 -2.39,-3.03 -6.48,-5.97 -10.66,-5.97 l 0,0 c -4.93,0 -8.42,4.03 -8.42,10.61 0,2.19 0.69,9.47 4.53,15.3 3.44,5.17 8.32,7.76 12.25,7.76 l 0.3,1.25 c -10.75,0 -21.72,-11.31 -21.72,-22.92 0,-8.26 5.58,-13.29 12.77,-13.29 10.54,0 21.67,10.9 21.67,22.81 z"
           id="path5199"
           inkscape:connector-curvature="0"
           style="fill:#000000;stroke-width:0" /></g>    </g>
    <g
       id="g5365"
       transform="matrix(1.5,0,0,1.5,755.01989,-690.64858)">
      <g
         word-spacing="normal"
         letter-spacing="normal"
         font-size-adjust="none"
         font-stretch="normal"
         font-weight="normal"
         font-variant="normal"
         font-style="normal"
         stroke-miterlimit="10.433"
         xml:space="preserve"
         transform="matrix(0.53875214,0,0,-0.53875214,-94.281625,890.55495)"
         id="g5367"
         style="font-style:normal;font-variant:normal;font-weight:normal;font-stretch:normal;letter-spacing:normal;word-spacing:normal;text-anchor:start;fill:none;fill-opacity:1;fill-rule:evenodd;stroke:#000000;stroke-linecap:butt;stroke-linejoin:miter;stroke-miterlimit:10.43299961;stroke-dasharray:none;stroke-dashoffset:0;stroke-opacity:1"><path
           id="path5369"
           d="m 463.44,410.09 -0.04,-0.18 -0.05,-0.17 -0.04,-0.16 -0.05,-0.15 -0.04,-0.15 -0.05,-0.13 -0.04,-0.13 -0.05,-0.12 -0.06,-0.11 -0.06,-0.11 -0.06,-0.1 -0.07,-0.09 -0.08,-0.09 -0.09,-0.07 -0.09,-0.08 -0.11,-0.06 -0.11,-0.07 -0.12,-0.05 -0.14,-0.05 -0.15,-0.05 -0.16,-0.04 -0.09,-0.02 -0.08,-0.01 -0.1,-0.02 -0.1,-0.02 -0.1,-0.01 -0.1,-0.01 -0.11,-0.01 -0.11,-0.02 -0.12,-0.01 -0.12,-0.01 -0.13,0 -0.13,-0.01 -0.13,-0.01 -0.15,0 -0.14,-0.01 -0.15,0 -0.16,-0.01 -0.16,0 -0.16,0 -0.17,0 -0.18,0 -0.18,0 c -0.84,0 -1.39,0 -1.39,-0.96 0,-0.59 0.44,-0.59 1.39,-0.59 l 16.48,0 -0.89,1.55 -5.62,0 c -0.7,0 -0.8,0 -1.11,0.04 -0.48,0.05 -0.64,0.1 -0.64,0.5 0,0.14 0,0.25 0.25,1.14 l 6.83,27.36 c 0.43,1.74 0.54,1.89 2.68,1.89 l 5.33,0 c 4.89,0 9.02,-2.64 9.02,-9.22 0,-2.43 -1,-10.6 -5.24,-16.09 -1.43,-1.84 -5.37,-5.62 -11.5,-5.62 l 0.89,-1.55 c 10.36,0 20.19,10.51 20.19,21.42 0,7.03 -4.23,12.61 -11.72,12.61 l -16.73,0 c -0.95,0 -1.5,0 -1.5,-0.95 0,-0.6 0.45,-0.6 1.45,-0.6 0.64,0 1.55,-0.04 2.14,-0.09 0.8,-0.11 1.1,-0.25 1.1,-0.8 0,-0.2 -0.05,-0.36 -0.21,-0.95 z"
           inkscape:connector-curvature="0"
           style="fill:#000000;stroke-width:0" /></g>    </g>
  </g>
</svg>
