<?xml version="1.0" encoding="UTF-8" standalone="no"?>
<!-- Created with Inkscape (http://www.inkscape.org/) -->

<svg
   xmlns:dc="http://purl.org/dc/elements/1.1/"
   xmlns:cc="http://creativecommons.org/ns#"
   xmlns:rdf="http://www.w3.org/1999/02/22-rdf-syntax-ns#"
   xmlns:svg="http://www.w3.org/2000/svg"
   xmlns="http://www.w3.org/2000/svg"
   xmlns:sodipodi="http://sodipodi.sourceforge.net/DTD/sodipodi-0.dtd"
   xmlns:inkscape="http://www.inkscape.org/namespaces/inkscape"
   width="244.74152mm"
   height="83.016739mm"
   viewBox="0 0 867.19435 294.1538"
   id="svg2"
   version="1.1"
   inkscape:version="0.91 r13725"
   sodipodi:docname="model_sketch.svg">
  <sodipodi:namedview
     id="base"
     pagecolor="#ffffff"
     bordercolor="#666666"
     borderopacity="1.0"
     inkscape:pageopacity="0.0"
     inkscape:pageshadow="2"
     inkscape:zoom="2.16"
     inkscape:cx="533.0581"
     inkscape:cy="74.716474"
     inkscape:document-units="px"
     inkscape:current-layer="layer1"
     showgrid="false"
     inkscape:window-width="3840"
     inkscape:window-height="2121"
     inkscape:window-x="0"
     inkscape:window-y="39"
     inkscape:window-maximized="1"
     fit-margin-top="0"
     fit-margin-left="0"
     fit-margin-right="0"
     fit-margin-bottom="0" />
  <defs
     id="defs4">
    <marker
       inkscape:stockid="Arrow1Mend"
       orient="auto"
       refY="0"
       refX="0"
       id="marker4792"
       style="overflow:visible"
       inkscape:isstock="true">
      <path
         inkscape:connector-curvature="0"
         id="path4794"
         d="M 0,0 5,-5 -12.5,0 5,5 0,0 Z"
         style="fill:#808080;fill-opacity:1;fill-rule:evenodd;stroke:#808080;stroke-width:1pt;stroke-opacity:1"
         transform="matrix(-0.4,0,0,-0.4,-4,0)" />
    </marker>
    <marker
       inkscape:stockid="Arrow1Mend"
       orient="auto"
       refY="0"
       refX="0"
       id="marker4782"
       style="overflow:visible"
       inkscape:isstock="true">
      <path
         inkscape:connector-curvature="0"
         id="path4784"
         d="M 0,0 5,-5 -12.5,0 5,5 0,0 Z"
         style="fill:#808080;fill-opacity:1;fill-rule:evenodd;stroke:#808080;stroke-width:1pt;stroke-opacity:1"
         transform="matrix(-0.4,0,0,-0.4,-4,0)" />
    </marker>
    <marker
       inkscape:isstock="true"
       style="overflow:visible"
       id="marker5474"
       refX="0"
       refY="0"
       orient="auto"
       inkscape:stockid="Arrow1Mend">
      <path
         transform="matrix(-0.4,0,0,-0.4,-4,0)"
         style="fill:#808080;fill-opacity:1;fill-rule:evenodd;stroke:#808080;stroke-width:1pt;stroke-opacity:1"
         d="M 0,0 5,-5 -12.5,0 5,5 0,0 Z"
         id="path5476"
         inkscape:connector-curvature="0" />
    </marker>
    <marker
       inkscape:isstock="true"
       style="overflow:visible"
       id="marker5464"
       refX="0"
       refY="0"
       orient="auto"
       inkscape:stockid="Arrow1Mend">
      <path
         transform="matrix(-0.4,0,0,-0.4,-4,0)"
         style="fill:#808080;fill-opacity:1;fill-rule:evenodd;stroke:#808080;stroke-width:1pt;stroke-opacity:1"
         d="M 0,0 5,-5 -12.5,0 5,5 0,0 Z"
         id="path5466"
         inkscape:connector-curvature="0" />
    </marker>
    <marker
       inkscape:isstock="true"
       style="overflow:visible"
       id="marker5454"
       refX="0"
       refY="0"
       orient="auto"
       inkscape:stockid="Arrow1Mend">
      <path
         transform="matrix(-0.4,0,0,-0.4,-4,0)"
         style="fill:#808080;fill-opacity:1;fill-rule:evenodd;stroke:#808080;stroke-width:1pt;stroke-opacity:1"
         d="M 0,0 5,-5 -12.5,0 5,5 0,0 Z"
         id="path5456"
         inkscape:connector-curvature="0" />
    </marker>
    <marker
       inkscape:isstock="true"
       style="overflow:visible"
       id="marker5444"
       refX="0"
       refY="0"
       orient="auto"
       inkscape:stockid="Arrow1Mend"
       inkscape:collect="always">
      <path
         transform="matrix(-0.4,0,0,-0.4,-4,0)"
         style="fill:#808080;fill-opacity:1;fill-rule:evenodd;stroke:#808080;stroke-width:1pt;stroke-opacity:1"
         d="M 0,0 5,-5 -12.5,0 5,5 0,0 Z"
         id="path5446"
         inkscape:connector-curvature="0" />
    </marker>
    <marker
       inkscape:isstock="true"
       style="overflow:visible"
       id="marker5434"
       refX="0"
       refY="0"
       orient="auto"
       inkscape:stockid="Arrow1Mend">
      <path
         transform="matrix(-0.4,0,0,-0.4,-4,0)"
         style="fill:#808080;fill-opacity:1;fill-rule:evenodd;stroke:#808080;stroke-width:1pt;stroke-opacity:1"
         d="M 0,0 5,-5 -12.5,0 5,5 0,0 Z"
         id="path5436"
         inkscape:connector-curvature="0" />
    </marker>
    <marker
       inkscape:isstock="true"
       style="overflow:visible"
       id="marker5424"
       refX="0"
       refY="0"
       orient="auto"
       inkscape:stockid="Arrow1Mend">
      <path
         transform="matrix(-0.4,0,0,-0.4,-4,0)"
         style="fill:#808080;fill-opacity:1;fill-rule:evenodd;stroke:#808080;stroke-width:1pt;stroke-opacity:1"
         d="M 0,0 5,-5 -12.5,0 5,5 0,0 Z"
         id="path5426"
         inkscape:connector-curvature="0" />
    </marker>
    <marker
       inkscape:isstock="true"
       style="overflow:visible"
       id="marker5474-4"
       refX="0"
       refY="0"
       orient="auto"
       inkscape:stockid="Arrow1Mend">
      <path
         transform="matrix(-0.4,0,0,-0.4,-4,0)"
         style="fill:#808080;fill-opacity:1;fill-rule:evenodd;stroke:#808080;stroke-width:1pt;stroke-opacity:1"
         d="M 0,0 5,-5 -12.5,0 5,5 0,0 Z"
         id="path5476-1"
         inkscape:connector-curvature="0" />
    </marker>
  </defs>
  <metadata
     id="metadata7">
    <rdf:RDF>
      <cc:Work
         rdf:about="">
        <dc:format>image/svg+xml</dc:format>
        <dc:type
           rdf:resource="http://purl.org/dc/dcmitype/StillImage" />
        <dc:title></dc:title>
      </cc:Work>
    </rdf:RDF>
  </metadata>
  <g
     id="layer1"
     inkscape:groupmode="layer"
     inkscape:label="Layer 1"
     transform="translate(-41.41702,-56.732346)">
    <rect
       rx="15.277778"
       ry="15.277778"
       y="58.932339"
       x="43.61702"
       height="91.489365"
       width="91.489365"
       id="rect4136"
       style="opacity:1;fill:none;fill-opacity:1;stroke:#666666;stroke-width:4.4000001;stroke-linecap:round;stroke-linejoin:round;stroke-miterlimit:4;stroke-dasharray:none;stroke-dashoffset:0;stroke-opacity:1" />
    <rect
       ry="15.277778"
       y="58.932339"
       x="240.26192"
       height="91.489365"
       width="91.489365"
       id="rect4136-9"
       style="opacity:1;fill:none;fill-opacity:1;stroke:#666666;stroke-width:4.4000001;stroke-linecap:round;stroke-linejoin:round;stroke-miterlimit:4;stroke-dasharray:none;stroke-dashoffset:0;stroke-opacity:1"
       rx="15.277778" />
    <rect
       ry="15.277778"
       y="58.932339"
       x="436.90677"
       height="91.489365"
       width="91.489365"
       id="rect4136-1"
       style="opacity:1;fill:none;fill-opacity:1;stroke:#666666;stroke-width:4.4000001;stroke-linecap:round;stroke-linejoin:round;stroke-miterlimit:4;stroke-dasharray:none;stroke-dashoffset:0;stroke-opacity:1"
       rx="15.277778" />
    <rect
       ry="15.277778"
       y="58.932339"
       x="811.40344"
       height="91.489365"
       width="91.489365"
       id="rect4136-11"
       style="opacity:1;fill:none;fill-opacity:1;stroke:#666666;stroke-width:4.4000001;stroke-linecap:round;stroke-linejoin:round;stroke-miterlimit:4;stroke-dasharray:none;stroke-dashoffset:0;stroke-opacity:1"
       rx="15.277778" />
    <g
       id="g4174"
       transform="translate(-227.01852,-235.18519)">
      <g
         word-spacing="normal"
         letter-spacing="normal"
         font-size-adjust="none"
         font-stretch="normal"
         font-weight="normal"
         font-variant="normal"
         font-style="normal"
         stroke-miterlimit="10.433"
         xml:space="preserve"
         transform="matrix(1.0629921,0,0,-1.0629921,-186.02362,789.27165)"
         id="content"
         style="font-style:normal;font-variant:normal;font-weight:normal;font-stretch:normal;letter-spacing:normal;word-spacing:normal;text-anchor:start;fill:none;fill-opacity:1;fill-rule:evenodd;stroke:#000000;stroke-linecap:butt;stroke-linejoin:miter;stroke-miterlimit:10.43299961;stroke-dasharray:none;stroke-dashoffset:0;stroke-opacity:1"><path
           id="path4177"
           d="m 487.66,440.82 0,0.02 0,0.02 0,0.01 -0.01,0.02 0,0.02 0,0.02 -0.01,0.02 0,0.02 -0.01,0.02 -0.01,0.02 -0.01,0.02 -0.01,0.02 -0.01,0.02 -0.01,0.02 -0.01,0.02 -0.02,0.02 -0.02,0.02 -0.01,0.02 -0.02,0.02 -0.02,0.02 -0.02,0.01 -0.03,0.02 -0.02,0.01 -0.03,0.02 -0.02,0.01 -0.03,0.01 -0.02,0.01 -0.01,0 -0.02,0.01 -0.02,0 -0.01,0 -0.02,0.01 -0.02,0 -0.02,0 -0.02,0 -0.02,0 -0.02,0 -0.02,0 c -0.25,0 -0.31,-0.04 -0.9,-0.75 l -2.39,-2.84 c -1.3,2.34 -3.89,3.59 -7.13,3.59 -6.33,0 -12.3,-5.73 -12.3,-11.76 0,-4.03 2.65,-6.33 5.18,-7.06 l 5.32,-1.41 c 1.85,-0.44 4.6,-1.19 4.6,-5.28 0,-4.49 -4.1,-9.16 -8.97,-9.16 -3.19,0 -8.72,1.1 -8.72,7.27 0,1.2 0.25,2.39 0.3,2.69 0.04,0.2 0.09,0.25 0.09,0.35 0,0.5 -0.34,0.55 -0.59,0.55 -0.25,0 -0.35,-0.05 -0.5,-0.2 -0.21,-0.2 -2.99,-11.56 -2.99,-11.7 0,-0.3 0.25,-0.5 0.55,-0.5 0.25,0 0.3,0.04 0.89,0.75 l 2.45,2.82 c 2.14,-2.89 5.52,-3.57 8.41,-3.57 6.78,0 12.66,6.62 12.66,12.79 0,3.44 -1.69,5.14 -2.44,5.83 -1.14,1.16 -1.89,1.34 -6.33,2.5 -1.09,0.3 -2.89,0.8 -3.34,0.89 -1.35,0.45 -3.03,1.89 -3.03,4.53 0,4.05 3.98,8.28 8.71,8.28 4.15,0 7.18,-2.14 7.18,-7.73 0,-1.59 -0.21,-2.49 -0.21,-2.78 0,-0.05 0,-0.5 0.61,-0.5 0.5,0 0.55,0.15 0.74,1 z"
           inkscape:connector-curvature="0"
           style="fill:#000000;stroke-width:0" /></g>    </g>
    <g
       id="g4201"
       transform="translate(-36.268914,-234.02653)">
      <g
         id="g4203"
         transform="matrix(1.0629921,0,0,-1.0629921,-186.02362,789.27165)"
         xml:space="preserve"
         stroke-miterlimit="10.433"
         font-style="normal"
         font-variant="normal"
         font-weight="normal"
         font-stretch="normal"
         font-size-adjust="none"
         letter-spacing="normal"
         word-spacing="normal"
         style="font-style:normal;font-variant:normal;font-weight:normal;font-stretch:normal;letter-spacing:normal;word-spacing:normal;text-anchor:start;fill:none;fill-opacity:1;fill-rule:evenodd;stroke:#000000;stroke-linecap:butt;stroke-linejoin:miter;stroke-miterlimit:10.43299961;stroke-dasharray:none;stroke-dashoffset:0;stroke-opacity:1"><path
           d="m 490.8,417.81 0.01,0.02 0.01,0.03 0.02,0.05 0.02,0.05 0.02,0.05 0.02,0.05 0.02,0.05 0.02,0.05 0.01,0.05 0.01,0.03 0.01,0.02 0.01,0.02 0.01,0.03 0,0.02 0.01,0.02 0.01,0.02 0,0.02 0.01,0.02 0,0.02 0.01,0.01 0,0.02 0,0.02 0,0.01 0,0.01 0.01,0.01 c 0,0.05 0,0.55 -0.6,0.55 -0.45,0 -0.55,-0.3 -0.64,-0.61 -3.25,-7.38 -5.08,-10.7 -13.61,-10.7 l -7.26,0 c -0.71,0 -0.8,0 -1.1,0.04 -0.5,0.05 -0.65,0.1 -0.65,0.5 0,0.14 0,0.25 0.25,1.14 l 3.39,13.61 4.93,0 c 4.24,0 4.24,-1.04 4.24,-2.29 0,-0.35 0,-0.96 -0.36,-2.44 -0.09,-0.25 -0.14,-0.41 -0.14,-0.55 0,-0.25 0.19,-0.55 0.64,-0.55 0.41,0 0.55,0.25 0.75,0.99 l 2.84,11.67 c 0,0.3 -0.25,0.55 -0.61,0.55 -0.43,0 -0.54,-0.3 -0.68,-0.91 -1.05,-3.78 -1.96,-4.92 -6.54,-4.92 l -4.68,0 3,12 c 0.43,1.75 0.5,1.94 2.68,1.94 l 7.02,0 c 6.08,0 7.58,-1.44 7.58,-5.53 0,-1.19 0,-1.29 -0.2,-2.64 0,-0.3 -0.05,-0.65 -0.05,-0.9 0,-0.25 0.15,-0.59 0.59,-0.59 0.56,0 0.61,0.3 0.71,1.25 l 1,8.61 c 0.14,1.34 -0.1,1.34 -1.35,1.34 l -25.15,0 c -1,0 -1.5,0 -1.5,-1 0,-0.54 0.45,-0.54 1.39,-0.54 1.84,0 3.23,0 3.23,-0.89 0,-0.21 0,-0.3 -0.25,-1.21 l -6.56,-26.34 c -0.5,-1.95 -0.61,-2.34 -4.55,-2.34 -0.84,0 -1.39,0 -1.39,-0.96 0,-0.59 0.45,-0.59 1.39,-0.59 l 25.86,0 c 1.16,0 1.2,0.05 1.55,0.84 z"
           id="path4205"
           inkscape:connector-curvature="0"
           style="fill:#000000;stroke-width:0" /></g>    </g>
    <g
       id="g4235"
       transform="translate(168.42016,-234.02653)">
      <g
         word-spacing="normal"
         letter-spacing="normal"
         font-size-adjust="none"
         font-stretch="normal"
         font-weight="normal"
         font-variant="normal"
         font-style="normal"
         stroke-miterlimit="10.433"
         xml:space="preserve"
         transform="matrix(1.0629921,0,0,-1.0629921,-186.02362,789.27165)"
         id="g4237"
         style="font-style:normal;font-variant:normal;font-weight:normal;font-stretch:normal;letter-spacing:normal;word-spacing:normal;text-anchor:start;fill:none;fill-opacity:1;fill-rule:evenodd;stroke:#000000;stroke-linecap:butt;stroke-linejoin:miter;stroke-miterlimit:10.43299961;stroke-dasharray:none;stroke-dashoffset:0;stroke-opacity:1"><path
           id="path4239"
           d="m 474.16,436.39 0.04,0.16 0.04,0.16 0.04,0.15 0.04,0.14 0.04,0.14 0.04,0.13 0.05,0.12 0.05,0.11 0.05,0.11 0.06,0.11 0.07,0.09 0.07,0.09 0.08,0.09 0.08,0.08 0.1,0.07 0.1,0.07 0.12,0.06 0.12,0.06 0.14,0.05 0.15,0.05 0.17,0.04 0.08,0.02 0.09,0.02 0.1,0.02 0.1,0.02 0.1,0.01 0.1,0.02 0.11,0.01 0.12,0.01 0.12,0.02 0.12,0.01 0.13,0.01 0.13,0 0.13,0.01 0.14,0.01 0.15,0.01 0.15,0 0.16,0 0.16,0.01 0.16,0 0.17,0 0.18,0 0.18,0 c 1.19,0 1.6,0 1.6,0.96 0,0.59 -0.55,0.59 -0.75,0.59 -1.46,0 -5.15,-0.16 -6.58,-0.16 -1.5,0 -5.13,0.16 -6.63,0.16 -0.34,0 -1,0 -1,-1 0,-0.55 0.46,-0.55 1.39,-0.55 2.1,0 3.44,0 3.44,-0.95 0,-0.25 0,-0.34 -0.09,-0.8 l -6.72,-26.84 c -0.46,-1.84 -0.61,-2.34 -4.55,-2.34 -1.14,0 -1.59,0 -1.59,-1 0,-0.55 0.61,-0.55 0.75,-0.55 1.45,0 5.08,0.16 6.53,0.16 1.5,0 5.19,-0.16 6.67,-0.16 0.41,0 1,0 1,0.95 0,0.6 -0.41,0.6 -1.5,0.6 -0.89,0 -1.14,0 -2.14,0.09 -1.05,0.11 -1.23,0.3 -1.23,0.84 0,0.41 0.09,0.8 0.18,1.16 z"
           inkscape:connector-curvature="0"
           style="fill:#000000;stroke-width:0" /></g>    </g>
    <g
       id="g4275"
       transform="translate(536.77777,-235.18519)">
      <g
         id="g4277"
         transform="matrix(1.0629921,0,0,-1.0629921,-186.02362,789.27165)"
         xml:space="preserve"
         stroke-miterlimit="10.433"
         font-style="normal"
         font-variant="normal"
         font-weight="normal"
         font-stretch="normal"
         font-size-adjust="none"
         letter-spacing="normal"
         word-spacing="normal"
         style="font-style:normal;font-variant:normal;font-weight:normal;font-stretch:normal;letter-spacing:normal;word-spacing:normal;text-anchor:start;fill:none;fill-opacity:1;fill-rule:evenodd;stroke:#000000;stroke-linecap:butt;stroke-linejoin:miter;stroke-miterlimit:10.43299961;stroke-dasharray:none;stroke-dashoffset:0;stroke-opacity:1"><path
           d="m 481.38,423.14 0.47,0.11 0.48,0.12 0.48,0.14 0.48,0.15 0.49,0.16 0.48,0.18 0.48,0.19 0.47,0.2 0.47,0.22 0.47,0.23 0.46,0.24 0.45,0.25 0.43,0.27 0.43,0.28 0.42,0.29 0.4,0.3 0.39,0.31 0.37,0.32 0.36,0.34 0.33,0.35 0.32,0.35 0.29,0.37 0.28,0.38 0.25,0.39 0.22,0.4 0.2,0.41 0.17,0.42 0.15,0.43 0.11,0.44 0.08,0.45 0.05,0.46 0.02,0.47 c 0,4.28 -4.48,7.47 -11,7.47 l -14.2,0 c -1,0 -1.45,0 -1.45,-1 0,-0.55 0.45,-0.55 1.4,-0.55 0.1,0 1.05,0 1.89,-0.09 0.89,-0.11 1.35,-0.16 1.35,-0.8 0,-0.2 -0.05,-0.36 -0.21,-0.95 l -6.67,-26.75 c -0.5,-1.95 -0.59,-2.34 -4.53,-2.34 -0.91,0 -1.34,0 -1.34,-1 0,-0.55 0.59,-0.55 0.68,-0.55 1.41,0 4.89,0.16 6.29,0.16 1.39,0 4.93,-0.16 6.32,-0.16 0.41,0 1,0 1,1 0,0.55 -0.45,0.55 -1.39,0.55 -1.84,0 -3.25,0 -3.25,0.89 0,0.29 0.11,0.54 0.16,0.84 l 3.28,13.2 5.94,0 -0.05,1.11 -5.59,0 3.25,13 c 0.29,1.19 0.43,1.69 1.39,1.85 0.45,0.04 2.04,0.04 3.03,0.04 3.55,0 9.08,0 9.08,-4.93 0,-1.69 -0.8,-5.13 -2.75,-7.07 -1.28,-1.29 -3.92,-2.89 -8.41,-2.89 l 0.05,-1.11 c 4.53,0 5.42,-2.78 5.42,-4.53 0,-0.75 -0.39,-2.28 -0.69,-3.44 -0.36,-1.39 -0.79,-3.23 -0.79,-4.23 0,-5.37 5.96,-5.37 6.62,-5.37 4.23,0 5.97,5.03 5.97,5.73 0,0.59 -0.55,0.59 -0.59,0.59 -0.46,0 -0.55,-0.36 -0.65,-0.7 -1.25,-3.69 -3.39,-4.53 -4.54,-4.53 -1.64,0 -1.99,1.09 -1.99,3.05 0,1.53 0.3,4.07 0.5,5.67 0.1,0.7 0.21,1.64 0.21,2.34 0,3.83 -3.35,5.38 -4.69,5.88 z"
           id="path4279"
           inkscape:connector-curvature="0"
           style="fill:#000000;stroke-width:0" /></g>    </g>
    <path
       style="fill:none;fill-rule:evenodd;stroke:#808080;stroke-width:2;stroke-linecap:round;stroke-linejoin:miter;stroke-miterlimit:4;stroke-dasharray:none;stroke-opacity:1;marker-end:url(#marker5474)"
       d="m 149.87037,107.62144 73.61111,0"
       id="path5132"
       inkscape:connector-curvature="0" />
    <path
       style="fill:none;fill-rule:evenodd;stroke:#808080;stroke-width:2;stroke-linecap:round;stroke-linejoin:miter;stroke-miterlimit:4;stroke-dasharray:none;stroke-opacity:1;marker-end:url(#marker5424)"
       d="m 543.94978,108.10292 247.15599,0"
       id="path5140"
       inkscape:connector-curvature="0" />
    <rect
       ry="15.277778"
       y="257.19678"
       x="605.21826"
       height="91.489365"
       width="91.489365"
       id="rect4136-11-9"
       style="opacity:1;fill:none;fill-opacity:1;stroke:#666666;stroke-width:4.4000001;stroke-linecap:round;stroke-linejoin:round;stroke-miterlimit:4;stroke-dasharray:none;stroke-dashoffset:0;stroke-opacity:1"
       rx="15.277778" />
    <rect
       ry="15.277778"
       y="254.90048"
       x="814.922"
       height="91.489365"
       width="91.489365"
       id="rect4136-11-9-2"
       style="opacity:1;fill:none;fill-opacity:1;stroke:#666666;stroke-width:4.4000001;stroke-linecap:round;stroke-linejoin:round;stroke-miterlimit:4;stroke-dasharray:none;stroke-dashoffset:0;stroke-opacity:1"
       rx="15.277778" />
    <g
       id="g4576"
       transform="matrix(3.6,0,0,3.6,559.58936,-1143.2137)">
      <g
         id="g4578"
         transform="matrix(0.27566913,0,0,-0.27566913,-48.242099,517.61131)"
         xml:space="preserve"
         stroke-miterlimit="10.433"
         font-style="normal"
         font-variant="normal"
         font-weight="normal"
         font-stretch="normal"
         font-size-adjust="none"
         letter-spacing="normal"
         word-spacing="normal"
         style="font-style:normal;font-variant:normal;font-weight:normal;font-stretch:normal;letter-spacing:normal;word-spacing:normal;text-anchor:start;fill:none;fill-opacity:1;fill-rule:evenodd;stroke:#000000;stroke-linecap:butt;stroke-linejoin:miter;stroke-miterlimit:10.43299961;stroke-dasharray:none;stroke-dashoffset:0;stroke-opacity:1"><path
           d="m 463.44,410.09 -0.04,-0.18 -0.05,-0.17 -0.04,-0.16 -0.05,-0.15 -0.04,-0.15 -0.05,-0.13 -0.04,-0.13 -0.05,-0.12 -0.06,-0.11 -0.06,-0.11 -0.06,-0.1 -0.07,-0.09 -0.08,-0.09 -0.09,-0.07 -0.09,-0.08 -0.11,-0.06 -0.11,-0.07 -0.12,-0.05 -0.14,-0.05 -0.15,-0.05 -0.16,-0.04 -0.09,-0.02 -0.08,-0.01 -0.1,-0.02 -0.1,-0.02 -0.1,-0.01 -0.1,-0.01 -0.11,-0.01 -0.11,-0.02 -0.12,-0.01 -0.12,-0.01 -0.13,0 -0.13,-0.01 -0.13,-0.01 -0.15,0 -0.14,-0.01 -0.15,0 -0.16,-0.01 -0.16,0 -0.16,0 -0.17,0 -0.18,0 -0.18,0 c -0.84,0 -1.39,0 -1.39,-0.96 0,-0.59 0.44,-0.59 1.39,-0.59 l 16.48,0 -0.89,1.55 -5.62,0 c -0.7,0 -0.8,0 -1.11,0.04 -0.48,0.05 -0.64,0.1 -0.64,0.5 0,0.14 0,0.25 0.25,1.14 l 6.83,27.36 c 0.43,1.74 0.54,1.89 2.68,1.89 l 5.33,0 c 4.89,0 9.02,-2.64 9.02,-9.22 0,-2.43 -1,-10.6 -5.24,-16.09 -1.43,-1.84 -5.37,-5.62 -11.5,-5.62 l 0.89,-1.55 c 10.36,0 20.19,10.51 20.19,21.42 0,7.03 -4.23,12.61 -11.72,12.61 l -16.73,0 c -0.95,0 -1.5,0 -1.5,-0.95 0,-0.6 0.45,-0.6 1.45,-0.6 0.64,0 1.55,-0.04 2.14,-0.09 0.8,-0.11 1.1,-0.25 1.1,-0.8 0,-0.2 -0.05,-0.36 -0.21,-0.95 z"
           id="path4580"
           inkscape:connector-curvature="0"
           style="fill:#000000;stroke-width:0" /></g>    </g>
    <g
       id="g4698"
       transform="matrix(3.6,0,0,3.6,349.29385,-1138.1396)">
      <g
         word-spacing="normal"
         letter-spacing="normal"
         font-size-adjust="none"
         font-stretch="normal"
         font-weight="normal"
         font-variant="normal"
         font-style="normal"
         stroke-miterlimit="10.433"
         xml:space="preserve"
         transform="matrix(0.27566913,0,0,-0.27566913,-48.242099,517.61131)"
         id="g4700"
         style="font-style:normal;font-variant:normal;font-weight:normal;font-stretch:normal;letter-spacing:normal;word-spacing:normal;text-anchor:start;fill:none;fill-opacity:1;fill-rule:evenodd;stroke:#000000;stroke-linecap:butt;stroke-linejoin:miter;stroke-miterlimit:10.43299961;stroke-dasharray:none;stroke-dashoffset:0;stroke-opacity:1"><path
           id="path4702"
           d="m 493.54,436.39 0.04,0.16 0.04,0.16 0.04,0.15 0.04,0.14 0.04,0.14 0.04,0.13 0.04,0.12 0.05,0.11 0.05,0.11 0.05,0.11 0.06,0.09 0.07,0.09 0.07,0.09 0.08,0.08 0.09,0.07 0.09,0.07 0.11,0.06 0.11,0.06 0.13,0.05 0.14,0.05 0.15,0.04 0.16,0.04 0.09,0.02 0.09,0.02 0.09,0.01 0.1,0.02 0.1,0.01 0.1,0.01 0.11,0.02 0.11,0.01 0.12,0.01 0.12,0 0.13,0.01 0.13,0.01 0.13,0.01 0.14,0 0.14,0 0.15,0.01 0.15,0 0.16,0 0.16,0 0.17,0 c 1.3,0 1.69,0 1.69,1 0,0.55 -0.55,0.55 -0.7,0.55 -1.39,0 -4.97,-0.16 -6.38,-0.16 -1.44,0 -4.98,0.16 -6.42,0.16 -0.39,0 -0.95,0 -0.95,-1 0,-0.55 0.45,-0.55 1.4,-0.55 0.1,0 1.05,0 1.89,-0.09 0.89,-0.11 1.35,-0.16 1.35,-0.8 0,-0.2 -0.05,-0.31 -0.21,-0.95 l -2.98,-12.16 -15.2,0 2.95,11.71 c 0.44,1.79 0.59,2.29 4.17,2.29 1.3,0 1.71,0 1.71,1 0,0.55 -0.55,0.55 -0.71,0.55 -1.39,0 -4.98,-0.16 -6.37,-0.16 -1.44,0 -4.99,0.16 -6.42,0.16 -0.41,0 -0.96,0 -0.96,-1 0,-0.55 0.46,-0.55 1.39,-0.55 0.11,0 1.05,0 1.91,-0.09 0.89,-0.11 1.34,-0.16 1.34,-0.8 0,-0.2 -0.06,-0.36 -0.2,-0.95 l -6.67,-26.75 c -0.5,-1.95 -0.61,-2.34 -4.55,-2.34 -0.89,0 -1.34,0 -1.34,-1 0,-0.55 0.61,-0.55 0.7,-0.55 1.39,0 4.94,0.16 6.33,0.16 1.05,0 2.14,-0.07 3.19,-0.07 1.09,0 2.18,-0.09 3.23,-0.09 0.41,0 1,0 1,1 0,0.55 -0.45,0.55 -1.39,0.55 -1.84,0 -3.23,0 -3.23,0.89 0,0.29 0.09,0.54 0.14,0.84 l 3.39,13.66 15.18,0 c -2.09,-8.27 -3.23,-13 -3.43,-13.75 -0.49,-1.6 -1.44,-1.64 -4.53,-1.64 -0.75,0 -1.19,0 -1.19,-1 0,-0.55 0.59,-0.55 0.69,-0.55 1.4,0 4.93,0.16 6.32,0.16 1.05,0 2.14,-0.07 3.19,-0.07 1.11,0 2.2,-0.09 3.25,-0.09 0.39,0 0.99,0 0.99,1 0,0.55 -0.44,0.55 -1.4,0.55 -1.84,0 -3.23,0 -3.23,0.89 0,0.29 0.09,0.54 0.14,0.84 z"
           inkscape:connector-curvature="0"
           style="fill:#000000;stroke-width:0" /></g>    </g>
    <path
       style="fill:none;fill-rule:evenodd;stroke:#808080;stroke-width:2;stroke-linecap:butt;stroke-linejoin:miter;stroke-miterlimit:4;stroke-dasharray:none;stroke-opacity:1;marker-end:url(#marker4782)"
       d="m 527.81481,159.88591 68.98148,86.57408"
       id="path4764"
       inkscape:connector-curvature="0" />
    <path
       style="fill:none;fill-rule:evenodd;stroke:#808080;stroke-width:2;stroke-linecap:butt;stroke-linejoin:miter;stroke-miterlimit:4;stroke-dasharray:none;stroke-opacity:1;marker-end:url(#marker4792)"
       d="m 707.9074,304.33036 90.27778,0"
       id="path4766"
       inkscape:connector-curvature="0" />
    <path
       style="fill:none;fill-rule:evenodd;stroke:#808080;stroke-width:2;stroke-linecap:butt;stroke-linejoin:miter;stroke-miterlimit:4;stroke-dasharray:none;stroke-opacity:1;marker-end:url(#marker5444)"
       d="m 702.35185,255.25628 99.07407,-96.29629"
       id="path4768"
       inkscape:connector-curvature="0" />
    <path
       style="fill:none;fill-rule:evenodd;stroke:#808080;stroke-width:2;stroke-linecap:round;stroke-linejoin:miter;stroke-miterlimit:4;stroke-dasharray:none;stroke-opacity:1;marker-end:url(#marker5474-4)"
       d="m 346.71748,106.18221 73.61111,0"
       id="path5132-2"
       inkscape:connector-curvature="0" />
    <flowRoot
       xml:space="preserve"
       id="flowRoot4991"
       style="font-style:normal;font-variant:normal;font-weight:normal;font-stretch:normal;font-size:16.25px;line-height:125%;font-family:Sans;-inkscape-font-specification:'Sans, Normal';text-align:start;letter-spacing:0px;word-spacing:0px;writing-mode:lr-tb;text-anchor:start;fill:#000000;fill-opacity:1;stroke:none;stroke-width:1px;stroke-linecap:butt;stroke-linejoin:miter;stroke-opacity:1"
       transform="translate(-12.407407,112.28789)"><flowRegion
         id="flowRegion4993"><rect
           id="rect4995"
           width="112.03704"
           height="27.777779"
           x="156.94444"
           y="-34.80938" /></flowRegion><flowPara
         id="flowPara4997">incubation</flowPara></flowRoot>    <flowRoot
       xml:space="preserve"
       id="flowRoot4991-8"
       style="font-style:normal;font-variant:normal;font-weight:normal;font-stretch:normal;font-size:16.25px;line-height:125%;font-family:Sans;-inkscape-font-specification:'Sans, Normal';text-align:start;letter-spacing:0px;word-spacing:0px;writing-mode:lr-tb;text-anchor:start;fill:#000000;fill-opacity:1;stroke:none;stroke-width:1px;stroke-linecap:butt;stroke-linejoin:miter;stroke-opacity:1"
       transform="translate(182.69874,112.33315)"><flowRegion
         id="flowRegion4993-1"><rect
           id="rect4995-9"
           width="112.03704"
           height="27.777779"
           x="156.94444"
           y="-34.80938" /></flowRegion><flowPara
         id="flowPara4997-9">symptoms</flowPara></flowRoot>    <flowRoot
       xml:space="preserve"
       id="flowRoot4991-8-4"
       style="font-style:normal;font-variant:normal;font-weight:normal;font-stretch:normal;font-size:16.25px;line-height:125%;font-family:Sans;-inkscape-font-specification:'Sans, Normal';text-align:start;letter-spacing:0px;word-spacing:0px;writing-mode:lr-tb;text-anchor:start;fill:#000000;fill-opacity:1;stroke:none;stroke-width:1px;stroke-linecap:butt;stroke-linejoin:miter;stroke-opacity:1"
       transform="translate(551.5439,194.54927)"><flowRegion
         id="flowRegion4993-1-6"><rect
           id="rect4995-9-2"
           width="112.03704"
           height="27.777779"
           x="156.94444"
           y="-34.80938" /></flowRegion><flowPara
         id="flowPara4997-9-8">recovery</flowPara></flowRoot>    <flowRoot
       xml:space="preserve"
       id="flowRoot4991-8-4-7"
       style="font-style:normal;font-variant:normal;font-weight:normal;font-stretch:normal;font-size:16.25px;line-height:125%;font-family:Sans;-inkscape-font-specification:'Sans, Normal';text-align:start;letter-spacing:0px;word-spacing:0px;writing-mode:lr-tb;text-anchor:start;fill:#000000;fill-opacity:1;stroke:none;stroke-width:1px;stroke-linecap:butt;stroke-linejoin:miter;stroke-opacity:1"
       transform="translate(313.96165,250.33922)"><flowRegion
         id="flowRegion4993-1-6-1"><rect
           id="rect4995-9-2-2"
           width="112.03704"
           height="27.777779"
           x="156.94444"
           y="-34.80938" /></flowRegion><flowPara
         id="flowPara4997-9-8-2">deterioration</flowPara></flowRoot>    <flowRoot
       xml:space="preserve"
       id="flowRoot4991-8-4-9"
       style="font-style:normal;font-variant:normal;font-weight:normal;font-stretch:normal;font-size:16.25px;line-height:125%;font-family:Sans;-inkscape-font-specification:'Sans, Normal';text-align:start;letter-spacing:0px;word-spacing:0px;writing-mode:lr-tb;text-anchor:start;fill:#000000;fill-opacity:1;stroke:none;stroke-width:1px;stroke-linecap:butt;stroke-linejoin:miter;stroke-opacity:1"
       transform="translate(475.07276,116.54293)"><flowRegion
         id="flowRegion4993-1-6-0"><rect
           id="rect4995-9-2-24"
           width="112.03704"
           height="27.777779"
           x="156.94444"
           y="-34.80938" /></flowRegion><flowPara
         id="flowPara4997-9-8-7">recovery</flowPara></flowRoot>    <flowRoot
       xml:space="preserve"
       id="flowRoot4991-8-4-9-6"
       style="font-style:normal;font-variant:normal;font-weight:normal;font-stretch:normal;font-size:16.25px;line-height:125%;font-family:Sans;-inkscape-font-specification:'Sans, Normal';text-align:start;letter-spacing:0px;word-spacing:0px;writing-mode:lr-tb;text-anchor:start;fill:#000000;fill-opacity:1;stroke:none;stroke-width:1px;stroke-linecap:butt;stroke-linejoin:miter;stroke-opacity:1"
       transform="translate(570.55424,316.76515)"><flowRegion
         id="flowRegion4993-1-6-0-5"><rect
           id="rect4995-9-2-24-7"
           width="112.03704"
           height="27.777779"
           x="156.94444"
           y="-34.80938" /></flowRegion><flowPara
         id="flowPara4997-9-8-7-1">death</flowPara></flowRoot>  </g>
</svg>
