<svg width="172" height="57" xmlns="http://www.w3.org/2000/svg"><g fill="#000" fill-rule="evenodd"><path d="M80.849 50.972c0-.774-.152-1.434-.218-1.699-.658-2.784-2.635-3.666-3.687-3.976a6.714 6.714 0 00-1.78-.243c-.967 0-3.841.22-5.18 3.048-.616 1.235-.66 2.45-.66 2.937 0 3.51 2.239 5.94 5.753 5.94 2.766 0 4.916-1.458 5.554-4.217a7.975 7.975 0 00.218-1.79zm-2.7-.022c-.021 1.392-.306 3.29-1.559 4.13a2.555 2.555 0 01-1.427.42c-.68 0-1.272-.222-1.777-.664-.77-.662-1.099-1.588-1.252-2.561-.022-.198-.089-.73-.089-1.303 0-2.165.725-3.379 1.494-3.93a2.633 2.633 0 011.557-.507c.287 0 .858.043 1.451.418 1.669 1.059 1.602 3.687 1.602 3.997zm5.15-5.608h-1.711v1.765H83.3v9.585h2.613v-9.585h1.998v-1.765h-1.998v-2.275c0-.177-.11-1.346.834-1.678.265-.112.528-.112.614-.112.242 0 .44.067.527.112l.023-1.722c-.263 0-1.735-.11-2.833.375-1.735.772-1.735 2.936-1.755 3.357-.023.265-.023.53-.023.77v1.173zm13.305 11.35h4.851c1.1-.022 1.561-.089 2.109-.221 1.998-.486 2.986-1.833 3.316-2.54a3.98 3.98 0 00.35-1.656c0-1.436-.613-2.188-1.01-2.607a14.85 14.85 0 01-.593-.55l-.856-.796c.9-.972 1.846-1.967 1.846-3.379 0-.418-.11-1.28-.815-2.164-1.227-1.591-2.896-1.657-3.599-1.676a6.841 6.841 0 00-.944 0h-4.655v15.589zm2.68-13.757c.328-.176.876-.442 1.777-.442 1.209 0 2.483.529 3.072 1.633.09.154.285.53.285 1.038 0 .84-.613 1.503-.742 1.657-.573.64-1.363 1.26-1.363 2.119 0 .264.065.507.199.752.086.132.263.375.547.662.703.661 1.626 1.216 1.626 2.296a2.44 2.44 0 01-.683 1.7c-.658.73-1.602.948-2.547.948-1.075 0-1.711-.24-2.15-.372l-.021-11.991zm20.513 2.275l-1.404.837c-1.932-.796-2.57-.993-3.712-.993-2.173 0-4.237 1.127-5.203 3.092-.593 1.214-.638 2.472-.638 2.914 0 1.501.507 2.583.77 3.093.375.64.791 1.06.99 1.257 1.448 1.26 3.248 1.237 3.84 1.26.394.022.769.022 1.142.022h4.215V45.21zm-2.568 9.559c-1.097.375-1.535.444-2.152.444-.264.02-.965-.022-1.647-.334-1.535-.705-1.735-2.34-1.8-2.849-.088-.527-.088-.97-.088-1.19 0-.376 0-2.806 1.69-3.908a3.034 3.034 0 011.58-.486c1.453 0 2.066 1.015 2.242 1.502.175.46.175.992.175 1.148v5.673zm4.86-.926l-.02 2.517c.57.22 1.49.618 2.963.64 1.69 0 2.568-.53 3.161-1.037 1.12-.995 1.21-2.186 1.21-2.762 0-.397-.09-1.544-1.057-2.34-.634-.53-1.559-.816-2.328-1.127-.678-.263-1.03-.46-1.294-.705a1.236 1.236 0 01-.416-.948c0-.18.041-.555.331-.905.503-.598 1.49-.641 1.644-.641.767 0 1.404.308 1.998.772.199.134.373.264.548.42v-2.23c-.877-.287-1.535-.467-2.458-.467-.614 0-1.186.09-1.406.134-.7.154-1.162.397-1.405.551a3.605 3.605 0 00-1.58 2.938c0 .334.066 1.304.747 2.032.658.705 1.865 1.082 2.04 1.148.925.31 2.309.706 2.309 1.944 0 .154-.026.484-.265.816-.242.333-.703.794-1.669.794-1.404 0-2.415-.861-2.723-1.147l-.33-.397zm19.452-2.759c-.023-.444.043-2.034-.614-3.402-1.186-2.407-3.734-2.628-4.524-2.628-.726 0-2.746.177-4.173 1.878-1.316 1.567-1.404 3.574-1.404 4.217 0 2.737 1.404 4.173 2.305 4.79.616.445 1.845 1.04 3.71 1.061a9.02 9.02 0 003.031-.53 10.09 10.09 0 001.25-.596v-2.23c-.504.483-.68.663-.987.882-1.119.84-2.151.928-2.723.928-.922 0-1.976-.286-2.634-.948-.833-.797-1.076-2.01-1.143-2.32-.065-.397-.065-.683-.086-1.102h7.992zm-7.884-1.46c.045-.33.09-.662.198-.992.132-.419.791-2.054 2.482-2.076.241 0 .747.044 1.295.397.988.618 1.141 1.568 1.208 2.65l-5.183.022zm9.935 7.068h2.613V39.667h-2.613v17.025zM83.067 18.682h-2.678v8.878c.022 1.366 0 2.075-.175 2.736-.2.686-.55 1.126-.726 1.347-.351.397-.878.883-2.042 1.082-.46.089-.832.089-1.007.089-2.305 0-3.253-1.236-3.602-2.142-.264-.707-.33-1.546-.307-3.112v-8.878h-2.68v8.303c-.021 1.832.046 2.826.307 3.643a4.916 4.916 0 001.714 2.494c.703.575 2.263 1.437 4.568 1.437 2.085 0 3.575-.728 4.258-1.147 1.6-1.062 2.064-2.608 2.217-3.315.153-.75.176-1.524.153-3.112v-8.303zm2.701 4.24v11.35h2.612v-9.384c.441-.223.922-.486 1.953-.486 1.69 0 2.352.772 2.591 1.52.11.356.155.708.177 1.482v6.867h2.591v-6.867c-.088-1.282-.176-2.407-1.207-3.292-1.25-1.08-2.9-1.19-6.105-1.19h-2.612zm12.997 11.351h2.613V22.921h-2.613v11.352zm-.242-14.177c0 .86.703 1.546 1.538 1.546.854 0 1.558-.685 1.558-1.546 0-.863-.679-1.568-1.537-1.568-.856 0-1.558.705-1.558 1.568zm17.28 2.825h-2.35l-3.227 9.054c-.155.486-.176.596-.528.596l-3.402-9.65h-2.833l4.172 11.35h1.339c.813-.022 1.449-.045 2.151-.486.923-.596 1.361-1.723 1.714-2.695l2.965-8.169zm11.129 5.742c-.024-.442.041-2.033-.615-3.4-1.186-2.409-3.734-2.628-4.523-2.628-.726 0-2.745.176-4.17 1.876-1.32 1.568-1.406 3.578-1.406 4.22 0 2.736 1.406 4.172 2.305 4.79.615.44 1.844 1.038 3.709 1.058a9.08 9.08 0 003.03-.527 9.953 9.953 0 001.253-.598v-2.23c-.504.486-.683.662-.987.885-1.123.837-2.154.926-2.725.926-.92 0-1.975-.286-2.635-.95-.834-.795-1.076-2.01-1.14-2.318-.067-.399-.067-.685-.087-1.104h7.99zm-7.883-1.459c.043-.331.089-.661.197-.993.131-.419.789-2.053 2.483-2.075.24 0 .746.041 1.296.397.985.618 1.139 1.567 1.205 2.65l-5.18.021zm9.946-4.283v11.35h2.613v-9.65c.416-.199.9-.396 1.887-.331-.087.132-.24.31-.24.685 0 .332.088.553.132.663.241.551.767.86 1.384.86.987 0 1.578-.73 1.578-1.677 0-.531-.22-.883-.306-1.039-.528-.795-1.537-.815-2.395-.86h-4.653zm8.677 8.501l-.022 2.518c.57.219 1.492.62 2.965.64 1.688 0 2.57-.528 3.159-1.037 1.12-.995 1.21-2.186 1.21-2.76 0-.4-.09-1.547-1.057-2.343-.636-.529-1.559-.815-2.326-1.125-.68-.263-1.033-.462-1.296-.707a1.236 1.236 0 01-.416-.948c0-.176.043-.55.331-.906.501-.597 1.492-.642 1.645-.642.768 0 1.404.31 1.999.776.195.13.373.263.548.419v-2.23c-.88-.286-1.537-.466-2.46-.466-.615 0-1.184.09-1.404.133-.7.156-1.164.398-1.406.554a3.6 3.6 0 00-1.58 2.935c0 .333.065 1.303.746 2.032.66.706 1.865 1.082 2.042 1.149.923.308 2.305.705 2.305 1.943 0 .154-.022.486-.265.817-.24.332-.701.794-1.669.794-1.402 0-2.413-.86-2.721-1.15l-.328-.396zm9.814 2.851h2.611V22.921h-2.61v11.352zm-.243-14.177c0 .86.703 1.546 1.537 1.546.858 0 1.56-.685 1.56-1.546 0-.863-.68-1.568-1.537-1.568-.857 0-1.56.705-1.56 1.568zm11.131 2.825H156.4v-3.886c0-.264.022-.687-.351-.687a.712.712 0 00-.307.091c-.111.089-.131.265-.155.551-.153 1.017-.44 2.01-1.097 2.782-.9 1.104-1.865 1.128-2.436 1.173v1.742h1.712v9.584h2.634v-9.584h1.975V22.92zm13.228 0h-2.372l-3.555 10.025-3.536-10.025h-2.878l4.283 11.328c.217.09.35.155.438.222.307.22.462.62.462.993 0 .727-.483 1.08-.703 1.214-.66.354-1.954.176-1.997.176l-.023 1.988c.9 0 1.778 0 2.636-.331 1.053-.376 1.579-1.08 2.062-2.097.33-.642.57-1.324.813-2.01l4.37-11.483zM18.515 21.243c0-.7 1.072-.7 1.072 0v14.689c0 .7-1.072.7-1.072 0V21.242zm0-4.047c0 .701 1.072.701 1.072 0V.484h-1.072v16.712zm0 22.785c0-.7 1.074-.7 1.074 0v16.71h-1.074v-16.71zm19.051-4.05c0 .702 1.072.702 1.072 0V21.243c0-.7-1.072-.7-1.072 0v14.689zm0-35.447h1.072v16.712c0 .701-1.072.701-1.072 0V.484zm0 56.208h1.072V39.98c0-.7-1.072-.7-1.072 0v16.71zm-1.523-38.003c.712 0 .712 1.059 0 1.059H21.11c-.712 0-.712-1.059 0-1.059h14.933zM21.11 37.427c-.712 0-.712 1.056 0 1.056h14.933c.712 0 .712-1.056 0-1.056H21.11zm36.045-18.738v1.059H40.16c-.713 0-.713-1.059 0-1.059h16.994zM0 18.69v1.059h16.992c.713 0 .713-1.059 0-1.059H0zm57.155 18.738v1.056H40.16c-.713 0-.713-1.056 0-1.056h16.994zM0 37.427v1.056h16.992c.713 0 .713-1.056 0-1.056H0zm27.837-10.311c.504.494-.256 1.243-.76.748-.502-.498-6.948-6.835-6.948-6.835-.503-.493.258-1.241.76-.745.433.424 6.948 6.832 6.948 6.832zM20.89 39.02c-.503-.497-1.264.252-.76.747l6.946 6.831c.505.497 1.265-.252.76-.747L20.89 39.02zm26-11.905c.505.495-.254 1.244-.758.75-.503-.5-6.947-6.836-6.947-6.836-.505-.493.255-1.241.758-.745.434.424 6.947 6.832 6.947 6.832zm-9.868-6.086c.506-.497-.256-1.241-.759-.747l-6.947 6.832c-.502.496.256 1.243.76.748l6.946-6.833zm-6.945 25.567c-.505.497-1.263-.252-.76-.745.502-.496 6.946-6.833 6.946-6.833.503-.496 1.265.252.759.745-.432.428-6.945 6.833-6.945 6.833zM17.979 21.03c.505-.497-.256-1.241-.758-.747l-6.95 6.832c-.502.496.257 1.243.761.748l6.947-6.833zm9.858 9.032c.504-.495-.256-1.242-.76-.747-.502.495-6.948 6.831-6.948 6.831-.503.497.258 1.244.76.749.433-.428 6.948-6.833 6.948-6.833zM20.89 18.156c-.503.497-1.264-.252-.76-.746l6.946-6.832c.505-.496 1.265.25.76.745 0 0-6.514 6.406-6.946 6.833zm26 11.905c.505-.495-.254-1.242-.758-.747l-6.947 6.831c-.505.497.255 1.244.758.749l6.947-6.833zm-9.868 6.084c.503.497-.256 1.246-.76.749l-6.946-6.833c-.506-.495.256-1.242.759-.747l6.947 6.831zm-6.947-25.567c-.503-.496-1.265.25-.759.747l6.946 6.833c.504.495 1.263-.252.76-.748l-6.947-6.832zM17.909 36.082c.503.497-.258 1.243-.76.748 0 0-6.445-6.336-6.947-6.833-.505-.496.255-1.243.758-.748l6.95 6.833zM52.77 51.626l-.76.745-12.83-12.615c-.504-.497.257-1.243.76-.749l12.83 12.619zM17.215 39.01c.503-.495 1.264.254.759.748L5.144 52.375l-.758-.744 12.83-12.62zM52.01 4.798l.76.747-12.83 12.617c-.503.496-1.264-.25-.76-.745.433-.428 12.83-12.619 12.83-12.619zM17.976 17.42c.503.495-.258 1.242-.76.745L4.385 5.55l.759-.747 12.83 12.618zM52.77 32.894l-.76.745-3.64-3.58c-.505-.495.256-1.242.757-.747.438.426 3.643 3.582 3.643 3.582zm-4.406-5.784c-.502.495.258 1.242.76.745l3.643-3.58-.759-.746-3.644 3.581zM32.954 4.79l.76.75-3.639 3.58c-.505.496-1.265-.25-.76-.746.432-.428 3.64-3.583 3.64-3.583zm-5.872 4.33c.504.496 1.263-.25.758-.746L24.2 4.791l-.76.748 3.642 3.58zM4.388 32.902l.759.747 3.642-3.582c.503-.495-.258-1.243-.759-.747l-3.642 3.582zm4.397-5.787c.505.494-.254 1.243-.757.748l-3.642-3.581.757-.747 3.642 3.58zm15.412 25.26l-.76-.745 3.64-3.583c.504-.493 1.264.254.762.75-.435.425-3.642 3.578-3.642 3.578zm5.88-4.33c-.503-.495-1.263.254-.759.75l3.642 3.578.757-.744-3.64-3.584z"/></g></svg>