<?xml version="1.0" encoding="UTF-8"?>
<svg width="172px" height="57px" viewBox="0 0 172 57" version="1.1" xmlns="http://www.w3.org/2000/svg" xmlns:xlink="http://www.w3.org/1999/xlink">
    <!-- Generator: Sketch 44.1 (41455) - http://www.bohemiancoding.com/sketch -->
    <title>logo_uni_en@3x</title>
    <desc>Created with Sketch.</desc>
    <defs></defs>
    <g id="Symbols" stroke="none" stroke-width="1" fill="none" fill-rule="evenodd">
        <g id="Header" transform="translate(-100.000000, -31.000000)" fill="#000000">
            <g id="logo_uni_en" transform="translate(100.000000, 31.000000)">
                <path d="M80.8486667,50.971625 C80.8486667,50.1976875 80.6972917,49.5379375 80.6306146,49.2733125 C79.9728542,46.4893125 77.9959688,45.606625 76.9435521,45.2966875 C76.1524375,45.0755625 75.47125,45.0538125 75.1630938,45.0538125 C74.1971771,45.0538125 71.3228542,45.2749375 69.9839063,48.1024375 C69.3675938,49.33675 69.3243438,50.5529375 69.3243438,51.0386875 C69.3243438,54.5495 71.5625313,56.97825 75.0765938,56.97825 C77.8427917,56.97825 79.9926771,55.521 80.6306146,52.762375 C80.6972917,52.5176875 80.8486667,51.7455625 80.8486667,50.971625 L80.8486667,50.971625 Z M78.1491458,50.949875 C78.1275208,52.341875 77.8427917,54.2395625 76.5903438,55.0805625 C76.3488646,55.2328125 75.8875313,55.49925 75.1630938,55.49925 C74.4837083,55.49925 73.8908229,55.278125 73.3862396,54.835875 C72.61675,54.1743125 72.2869688,53.248125 72.1337917,52.2748125 C72.1121667,52.07725 72.0454896,51.544375 72.0454896,50.971625 C72.0454896,48.8075 72.7699271,47.593125 73.5394167,47.042125 C74.1755521,46.578125 74.8134896,46.534625 75.0964167,46.534625 C75.3829479,46.534625 75.9542083,46.578125 76.5470938,46.9533125 C78.2158229,48.0118125 78.1491458,50.6399375 78.1491458,50.949875 L78.1491458,50.949875 Z M83.2995,45.342 L81.5875208,45.342 L81.5875208,47.107375 L83.2995,47.107375 L83.2995,56.691875 L85.9125208,56.691875 L85.9125208,47.107375 L87.9110313,47.107375 L87.9110313,45.342 L85.9125208,45.342 L85.9125208,43.0673125 C85.9125208,42.8896875 85.8025938,41.720625 86.7468854,41.3889375 C87.0117917,41.2765625 87.2748958,41.2765625 87.3613958,41.2765625 C87.602875,41.2765625 87.8011042,41.343625 87.8876042,41.3889375 L87.9110313,39.6670625 C87.6479271,39.6670625 86.175625,39.5565 85.0781563,40.04225 C83.34275,40.814375 83.34275,42.9785 83.3229271,43.399 C83.2995,43.663625 83.2995,43.92825 83.2995,44.1693125 L83.2995,45.342 Z M96.6042813,56.691875 L101.45549,56.691875 C102.55476,56.670125 103.016094,56.6030625 103.563927,56.47075 C105.562438,55.985 106.549979,54.6383125 106.87976,53.9314375 C107.209542,53.22275 107.229365,52.5394375 107.229365,52.2748125 C107.229365,50.8393125 106.616656,50.087125 106.220198,49.6684375 C106.023771,49.492625 105.825542,49.315 105.627313,49.1174375 L104.771323,48.32175 C105.670563,47.35025 106.616656,46.3551875 106.616656,44.94325 C106.616656,44.5245625 106.506729,43.663625 105.802115,42.779125 C104.574896,41.18775 102.906167,41.1225 102.203354,41.1025625 C101.895198,41.0808125 101.565417,41.0808125 101.259063,41.1025625 L96.6042813,41.1025625 L96.6042813,56.691875 Z M99.2839792,42.935 C99.6119583,42.7591875 100.159792,42.49275 101.060833,42.49275 C102.270031,42.49275 103.544104,43.022 104.133385,44.1258125 C104.22349,44.279875 104.418115,44.656875 104.418115,45.164375 C104.418115,46.0035625 103.805406,46.6669375 103.675656,46.821 C103.102594,47.4608125 102.313281,48.0806875 102.313281,48.9398125 C102.313281,49.2044375 102.378156,49.4473125 102.51151,49.692 C102.59801,49.8243125 102.774615,50.0671875 103.059344,50.3535625 C103.762156,51.015125 104.684823,51.56975 104.684823,52.65 C104.684823,53.291625 104.443344,53.886125 104.001833,54.350125 C103.344073,55.0805625 102.399781,55.2980625 101.45549,55.2980625 C100.379646,55.2980625 99.7435104,55.0588125 99.3056042,54.9265 L99.2839792,42.935 Z M119.797094,45.2096875 L118.393271,46.0470625 C116.461438,45.251375 115.8235,45.0538125 114.680979,45.0538125 C112.507667,45.0538125 110.444281,46.1811875 109.478365,48.1459375 C108.885479,49.3603125 108.840427,50.6181875 108.840427,51.0604375 C108.840427,52.5611875 109.346813,53.64325 109.609917,54.1525625 C109.98475,54.792375 110.401031,55.212875 110.59926,55.4104375 C112.048135,56.670125 113.848417,56.6465625 114.4395,56.670125 C114.834156,56.691875 115.20899,56.691875 115.582021,56.691875 L119.797094,56.691875 L119.797094,45.2096875 Z M117.229125,54.7688125 C116.131656,55.144 115.69375,55.212875 115.077438,55.212875 C114.812531,55.2328125 114.111521,55.191125 113.430333,54.879375 C111.894958,54.1743125 111.694927,52.5394375 111.630052,52.030125 C111.54175,51.5026875 111.54175,51.0604375 111.54175,50.8393125 C111.54175,50.464125 111.54175,48.0335625 113.232104,46.9315625 C113.891667,46.5110625 114.527802,46.4458125 114.812531,46.4458125 C116.26501,46.4458125 116.877719,47.4608125 117.054323,47.948375 C117.229125,48.40875 117.229125,48.9398125 117.229125,49.0956875 L117.229125,54.7688125 Z M122.089344,53.842625 L122.069521,56.3601875 C122.638979,56.5795 123.559844,56.97825 125.032146,57 C126.7225,57 127.600115,56.47075 128.193,55.96325 C129.313896,54.9681875 129.402198,53.777375 129.402198,53.201 C129.402198,52.8040625 129.313896,51.65675 128.346177,50.8610625 C127.711844,50.3318125 126.787375,50.0454375 126.017885,49.7336875 C125.340302,49.470875 124.987094,49.2733125 124.72399,49.028625 C124.460885,48.8075 124.307708,48.455875 124.307708,48.0806875 C124.307708,47.90125 124.349156,47.5260625 124.639292,47.17625 C125.142073,46.578125 126.129615,46.534625 126.282792,46.534625 C127.050479,46.534625 127.686615,46.84275 128.281302,47.30675 C128.479531,47.440875 128.654333,47.571375 128.829135,47.72725 L128.829135,45.4960625 C127.951521,45.2096875 127.29376,45.03025 126.371094,45.03025 C125.756583,45.03025 125.185323,45.120875 124.965469,45.164375 C124.264458,45.3184375 123.803125,45.5613125 123.559844,45.715375 C122.593927,46.3551875 121.979417,47.506125 121.979417,48.6534375 C121.979417,48.9869375 122.046094,49.956625 122.727281,50.68525 C123.385042,51.3903125 124.592438,51.7673125 124.76724,51.8325625 C125.691708,52.1425 127.075708,52.5394375 127.075708,53.777375 C127.075708,53.9314375 127.050479,54.2613125 126.810802,54.593 C126.569323,54.9265 126.10799,55.386875 125.142073,55.386875 C123.73825,55.386875 122.727281,54.5259375 122.419125,54.2395625 L122.089344,53.842625 Z M141.541031,51.084 C141.517604,50.6399375 141.584281,49.050375 140.926521,47.6819375 C139.74075,45.2749375 137.192604,45.0538125 136.403292,45.0538125 C135.677052,45.0538125 133.656917,45.2314375 132.229667,46.9315625 C130.914146,48.499375 130.825844,50.5058125 130.825844,51.14925 C130.825844,53.886125 132.229667,55.321625 133.130708,55.9396875 C133.747021,56.38375 134.976042,56.97825 136.841198,57 C138.290073,57 139.367719,56.6465625 139.872302,56.47075 C140.44176,56.249625 140.926521,55.985 141.122948,55.8744375 L141.122948,53.64325 C140.618365,54.1271875 140.44176,54.306625 140.135406,54.5259375 C139.016313,55.3669375 137.983719,55.4539375 137.412458,55.4539375 C136.489792,55.4539375 135.435573,55.1675625 134.777813,54.506 C133.94525,53.7085 133.701969,52.4959375 133.635292,52.186 C133.570417,51.7890625 133.570417,51.5026875 133.548792,51.084 L141.541031,51.084 Z M133.656917,49.6249375 C133.701969,49.29325 133.747021,48.9615625 133.855146,48.6316875 C133.986698,48.213 134.64626,46.578125 136.336615,46.556375 C136.578094,46.556375 137.084479,46.599875 137.632313,46.9533125 C138.619854,47.571375 138.773031,48.521125 138.839708,49.6031875 L133.656917,49.6249375 Z M143.591802,56.691875 L146.204823,56.691875 L146.204823,39.6670625 L143.591802,39.6670625 L143.591802,56.691875 Z" id="Fill-1"></path>
                <path d="M83.0670313,18.6819375 L80.3891354,18.6819375 L80.3891354,27.5595625 C80.4107604,28.9261875 80.3891354,29.634875 80.2143333,30.2964375 C80.0143021,30.9815625 79.6646979,31.422 79.4880938,31.643125 C79.1366875,32.0400625 78.6104792,32.5258125 77.4463333,32.7251875 C76.9868021,32.814 76.6137708,32.814 76.4389688,32.814 C74.1341042,32.814 73.1862083,31.577875 72.8366042,30.671625 C72.5735,29.96475 72.5068229,29.1255625 72.53025,27.5595625 L72.53025,18.6819375 L69.8505521,18.6819375 L69.8505521,26.985 C69.8289271,28.8174375 69.8956042,29.8106875 70.1569063,30.628125 C70.4416354,31.599625 71.0579479,32.505875 71.8706875,33.122125 C72.5735,33.6966875 74.1341042,34.5594375 76.4389688,34.5594375 C78.5239792,34.5594375 80.0143021,33.8308125 80.6972917,33.412125 C82.2975417,32.35 82.7606771,30.8039375 82.9138542,30.0970625 C83.0670313,29.3466875 83.0904583,28.57275 83.0670313,26.985 L83.0670313,18.6819375 Z M85.7683542,22.921375 L85.7683542,34.27125 L88.3795729,34.27125 L88.3795729,24.8879375 C88.8210833,24.665 89.3022396,24.4021875 90.3330313,24.4021875 C92.0233854,24.4021875 92.68475,25.1743125 92.9244271,25.922875 C93.0343542,26.278125 93.0794063,26.62975 93.1010313,27.4036875 L93.1010313,34.27125 L95.6924271,34.27125 L95.6924271,27.4036875 C95.604125,26.12225 95.5158229,24.9966875 94.4850313,24.1121875 C93.2343854,23.0319375 91.5854792,22.921375 88.3795729,22.921375 L85.7683542,22.921375 Z M98.7649792,34.2730625 L101.378,34.2730625 L101.378,22.921375 L98.7649792,22.921375 L98.7649792,34.2730625 Z M98.5235,20.0956875 C98.5235,20.956625 99.2263125,21.64175 100.060677,21.64175 C100.914865,21.64175 101.619479,20.956625 101.619479,20.0956875 C101.619479,19.2329375 100.940094,18.527875 100.082302,18.527875 C99.2263125,18.527875 98.5235,19.2329375 98.5235,20.0956875 L98.5235,20.0956875 Z M115.803677,22.921375 L113.45376,22.921375 L110.226229,31.9748125 C110.07125,32.4605625 110.049625,32.571125 109.698219,32.571125 L106.295885,22.921375 L103.46301,22.921375 L107.634833,34.27125 L108.973781,34.27125 C109.786521,34.2495 110.422656,34.2259375 111.125469,33.7855 C112.048135,33.1891875 112.486042,32.0618125 112.83925,31.0903125 L115.803677,22.921375 Z M126.931542,28.663375 C126.908115,28.221125 126.97299,26.62975 126.317031,25.263125 C125.13126,22.8543125 122.583115,22.635 121.793802,22.635 C121.067563,22.635 119.049229,22.8108125 117.623781,24.5109375 C116.304656,26.07875 116.218156,28.0888125 116.218156,28.7304375 C116.218156,31.4673125 117.623781,32.9028125 118.523021,33.520875 C119.137531,33.9613125 120.366552,34.5594375 122.231708,34.579375 C123.682385,34.579375 124.756427,34.2259375 125.262813,34.0519375 C125.832271,33.8308125 126.317031,33.5661875 126.51526,33.4538125 L126.51526,31.2244375 C126.010677,31.7101875 125.832271,31.886 125.527719,32.1089375 C124.405021,32.9463125 123.374229,33.035125 122.802969,33.035125 C121.882104,33.035125 120.827885,32.74875 120.168323,32.085375 C119.333958,31.2896875 119.092479,30.0753125 119.027604,29.7671875 C118.960927,29.3684375 118.960927,29.0820625 118.941104,28.663375 L126.931542,28.663375 Z M119.049229,27.2043125 C119.092479,26.872625 119.137531,26.54275 119.245656,26.2110625 C119.377208,25.792375 120.034969,24.1575 121.728927,24.13575 C121.968604,24.13575 122.47499,24.1774375 123.024625,24.5326875 C124.010365,25.15075 124.163542,26.1005 124.230219,27.1825625 L119.049229,27.2043125 Z M128.994927,22.921375 L128.994927,34.27125 L131.607948,34.27125 L131.607948,24.6215 C132.024229,24.422125 132.507188,24.2245625 133.494729,24.2898125 C133.408229,24.422125 133.255052,24.59975 133.255052,24.9749375 C133.255052,25.306625 133.343354,25.52775 133.386604,25.6383125 C133.628083,26.1893125 134.154292,26.4974375 134.770604,26.4974375 C135.758146,26.4974375 136.349229,25.7688125 136.349229,24.820875 C136.349229,24.2898125 136.129375,23.9381875 136.042875,23.7823125 C135.514865,22.986625 134.505698,22.9666875 133.647906,22.921375 L128.994927,22.921375 Z M137.671958,31.422 L137.650333,33.9395625 C138.219792,34.158875 139.142458,34.5594375 140.61476,34.579375 C142.303313,34.579375 143.184531,34.0519375 143.773813,33.542625 C144.894708,32.5475625 144.984813,31.35675 144.984813,30.7821875 C144.984813,30.3834375 144.894708,29.236125 143.92699,28.4404375 C143.290854,27.9111875 142.368188,27.6248125 141.6005,27.314875 C140.921115,27.0520625 140.567906,26.8526875 140.304802,26.608 C140.041698,26.386875 139.888521,26.03525 139.888521,25.6600625 C139.888521,25.48425 139.931771,25.1090625 140.220104,24.7538125 C140.721083,24.1575 141.712229,24.1121875 141.865406,24.1121875 C142.633094,24.1121875 143.269229,24.422125 143.863917,24.8879375 C144.058542,25.0184375 144.236948,25.15075 144.41175,25.306625 L144.41175,23.07725 C143.532333,22.790875 142.874573,22.6114375 141.951906,22.6114375 C141.337396,22.6114375 140.767938,22.70025 140.548083,22.74375 C139.847073,22.899625 139.383938,23.1425 139.142458,23.298375 C138.178344,23.9381875 137.562031,25.0836875 137.562031,26.2328125 C137.562031,26.5663125 137.626906,27.536 138.308094,28.264625 C138.967656,28.9715 140.17325,29.3466875 140.349854,29.41375 C141.272521,29.721875 142.654719,30.1188125 142.654719,31.35675 C142.654719,31.5108125 142.633094,31.8425 142.389813,32.1741875 C142.150135,32.505875 141.688802,32.9680625 140.721083,32.9680625 C139.319063,32.9680625 138.308094,32.1089375 137.999938,31.8189375 L137.671958,31.422 Z M147.486104,34.2730625 L150.097323,34.2730625 L150.097323,22.921375 L147.486104,22.921375 L147.486104,34.2730625 Z M147.242823,20.0956875 C147.242823,20.956625 147.945635,21.64175 148.78,21.64175 C149.637792,21.64175 150.340604,20.956625 150.340604,20.0956875 C150.340604,19.2329375 149.659417,18.527875 148.803427,18.527875 C147.945635,18.527875 147.242823,19.2329375 147.242823,20.0956875 L147.242823,20.0956875 Z M158.374292,22.921375 L156.399208,22.921375 L156.399208,19.035375 C156.399208,18.77075 156.420833,18.3484375 156.047802,18.3484375 C155.961302,18.3484375 155.804521,18.3955625 155.741448,18.4390625 C155.629719,18.527875 155.609896,18.7036875 155.586469,18.9900625 C155.433292,20.006875 155.14676,21.000125 154.489,21.77225 C153.58976,22.8760625 152.623844,22.899625 152.052583,22.9449375 L152.052583,24.68675 L153.764563,24.68675 L153.764563,34.27125 L156.399208,34.27125 L156.399208,24.68675 L158.374292,24.68675 L158.374292,22.921375 Z M171.601583,22.921375 L169.230042,22.921375 L165.674531,32.9463125 L162.138844,22.921375 L159.260917,22.921375 L163.544469,34.2495 C163.760719,34.3383125 163.894073,34.4035625 163.982375,34.470625 C164.288729,34.69175 164.443708,35.0905 164.443708,35.463875 C164.443708,36.1906875 163.96075,36.544125 163.740896,36.67825 C163.081333,37.0316875 161.787438,36.8540625 161.744188,36.8540625 L161.72076,38.842375 C162.621802,38.842375 163.499417,38.842375 164.357208,38.5106875 C165.409625,38.1355 165.935833,37.4304375 166.418792,36.413625 C166.748573,35.772 166.98825,35.0905 167.231531,34.4035625 L171.601583,22.921375 L171.601583,22.921375 Z" id="Fill-2"></path>
                <path d="M18.5146042,21.243 C18.5146042,20.543375 19.5868437,20.543375 19.5868437,21.243 L19.5868437,35.9315 C19.5868437,36.6329375 18.5146042,36.6329375 18.5146042,35.9315 L18.5146042,21.243 Z M18.5146042,17.1956875 C18.5146042,17.897125 19.5868437,17.897125 19.5868437,17.1956875 L19.5868437,0.4844375 L18.5146042,0.4844375 L18.5146042,17.1956875 Z M18.5146042,39.980625 C18.5146042,39.281 19.5886458,39.281 19.5886458,39.980625 L19.5886458,56.691875 L18.5146042,56.691875 L18.5146042,39.980625 Z M37.5662292,35.9315 C37.5662292,36.6329375 38.6384688,36.6329375 38.6384688,35.9315 L38.6384688,21.243 C38.6384688,20.543375 37.5662292,20.543375 37.5662292,21.243 L37.5662292,35.9315 Z M37.5662292,0.4844375 L38.6384688,0.4844375 L38.6384688,17.1956875 C38.6384688,17.897125 37.5662292,17.897125 37.5662292,17.1956875 L37.5662292,0.4844375 Z M37.5662292,56.691875 L38.6384688,56.691875 L38.6384688,39.980625 C38.6384688,39.281 37.5662292,39.281 37.5662292,39.980625 L37.5662292,56.691875 Z M36.0434687,18.6891875 C36.7552917,18.6891875 36.7552917,19.7476875 36.0434687,19.7476875 L21.1096042,19.7476875 C20.3977813,19.7476875 20.3977813,18.6891875 21.1096042,18.6891875 L36.0434687,18.6891875 Z M21.1096042,37.4268125 C20.3977813,37.4268125 20.3977813,38.4835 21.1096042,38.4835 L36.0434687,38.4835 C36.7552917,38.4835 36.7552917,37.4268125 36.0434687,37.4268125 L21.1096042,37.4268125 Z M57.154875,18.6891875 L57.154875,19.7476875 L40.1612292,19.7476875 C39.4476042,19.7476875 39.4476042,18.6891875 40.1612292,18.6891875 L57.154875,18.6891875 Z M0,18.6891875 L0,19.7476875 L16.9918438,19.7476875 C17.7054688,19.7476875 17.7054688,18.6891875 16.9918438,18.6891875 L0,18.6891875 Z M57.154875,37.4268125 L57.154875,38.4835 L40.1612292,38.4835 C39.4476042,38.4835 39.4476042,37.4268125 40.1612292,37.4268125 L57.154875,37.4268125 Z M0,37.4268125 L0,38.4835 L16.9918438,38.4835 C17.7054688,38.4835 17.7054688,37.4268125 16.9918438,37.4268125 L0,37.4268125 Z M27.8367813,27.1155 C28.3413646,27.6103125 27.5808854,28.358875 27.0763021,27.8640625 C26.5753229,27.365625 20.1292708,21.029125 20.1292708,21.029125 C19.6264896,20.536125 20.3869688,19.7875625 20.88975,20.2841875 C21.32225,20.7083125 27.8367813,27.1155 27.8367813,27.1155 L27.8367813,27.1155 Z M20.88975,39.02 C20.3869688,38.523375 19.6264896,39.2719375 20.1292708,39.76675 C20.1292708,39.76675 26.5753229,46.1050625 27.0763021,46.5980625 C27.5808854,47.0946875 28.3413646,46.346125 27.8367813,45.8513125 C27.8367813,45.8513125 21.32225,39.444125 20.88975,39.02 L20.88975,39.02 Z M46.8902083,27.1155 C47.3947917,27.6103125 46.6361146,28.358875 46.1315313,27.8640625 C45.62875,27.365625 39.1845,21.029125 39.1845,21.029125 C38.6799167,20.536125 39.4403958,19.7875625 39.9431771,20.2841875 C40.3774792,20.7083125 46.8902083,27.1155 46.8902083,27.1155 L46.8902083,27.1155 Z M37.022,21.029125 C37.5283854,20.5325 36.7661042,19.7875625 36.2633229,20.282375 C36.2633229,20.282375 29.8190729,26.618875 29.3162917,27.1136875 C28.8135104,27.6103125 29.5721875,28.3570625 30.0767708,27.86225 C30.0767708,27.86225 36.5895,21.4550625 37.022,21.029125 L37.022,21.029125 Z M30.0767708,46.59625 C29.5721875,47.092875 28.8135104,46.3443125 29.3162917,45.8513125 C29.8190729,45.3546875 36.2633229,39.0181875 36.2633229,39.0181875 C36.7661042,38.5215625 37.5283854,39.270125 37.022,39.763125 C36.5895,40.190875 30.0767708,46.59625 30.0767708,46.59625 L30.0767708,46.59625 Z M17.9793854,21.029125 C18.4839688,20.5325 17.7234896,19.7875625 17.2207083,20.282375 C17.2207083,20.282375 10.7746563,26.618875 10.271875,27.1136875 C9.76909375,27.6103125 10.5277708,28.3570625 11.0323542,27.86225 C11.0323542,27.86225 17.5468854,21.4550625 17.9793854,21.029125 L17.9793854,21.029125 Z M27.8367813,30.0608125 C28.3413646,29.566 27.5808854,28.81925 27.0763021,29.3140625 C26.5753229,29.808875 20.1292708,36.145375 20.1292708,36.145375 C19.6264896,36.642 20.3869688,37.38875 20.88975,36.8939375 C21.32225,36.4661875 27.8367813,30.0608125 27.8367813,30.0608125 L27.8367813,30.0608125 Z M20.88975,18.1563125 C20.3869688,18.6529375 19.6264896,17.904375 20.1292708,17.4095625 C20.1292708,17.4095625 26.5753229,11.07125 27.0763021,10.57825 C27.5808854,10.081625 28.3413646,10.828375 27.8367813,11.3231875 C27.8367813,11.3231875 21.32225,17.7285625 20.88975,18.1563125 L20.88975,18.1563125 Z M46.8902083,30.0608125 C47.3947917,29.566 46.6361146,28.81925 46.1315313,29.3140625 C45.62875,29.808875 39.1845,36.145375 39.1845,36.145375 C38.6799167,36.642 39.4403958,37.38875 39.9431771,36.8939375 C40.3774792,36.4661875 46.8902083,30.0608125 46.8902083,30.0608125 L46.8902083,30.0608125 Z M37.022,36.145375 C37.5247813,36.642 36.7661042,37.3905625 36.2615208,36.8939375 C36.2615208,36.8939375 29.8190729,30.5574375 29.3162917,30.0608125 C28.8099063,29.566 29.5721875,28.81925 30.0749688,29.3140625 C30.0749688,29.3140625 36.5895,35.7194375 37.022,36.145375 L37.022,36.145375 Z M30.0749688,10.57825 C29.5721875,10.081625 28.8099063,10.828375 29.3162917,11.325 C29.8190729,11.8198125 36.2615208,18.158125 36.2615208,18.158125 C36.7661042,18.6529375 37.5247813,17.9061875 37.022,17.4095625 C36.5895,16.983625 30.0749688,10.57825 30.0749688,10.57825 L30.0749688,10.57825 Z M17.9091042,36.0819375 C18.4118854,36.5785625 17.6514063,37.3253125 17.148625,36.8305 C17.148625,36.8305 10.704375,30.494 10.2015938,29.997375 C9.69701042,29.50075 10.4574896,28.754 10.9602708,29.2488125 C10.9602708,29.2488125 17.4766042,35.656 17.9091042,36.0819375 L17.9091042,36.0819375 Z M52.7704063,51.6259375 L52.0099271,52.370875 L39.1808958,39.755875 C38.6763125,39.25925 39.4367917,38.5125 39.9395729,39.0073125 C40.373875,39.4350625 52.7704063,51.6259375 52.7704063,51.6259375 L52.7704063,51.6259375 Z M17.2153021,39.0109375 C17.7180833,38.516125 18.4785625,39.2646875 17.9739792,39.7595 L5.14314583,52.3745 L4.38627083,51.6295625 C4.38627083,51.6295625 16.781,39.436875 17.2153021,39.0109375 L17.2153021,39.0109375 Z M52.0099271,4.7981875 L52.7704063,5.5449375 L39.9395729,18.16175 C39.4367917,18.658375 38.6763125,17.911625 39.1808958,17.4168125 C39.6133958,16.9890625 52.0099271,4.7981875 52.0099271,4.7981875 L52.0099271,4.7981875 Z M17.9757812,17.4204375 C18.4785625,17.91525 17.7180833,18.662 17.2153021,18.165375 L4.38627083,5.5485625 L5.14494792,4.8018125 C5.14494792,4.8018125 17.5414792,16.9926875 17.9757812,17.4204375 L17.9757812,17.4204375 Z M52.7704063,32.89375 L52.0099271,33.6386875 L48.3697187,30.059 C47.8651354,29.5641875 48.6256146,28.8174375 49.1265937,29.31225 C49.5645,29.7381875 52.7704063,32.89375 52.7704063,32.89375 L52.7704063,32.89375 Z M48.3643125,27.1100625 C47.8615313,27.604875 48.6220104,28.351625 49.1247917,27.855 L52.7668021,24.2753125 L52.008125,23.5285625 C52.008125,23.5285625 48.8004167,26.6823125 48.3643125,27.1100625 L48.3643125,27.1100625 Z M32.9546979,4.7909375 L33.713375,5.5395 L30.0749688,9.1191875 C29.5703854,9.6158125 28.8099063,8.8690625 29.3144896,8.37425 C29.7469896,7.9465 32.9546979,4.7909375 32.9546979,4.7909375 L32.9546979,4.7909375 Z M27.0817083,9.1191875 C27.5862917,9.6158125 28.3449688,8.8690625 27.8403854,8.37425 L24.2001771,4.7909375 L23.4396979,5.5395 C23.4396979,5.5395 26.6492083,8.6950625 27.0817083,9.1191875 L27.0817083,9.1191875 Z M4.38807292,32.9028125 L5.14675,33.6495625 L8.78876042,30.0680625 C9.29154167,29.57325 8.5310625,28.8246875 8.03008333,29.3213125 C7.59397917,29.7490625 4.38807292,32.9028125 4.38807292,32.9028125 L4.38807292,32.9028125 Z M8.78515625,27.1155 C9.28973958,27.6103125 8.5310625,28.358875 8.02828125,27.8640625 L4.38627083,24.2825625 L5.14314583,23.5358125 C5.14314583,23.5358125 8.35085417,26.68775 8.78515625,27.1155 L8.78515625,27.1155 Z M24.1965729,52.3763125 L23.4360938,51.631375 L27.0763021,48.0480625 C27.5808854,47.5550625 28.3413646,48.3018125 27.8385833,48.7984375 C27.4042813,49.2225625 24.1965729,52.3763125 24.1965729,52.3763125 L24.1965729,52.3763125 Z M30.0767708,48.04625 C29.5739896,47.5514375 28.8135104,48.3 29.3180938,48.796625 L32.9601042,52.3745 L33.7169792,51.6295625 C33.7169792,51.6295625 30.5110729,48.474 30.0767708,48.04625 L30.0767708,48.04625 Z" id="Fill-3"></path>
            </g>
        </g>
    </g>
</svg>