<svg version="1" xmlns="http://www.w3.org/2000/svg" width="933.333" height="933.333" viewBox="0 0 700.000000 700.000000"><path d="M368.2 3.8c-1.3 1.3-2.6 6.6-4.6 17.8-1.6 8.7-3 16.8-3.2 17.9-2.7 14.2-3.4 18.5-3.9 21.5-.3 1.9-.7 4.6-1 6-.3 1.4-.7 4.1-1 6-.4 1.9-1.5 8-2.5 13.5s-2.1 11.6-2.4 13.5c-.3 1.9-.8 4.6-1.1 6-.3 1.4-1.2 6.5-2.1 11.5-2.1 12.6-2.3 13.7-2.8 16.3-.3 1.2 0 3.5.5 5.1 1 2.7 1.8 3.1 10.2 5 13.3 3.1 23.7 6.3 23.2 7.1-.3.5-2.3 5.9-4.5 12-2.2 6.2-4.2 11.5-4.4 11.8-.3.2-5.1-.7-10.8-2.2-17.6-4.4-27.5-5.5-49.3-5.1-19.6.3-24.6.6-33.4 2.6-2.4.5-4.6.7-4.9.4-.5-.5-6.2-21.9-7.7-28.7-.2-1.1.7-2.4 2.6-3.5 6.4-3.8 10.9-13.5 10.4-22.4-.5-9.2-6.1-17.5-14.4-21.6-5.5-2.7-17.3-2.4-23 .6-17 9-18.2 33-2.2 43.9 2.8 1.9 6.5 3.4 9.3 3.8 4.5.6 4.9.9 5.7 4.3 7.5 28.8 7.3 27.2 3.6 28.3-14.4 4.5-33.6 13.5-45.8 21.4-9.2 5.9-22.7 16.4-22.7 17.5 0 2.5-3.6-.1-12.9-9.6L162.8 194l1.6-4.1c1.7-4.2 2.3-11.5 1.3-15.5-3.2-13.3-17.3-21.9-30.7-18.9-5.3 1.1-8.8 3.3-13.1 7.7-11.1 11.7-8.3 31.2 5.8 39.5 6 3.5 15.5 4.3 22 1.8l4.6-1.8 10.4 10.6 10.4 10.6-4.3 4.8c-2.4 2.6-4.5 5-4.8 5.3-1.2 1-9.8 12.8-13.7 18.6-5.5 8.1-14.3 25.1-17.7 34.4-1.6 4.1-3.2 8.6-3.7 9.8-.5 1.3-1.5 2.2-2.2 2-.6-.3-7.3-2.2-14.7-4.3-7.4-2.1-13.6-3.9-13.6-3.9-.1-.1-.5-2.1-.8-4.5-1.4-10.2-8.4-18.5-18.1-21.3-16.8-4.9-32.9 7.3-32.8 24.8.2 23.1 28.9 33.9 44.4 16.7l3.6-4 4.9 1.4c18.3 5.2 25.4 7.7 25 8.9-.4 1.1-1.7 7.7-3 15.9-3.1 19-2.4 44.6 1.9 65.6.9 4.5 1.3 8.5.8 9-.4.4-4.6 1.9-9.3 3.2-4.7 1.4-10.6 3.2-13.2 4l-4.6 1.4-3.5-3.8c-7.2-7.8-17.4-10.4-27.6-6.9-13.6 4.6-20.8 20.6-15.1 33.8 2.9 6.8 9.6 12.7 16.6 14.8 15 4.3 31.6-6.8 32.6-22 .1-2.1.7-4 1.3-4.2.5-.1 6.4-1.9 13-4 6.6-2 12.5-3.9 13.1-4.1.6-.2 1.7 1.1 2.4 2.9 2.6 6.9 8.3 20.3 10.3 24.2 2.4 4.7 12.8 21.8 13.7 22.6.3.3 1.3 1.6 2.2 3 .8 1.4 4.4 5.8 7.8 9.9l6.2 7.4-10.5 10.5-10.5 10.5-4.4-1.8c-6.5-2.6-14.7-2.3-21.3.9-22.9 11.2-16.9 45.3 8.4 48.3 6.3.7 15.1-1.9 19.7-5.9 7.5-6.6 10.6-18.5 7.4-28.2-1.4-4.3-2-3.5 12.9-18.2l7.5-7.4 2.5 2.4c1.4 1.3 3.9 3.4 5.5 4.7 1.6 1.3 3.4 2.9 4 3.5 2.3 2.1 17.4 12.3 24.2 16.2 12.7 7.3 36.3 16.8 46.9 18.8 3.7.7 3.8 1.2 2 9.4-.3 1.4-1.2 6.3-2.1 11-.9 4.7-1.7 8.7-1.9 8.9-.2.1-2.1.5-4.2.8-12.1 1.6-21.5 12.7-21.5 25.5 0 22.4 26.6 33.9 43 18.4 5.5-5.1 7.6-10.1 7.7-18.2 0-8.4-2.7-14.5-8.9-20.1l-4-3.6 2.9-14.4 2.8-14.3 3.6.5c10.1 1.4 13.7 1.7 27.1 1.6 18.9-.1 24.3-.7 40-4.1 15.7-3.5 34.7-10.2 44.7-15.7 2.3-1.3 4.6-2.3 5.1-2.3 1 0 8.2 11.5 8.2 13 0 .4-.8 1-1.7 1.3-1 .3-7.6 3.2-14.8 6.4-10.4 4.7-13.1 6.4-13.9 8.4-.7 2.2 3.3 14.1 23.8 70.5 13.6 37.3 25.4 68.9 26.2 70.1.9 1.5 2.4 2.3 4.2 2.3 3.5 0 4.9-1 6-4 .9-2.6.8-3.1-35.9-103.4-6-16.5-10.8-30-10.7-30 .2-.1 5.3-2.4 11.3-5.1 12.7-5.7 23.5-11.9 35.4-20.4l8.4-6 2.1 2.7c1.1 1.5 2.3 2.9 2.7 3.2.3.3 3 3.4 6 7 2.9 3.6 5.5 6.7 5.8 7 .4.3 2.7 3 5.3 6.1l4.8 5.7-3.3 2.4c-1.7 1.3-5.1 3.6-7.4 5.2-2.3 1.5-4.6 4.1-5.2 5.6-.8 2.5-.5 3.5 2.8 8.2 2 2.9 6.7 9.7 10.4 15.1 3.6 5.3 9.2 13.3 12.2 17.6l5.5 7.9-9 5.7c-5 3.2-9.8 6.8-10.7 8.2-1.5 2.2-1.4 2.7 2.2 9.6 2 4 4.4 7.9 5.1 8.8.8.8 1.4 1.8 1.4 2.2 0 .3 1.7 3.3 3.7 6.7 4.4 7.4 7.4 9.1 11.2 6.2 3.4-2.5 3.4-6 .1-11.4-1.5-2.4-4.3-7.3-6.3-10.9l-3.7-6.5 7.8-5.1c4.3-2.9 12.5-8.6 18.2-12.7l10.5-7.6 3 3.3c1.7 1.8 5.6 6.6 8.8 10.5 6.3 7.8 9.6 9.1 13 5.4 3.3-3.6 2.1-6.3-9.4-20.5-9.3-11.4-11.6-13.7-13.8-13.7-2.3 0-6.3 2-8.1 3.9-1.4 1.7-13 10.1-13.7 10.1-.9-.1-26.3-36.4-26.3-37.7 0-.5 1.2-1.6 2.8-2.5 1.5-.9 3.6-2.5 4.7-3.5s3.6-3 5.6-4.5c2-1.5 6.1-4.9 9.1-7.7l5.5-5 25.9 26c35.2 35.4 34.5 34.8 37.7 34.2 3.2-.6 4.4-2 5.1-5.5.4-2.4-3-6.1-32.2-35.3-18-18-33.6-33.1-34.7-33.5-2.9-1.1-4.5-.2-11.5 6.3-3.5 3.2-6.9 5.7-7.5 5.5-.7-.2-7.6-8-15.5-17.3-7.8-9.4-15-17.6-15.8-18.2-2.9-2.3-6.7-1.4-12.7 3-3.3 2.4-9 6.4-12.6 9l-6.6 4.7-4.1-7-4-7 5.1-3.4c26.8-17.9 50.1-45.1 64.6-75.7 4.8-9.9 13.1-33.1 13.1-36.4 0-1.1.7-1.4 2.5-1.1 2.3.4 14.5 2.9 20.5 4.1 1.4.3 5 1.1 8 1.6 3 .6 6.2 1.3 7 1.4.8.2 1.8.4 2.2.4.9.1-3.4 15.6-7.3 26.1-4.2 11.1-4.6 14.1-2.2 16.1 1 .9 12.9 6 26.5 11.4l24.6 9.9-1 2.5c-1.3 3.6-10 20.8-12.6 25.1-2.8 4.5-2.8 7.1.1 9.7 2 1.8 44.4 27.1 51.2 30.5 6.2 3.1 11.6-.9 9.4-6.9-.6-1.8-15.7-11.5-27.7-18-2.4-1.3-19.4-11.4-20.1-11.9-.2-.2 2-4.8 4.8-10.3 5.2-10.2 14.4-32.8 17.6-43.6 1-3.3 1.9-6.1 2.1-6.3.1-.2 12.2 2.9 26.8 6.9l26.7 7.2 2.7-2c1.5-1.1 2.8-3 2.8-4.2.2-4.1-2.7-5.9-14.6-9-6.3-1.7-12.8-3.5-14.5-4-1.6-.5-10-2.8-18.5-5.1-19.6-5.2-19.9-5.1-23 5.2-1.2 4-3.4 10.8-4.9 15l-2.7 7.7-20.4-8.2c-11.3-4.5-21-8.5-21.7-9-.9-.6-.6-2.3 1.2-7 2.1-5.7 7-22.7 8-27.8.2-1.1.6-2.8.9-3.7.3-.9.8-4 1.2-6.7.3-2.8.8-5.8 1-6.9.2-1 .6-5.1 1-9 .4-3.9.8-7.8 1-8.6.1-.8.3-3.4.3-5.8l.1-4.2h45.7l-.4 10.7c-.1 6-.5 12.4-.7 14.3-.3 1.9-1 7.7-1.7 12.9-1.2 9.1-1.2 9.4.8 11.1 1.2.9 6.4 2.4 12 3.3 5.4.9 11.2 1.9 12.8 2.3 36.6 6.9 40.5 7.3 42.4 5 3.5-4.2.3-10-5.9-11-3.3-.5-23.1-4.1-27.5-5-1.1-.2-6.6-1.2-12.2-2.2-10.2-1.7-10.3-1.8-9.8-4.3 1.3-6.5 2-19.2 1.9-38.1 0-19.1-.3-26.3-2-44.6-.5-5.6-.3-7.1.7-7.1 1.1 0 33.1-5.8 48.9-8.8 6.3-1.2 8.6-4.5 6.6-9.2-1.5-3.6-5-3.9-15.9-1.7-1.2.2-5.8 1.1-10.2 1.9-9.3 1.7-17.7 3.2-22 4-1.6.3-6.6 1.2-11 2-7.9 1.5-10.4 2.9-10.6 6.4-.2 1.9-.2 1.3.6 8.1.9 7.9 1.3 14.1 2.1 26.5l.6 11.1-24.9-.1c-28.2-.1-30 .1-31.3 2.5-.5 1-1.2 6.5-1.5 12.2-.3 5.6-1 13.9-1.5 18.3-.6 4.4-1 8.4-1 9-.1 2.7-1.6 3.4-5.5 2.5-2.2-.5-5.3-1.1-7-1.4-1.6-.3-8.3-1.7-14.9-3.1-6.5-1.4-12.2-2.5-12.8-2.5-.5 0-.7-2-.3-4.8 1.3-10.5 1.5-14.2 1.5-25.7.1-15.6-.9-25.3-4-40.3-2.7-13.1-8.1-28.7-14.6-42.1-5-10.6-5.3-11.5-3.7-12.7 43.1-31 46.8-33.4 50.3-32.9 1.9.2 6.4.7 10 1 3.6.3 8.1.8 10 1 1.9.2 6.4.6 10 1 7.7.7 9.7 1.2 11.9 3.1.9.7 6.1 4.5 11.6 8.3 8.4 6 11 7.2 17.5 8.6 4.1 1 16.7 3.8 28 6.4 21.9 5.1 24.5 5.1 27.5.8 3.3-4.7.7-11.9-4.8-13.2-1.2-.3-6.7-1.6-12.2-3-5.5-1.3-11.9-2.7-14.1-3.1-5.8-.9-7.2-1.9-5.7-4.1.6-1 5.7-9.1 11.2-18.1 7.7-12.4 10.1-17.2 10.1-19.8 0-6-6.7-10.2-11.9-7.3-1.6.9-7 8.6-13.8 19.4-6.1 9.9-12 19.2-13 20.7l-1.9 2.6-7.6-5.1c-4.3-2.9-7.7-5.6-7.8-6.1 0-.5 7.1-11.9 15.8-25.5 19.9-30.8 19.6-30.3 18.2-34.6-1.4-4.2-6-6.7-10.2-5.4-3.6 1-3.3.6-14.5 18.2-4.8 7.5-12.7 19.8-17.5 27.2L566 215l-4.7-.5c-2.7-.3-6.6-.7-8.8-1-2.2-.2-7.5-.7-11.7-1.1-5.7-.5-7.8-1-7.8-2 0-1.6 9.5-34.7 10.9-38 .7-1.5 3.4-3.1 8.3-4.9 4-1.5 8.7-3.3 10.3-4.1 1.7-.7 9.3-3.8 17-6.9 20.2-8.2 20.3-8.2 21.5-12.1.6-1.8.9-4.3.5-5.4-.8-2.6-5.3-6-7.9-6-1.2 0-11.1 3.6-22.1 8-10.9 4.4-20 7.8-20.3 7.6-.4-.5 1.1-6 9.4-33.9 4.3-14.4 4.3-15 2.8-18.2-2.1-4.4-6.3-6-10.9-4.1-4 1.7-4 1.8-14.1 36.1-7.2 24.8-15 51.3-15.9 54.5-6.5 23.3-9 30.7-11 32.6-2.6 2.5-42.9 31.2-44.3 31.6-.5.2-3.7-3.3-7.1-7.7-9.2-11.7-27.1-28.9-39.1-37.5-5.8-4.1-17.3-10.9-25.6-15.1l-15.1-7.6 3.9-10.9c2.2-6 4.1-11.5 4.4-12.3.6-1.9 4.1-.8 16.2 5.1 12.9 6.3 14 6 19.4-4.5 5.8-11.2 27-50.1 27.8-51 1.1-1.2 22.5 11.9 27.8 17 1.9 1.9 4.7 2.4 7.3 1.4 3.4-1.3 39.9-49.5 39.9-52.7 0-2.6-3.2-6.4-5.2-6.4-3.2.1-6.5 3.7-18.8 20-7.3 9.6-14.6 19.2-16.2 21.2l-2.9 3.7-9.7-6.3c-11-7.3-28.5-16.4-44.8-23.4l-11.1-4.7 7.3-20c12.2-33.3 11.6-31.3 10.2-34.2-1.6-3.3-4.8-4.5-7.9-3-1.9 1-4.3 6.6-13 30.6-5.9 16.1-10.6 30.3-10.3 31.4.6 3.1 2 4.1 11.9 8 5 1.9 12.5 5.2 16.8 7.2l7.8 3.6-5.8 10.7c-3.1 5.9-6.6 12.3-7.6 14.2-1 1.9-3.1 5.7-4.6 8.5-1.4 2.7-4.2 7.9-6.1 11.5-1.9 3.6-3.5 6.7-3.7 6.9-.1.2-2.2-.5-4.5-1.7-15.1-7-31.7-12.7-49.1-16.6-2.8-.7-2.9-.9-2.3-4.9 1-7.2 3-19 7.6-43.7 1.1-5.8 2.2-12.1 2.5-14 .3-1.9 1.5-8.5 2.6-14.5 1-6.1 2.2-12.4 2.5-14 .2-1.7 1.4-8 2.5-14 3.2-16.7 3.4-21.3 1.3-23.6-2.2-2.4-5.8-2.5-8.2-.1zM257.5 106.4c1.4.9 3.2 3 4.1 4.8 5.6 10.9-4.4 22.7-15.9 18.7-11.3-3.9-11.6-20.5-.5-24.8 3.2-1.3 9.4-.6 12.3 1.3zm-109.1 63.2c8.4 6.2 6.5 19.8-3.2 23.4-9.2 3.3-19.3-5-17.7-14.5 1.7-9.5 13.3-14.4 20.9-8.9zm188.2 18.9c19.3 3.1 32.5 7.3 49.9 16s29.6 17.5 44 32c21.1 21.2 34.7 43.8 43.1 71.9 1.4 4.5 2.7 9.3 2.9 10.8.9 5 1.5 8.3 2 10.7 2.5 12.7 2.3 38.8-.4 54.1-2.5 13.6-2.7 14.2-6.2 24.9-14.1 42.9-44.9 78.4-85.4 98.5-20 10-35.4 14.6-58 17.3-10.2 1.2-35.8.6-43.6-1.1-1.3-.3-4-.8-6-1-2-.3-4.2-.8-5-1-.8-.3-2.6-.7-4-1-1.4-.2-7.4-2-13.3-4-42.2-14.1-77.7-45.3-97.8-85.8-4.8-9.7-12-29.8-13.3-36.8-2.8-16.2-3.7-24.3-3.8-36-.1-12.1.7-26.1 1.8-29.3.2-.7.6-2.8.9-4.7.3-1.9 1.4-7 2.6-11.2 6.8-25.8 20.8-51.8 37.6-69.8 2.4-2.5 5.1-5.4 6.1-6.5 2.9-3.3 15.4-13.9 21.5-18.4 18.8-13.6 46.2-25.3 67.3-28.7 2-.3 4.7-.8 5.9-1 1.1-.2 5-.7 8.6-1 3.6-.3 6.6-.7 6.7-.8.9-.8 28.1.6 35.9 1.9zM83.7 280.4c1.8 1.9 3.3 4.4 3.4 5.3 0 1 .2 2.5.4 3.4.5 2.7-3 9.4-6 11.3-6.1 4-16 1.4-19-5-4.7-9.9 2.2-20 12.9-19.1 4.2.4 5.5 1 8.3 4.1zm2.1 134.9c2 1.6 4.2 7 4.2 10.4 0 6.3-6.4 12.2-13.3 12.5-7.6.3-14.1-7-13.1-14.7.8-6.5 4.8-10.4 11.9-11.8 2.2-.4 7.9 1.6 10.3 3.6zm56.5 100.8c10.5 5.4 10 19.8-.9 24.5-3.9 1.7-9.1.8-13-2.1-3-2.3-5.5-8-4.9-11.3.2-.9.4-2.2.4-2.9.1-1.8 5.2-7.4 7.5-8.3 3-1.3 8.4-1.2 10.9.1zm126.4 67.6c6.4 3 8.7 12.6 4.6 19-2.2 3.4-8.7 6.2-12.7 5.6-12.2-1.8-15.8-18-5.3-24.3 3.9-2.4 8.8-2.5 13.4-.3z"/><path d="M256.8 219.5c-4.7 1.2-9.9 4.4-13.5 8.5-4.9 5.5-10.5 18.2-11.9 27-.3 1.4-.6 3.6-.9 5-1.5 8.1-2.3 22.1-3 50-.5 23.9-1.5 46.9-2 51.5-.2 1.6-.7 5.5-1 8.5-1.6 15.1-6.2 30.6-12.8 43.5-4 7.7-13.7 18.8-22.3 25.6-7.1 5.5-3.9 16.9 4.8 16.9 3.1 0 7.1-2.6 14.1-9 17.2-15.8 28.9-41.2 33.1-72 2.5-18.9 3.3-30.5 4.1-66.2.3-12 .7-23.3.9-25 .3-1.8.8-6 1.1-9.3 1.2-11.2 1.5-13 3-19 6.5-25.2 19.6-23.7 26.4 3.1 1.1 4.3 2.2 9 2.4 10.4 1.8 9.4 2.7 15.2 3.2 19.9.4 3 .8 6.1 1 7 .1.9.6 4.5 1 8.1 1 10.6 4.4 33.1 5.6 37.4.6 2.3 1.3 5.1 1.5 6.3 1.9 10.1 10.4 27.4 17.9 36.6 14.5 17.6 31.7 24.1 63.5 23.9 9.9 0 48.5-1.2 57.9-1.8l7.4-.4-4.2 4.5c-2.3 2.5-4.6 5.6-5.1 7-2.2 5.7 3.9 12.5 9.9 11 1.5-.4 8.3-6.3 15.8-13.8 14.2-14 16.1-17.3 13-22-1.6-2.5-21.8-22.9-25.6-25.8-5.4-4.3-13.4-.4-13.4 6.5 0 3.1.8 4.5 5.2 9 5.1 5.2 5.1 5.2 2.4 5.3-1.5 0-10.7.4-20.3.8-50 2.1-63.7 1.2-76.5-4.9-17.6-8.3-29.5-27.2-33-52.4-.3-2-.8-4.8-1-6.2-.2-1.4-.7-5.2-1-8.5-.4-3.3-.8-7.1-1-8.5-.2-1.4-.7-6.1-1.1-10.5-.3-4.4-.8-8.2-.9-8.5-.2-.3-.6-3.4-1-6.9-.4-3.4-.8-7.2-1.1-8.4-.2-1.2-.9-4.8-1.4-7.9-.6-3.2-1.3-6.9-1.6-8.3-.8-4.3-5.3-16.1-8.1-21.1-3.2-5.7-9.7-12.5-14.3-14.9-4.8-2.5-12.1-3.3-17.2-2z"/></svg>